<svg width="30" height="30" viewBox="0 0 30 30" fill="none" xmlns="http://www.w3.org/2000/svg">
<path d="M27.19 1.78027H2.81C2.22369 1.78027 1.75 2.25396 1.75 2.84027V27.2203C1.75 27.8066 2.22369 28.2803 2.81 28.2803H27.19C27.7763 28.2803 28.25 27.8066 28.25 27.2203V2.84027C28.25 2.25396 27.7763 1.78027 27.19 1.78027ZM24.1292 9.51496H22.0126C20.353 9.51496 20.0317 10.3033 20.0317 11.4627V14.0166H23.9934L23.4767 18.0148H20.0317V28.2803H15.901V18.0182H12.4461V14.0166H15.901V11.0685C15.901 7.64671 17.9912 5.78177 21.0453 5.78177C22.5094 5.78177 23.7649 5.89109 24.1326 5.94077V9.51496H24.1292Z" fill="black" fill-opacity="0.5"/>
</svg>
