<svg width="46" height="60" viewBox="0 0 46 60" fill="none" xmlns="http://www.w3.org/2000/svg">
<path d="M33.5467 42.0924C37.9775 42.0924 41.5775 38.4924 41.5775 33.9693C41.5775 32.2155 42.316 30.4616 43.516 29.2616C46.6544 26.1231 46.6544 20.9539 43.516 17.8155C42.2237 16.5231 41.5775 14.8616 41.5775 13.1078C41.5775 8.677 37.9775 4.98469 33.4544 4.98469C31.7006 4.98469 29.9467 4.24623 28.7467 3.04623C25.6083 -0.0922324 20.439 -0.0922324 17.3006 3.04623C16.0083 4.33854 14.3467 4.98469 12.5929 4.98469C8.16212 4.98469 4.46981 8.58469 4.46981 13.1078C4.46981 14.8616 3.73135 16.6155 2.53135 17.8155C0.962117 19.3847 0.131348 21.3232 0.131348 23.5385C0.131348 25.6616 0.962117 27.6924 2.53135 29.2616C3.82366 30.5539 4.46981 32.2155 4.46981 33.9693C4.46981 38.4001 8.06981 42.0924 12.5929 42.0924C14.3467 42.0924 16.1006 42.8308 17.3006 44.0308C18.8698 45.6001 20.9006 46.4308 23.0237 46.4308C25.0544 46.4308 27.1775 45.6001 28.7467 44.0308C30.1313 42.7385 31.7929 42.0924 33.5467 42.0924ZM18.4083 43.0155C16.839 41.4462 14.8083 40.6155 12.6852 40.6155C8.99289 40.6155 5.94673 37.5693 5.94673 33.877C5.94673 31.7539 5.11596 29.7232 3.54673 28.1539C2.25443 26.8616 1.60827 25.2001 1.60827 23.4462C1.60827 21.6924 2.34673 19.9385 3.54673 18.7385C5.11596 17.1693 5.94673 15.1385 5.94673 13.0155C5.94673 9.32315 8.99289 6.277 12.6852 6.277C14.8083 6.277 16.839 5.44623 18.4083 3.877C19.7006 2.76931 21.3621 2.12315 23.116 2.12315C24.8698 2.12315 26.5313 2.76931 27.8237 4.06161C29.3929 5.53854 31.4237 6.36931 33.5467 6.36931C37.239 6.36931 40.1929 9.41546 40.1929 13.1078C40.1929 15.2308 41.0237 17.2616 42.5929 18.8308C45.1775 21.4155 45.1775 25.6616 42.5929 28.3385C41.0237 29.9078 40.1929 31.9385 40.1929 34.0616C40.1929 37.7539 37.1467 40.8001 33.4544 40.8001C31.3314 40.8001 29.3006 41.6308 27.7313 43.2001C25.239 45.6924 20.9929 45.6924 18.4083 43.0155Z" fill="black" fill-opacity="0.8"/>
<path d="M39.4545 23.5384C39.4545 23.1692 39.1776 22.8 38.7161 22.8C38.3468 22.8 37.9776 23.0769 37.9776 23.5384C37.9776 31.7538 31.2391 38.4923 22.9314 38.5846C14.7161 38.5846 7.97759 31.8461 7.88528 23.5384C7.88528 21.2307 8.34682 19.1076 9.3622 17.0769C12.0391 11.9076 17.393 8.58457 23.1161 8.58457C29.393 8.58457 35.1161 12.5538 37.2391 18.5538C37.3314 18.923 37.793 19.1076 38.1622 19.0153C38.3468 18.923 38.4391 18.8307 38.5314 18.6461C38.6238 18.4615 38.6238 18.2769 38.5314 18.0923C36.2237 11.6307 30.0391 7.19995 23.1161 7.19995C19.9776 7.19995 16.9314 8.12303 14.2545 9.78457C11.6699 11.4461 9.63913 13.7538 8.34682 16.523C7.33143 18.7384 6.77759 21.1384 6.77759 23.6307C6.77759 32.6769 14.1622 40.0615 23.2084 40.0615C32.2545 40.0615 39.4545 32.5846 39.4545 23.5384Z" fill="black" fill-opacity="0.8"/>
<path d="M34.285 19.9386C34.1927 19.6617 34.0081 19.4771 33.7312 19.4771L26.8081 18.4617L23.762 12.1848C23.4851 11.7232 22.7466 11.7232 22.562 12.1848L19.4235 18.4617L12.5927 19.4771C12.3158 19.4771 12.1312 19.6617 12.0389 19.9386C11.9466 20.2155 12.0389 20.4925 12.2235 20.6771L17.2081 25.5694L15.9158 32.3078C15.9158 32.5848 16.0081 32.8617 16.1927 32.954C16.3774 33.1386 16.6543 33.1386 16.9312 33.0463L23.1158 29.8155L29.3004 33.0463C29.3927 33.1386 29.4851 33.1386 29.5774 33.1386C29.762 33.1386 29.8543 33.1386 29.9466 33.0463C30.1312 32.8617 30.2235 32.5848 30.2235 32.4002L29.0235 25.5694L34.0081 20.6771C34.285 20.4925 34.285 20.2155 34.285 19.9386ZM27.8235 24.7386C27.6389 24.9232 27.5466 25.1079 27.6389 25.3848L28.6543 31.2002L23.3927 28.4309C23.3004 28.3386 23.2081 28.3386 23.1158 28.3386C23.0235 28.3386 22.9312 28.3386 22.8389 28.4309L17.5774 31.2002L18.5927 25.3848C18.5927 25.2002 18.5927 24.9232 18.4081 24.7386L14.162 20.5848L19.9774 19.754C20.162 19.754 20.4389 19.5694 20.5312 19.3848L23.1158 14.1232L25.7004 19.3848C25.7927 19.5694 25.9774 19.754 26.2543 19.754L32.0697 20.5848L27.8235 24.7386Z" fill="black" fill-opacity="0.8"/>
<path d="M18.5005 47.6308C18.1313 47.4462 17.7621 47.6308 17.5775 48.0001L13.4236 56.8616L10.839 49.6616C10.7467 49.477 10.6544 49.3847 10.4698 49.2924C10.2851 49.2001 10.1005 49.2001 9.91592 49.2924L2.71591 51.877L6.68514 43.2924C6.86976 42.9231 6.68515 42.5539 6.31591 42.3693C5.94668 42.1847 5.57745 42.3693 5.39284 42.7385L0.685144 52.8924C0.592837 53.1693 0.592837 53.4462 0.777452 53.6308C0.962068 53.8155 1.23899 53.9078 1.51591 53.8155L9.63899 50.8616L12.5928 58.9847C12.6851 59.2616 12.9621 59.4462 13.239 59.4462C13.5159 59.4462 13.7928 59.2616 13.8851 59.077L18.6851 48.7385C19.0544 48.1847 18.8698 47.8155 18.5005 47.6308Z" fill="black" fill-opacity="0.8"/>
<path d="M43.9773 53.5386C44.1619 53.3539 44.2542 53.077 44.0696 52.8001L39.6389 43.3847C39.4542 43.0155 39.085 42.9232 38.7158 43.0155C38.3465 43.2001 38.2542 43.5693 38.3465 43.9385L42.0388 51.877L34.8389 49.2924C34.6542 49.2001 34.4696 49.2001 34.285 49.2924C34.1004 49.3847 34.0081 49.477 33.9158 49.6616L31.4235 56.7693L27.5465 48.3693C27.3619 48.0001 26.9927 47.9078 26.6235 48.0001C26.2542 48.1847 26.1619 48.5539 26.2542 48.9232L30.8696 58.8001C30.9619 59.077 31.2389 59.1693 31.5158 59.1693C31.7927 59.1693 32.0696 58.9847 32.1619 58.7078L35.1158 50.5847L43.2388 53.5386C43.5158 53.8155 43.7927 53.7232 43.9773 53.5386Z" fill="black" fill-opacity="0.8"/>
</svg>
