<svg width="40" height="40" viewBox="0 0 40 40" fill="none" xmlns="http://www.w3.org/2000/svg">
<g clip-path="url(#clip0)">
<path d="M33.4939 34.5999H30.1911C30.0159 34.5999 29.8479 34.5303 29.724 34.4064C29.6001 34.2825 29.5305 34.1145 29.5305 33.9393C29.5305 33.7641 29.6001 33.5961 29.724 33.4722C29.8479 33.3484 30.0159 33.2788 30.1911 33.2788H33.4939C34.895 33.2772 36.2382 32.7199 37.2289 31.7292C38.2196 30.7385 38.7769 29.3953 38.7785 27.9942V18.7463C38.7769 17.3452 38.2196 16.002 37.2289 15.0113C36.2382 14.0206 34.895 13.4633 33.4939 13.4618H30.1911C30.0159 13.4618 29.8479 13.3922 29.724 13.2683C29.6001 13.1444 29.5305 12.9764 29.5305 12.8012C29.5305 12.626 29.6001 12.458 29.724 12.3341C29.8479 12.2102 30.0159 12.1406 30.1911 12.1406H33.4939C35.2453 12.1425 36.9243 12.8391 38.1627 14.0775C39.4011 15.3159 40.0977 16.995 40.0996 18.7463V27.9942C40.0977 29.7456 39.4011 31.4246 38.1627 32.663C36.9243 33.9014 35.2453 34.598 33.4939 34.5999Z" fill="#DEC377"/>
<path d="M33.4939 30.6365H30.1911C30.0159 30.6365 29.8479 30.5669 29.724 30.443C29.6001 30.3191 29.5305 30.1511 29.5305 29.9759C29.5305 29.8007 29.6001 29.6327 29.724 29.5088C29.8479 29.3849 30.0159 29.3153 30.1911 29.3153H33.4939C33.8443 29.3153 34.1803 29.1762 34.4281 28.9284C34.6759 28.6806 34.8151 28.3446 34.8151 27.9942V18.7463C34.8151 18.3959 34.6759 18.0598 34.4281 17.8121C34.1803 17.5643 33.8443 17.4251 33.4939 17.4251H30.1911C30.0159 17.4251 29.8479 17.3555 29.724 17.2317C29.6001 17.1078 29.5305 16.9398 29.5305 16.7646C29.5305 16.5894 29.6001 16.4214 29.724 16.2975C29.8479 16.1736 30.0159 16.104 30.1911 16.104H33.4939C34.1947 16.104 34.8668 16.3824 35.3623 16.8779C35.8578 17.3734 36.1362 18.0455 36.1362 18.7463V27.9942C36.1362 28.695 35.8578 29.3671 35.3623 29.8626C34.8668 30.3581 34.1947 30.6365 33.4939 30.6365Z" fill="#DEC377"/>
<path d="M28.8698 37.2421H7.7317C7.20612 37.2421 6.70207 37.0333 6.33043 36.6617C5.95879 36.29 5.75 35.786 5.75 35.2604V11.48C5.75 10.9544 5.95879 10.4504 6.33043 10.0787C6.70207 9.70708 7.20612 9.49829 7.7317 9.49829H28.8698C29.3954 9.49829 29.8995 9.70708 30.2711 10.0787C30.6428 10.4504 30.8515 10.9544 30.8515 11.48V35.2604C30.8515 35.786 30.6428 36.29 30.2711 36.6617C29.8995 37.0333 29.3954 37.2421 28.8698 37.2421ZM7.7317 10.8194C7.55651 10.8194 7.38849 10.889 7.26461 11.0129C7.14073 11.1368 7.07113 11.3048 7.07113 11.48V35.2604C7.07113 35.4356 7.14073 35.6036 7.26461 35.7275C7.38849 35.8514 7.55651 35.921 7.7317 35.921H28.8698C29.045 35.921 29.213 35.8514 29.3369 35.7275C29.4608 35.6036 29.5304 35.4356 29.5304 35.2604V11.48C29.5304 11.3048 29.4608 11.1368 29.3369 11.0129C29.213 10.889 29.045 10.8194 28.8698 10.8194H7.7317Z" fill="#DEC377"/>
<path d="M13.0161 8.17711C12.8855 8.17708 12.7578 8.13832 12.6492 8.06574C12.5406 7.99315 12.456 7.88999 12.406 7.76931C12.356 7.64862 12.3429 7.51583 12.3684 7.38771C12.3939 7.25959 12.4567 7.1419 12.5491 7.04952C12.7263 6.90715 12.8693 6.72682 12.9676 6.52184C13.0658 6.31686 13.1168 6.09244 13.1168 5.86512C13.1168 5.63781 13.0658 5.41339 12.9676 5.2084C12.8693 5.00342 12.7263 4.8231 12.5491 4.68073C12.2508 4.41428 12.0121 4.08785 11.8487 3.72278C11.6853 3.35772 11.6008 2.96226 11.6008 2.56229C11.6008 2.16232 11.6853 1.76686 11.8487 1.40179C12.0121 1.03673 12.2508 0.710292 12.5491 0.443851C12.61 0.38076 12.6829 0.330436 12.7635 0.295817C12.8441 0.261197 12.9308 0.242975 13.0185 0.242212C13.1062 0.24145 13.1932 0.258164 13.2744 0.291378C13.3556 0.324592 13.4293 0.373641 13.4913 0.435663C13.5533 0.497685 13.6024 0.571439 13.6356 0.65262C13.6688 0.733801 13.6855 0.820785 13.6848 0.908494C13.684 0.996204 13.6658 1.08288 13.6312 1.16348C13.5966 1.24407 13.5462 1.31696 13.4831 1.37789C13.3059 1.52026 13.1629 1.70059 13.0647 1.90557C12.9664 2.11055 12.9154 2.33497 12.9154 2.56229C12.9154 2.7896 12.9664 3.01402 13.0647 3.21901C13.1629 3.42399 13.3059 3.60431 13.4831 3.74668C13.7814 4.01313 14.0201 4.33956 14.1835 4.70463C14.3469 5.06969 14.4314 5.46515 14.4314 5.86512C14.4314 6.26509 14.3469 6.66055 14.1835 7.02562C14.0201 7.39068 13.7814 7.71712 13.4831 7.98356C13.3593 8.10745 13.1913 8.17707 13.0161 8.17711Z" fill="#DEC377"/>
<path d="M18.3008 8.17711C18.1702 8.17708 18.0425 8.13832 17.9339 8.06574C17.8253 7.99315 17.7406 7.88999 17.6906 7.76931C17.6407 7.64862 17.6276 7.51583 17.653 7.38771C17.6785 7.25959 17.7414 7.1419 17.8338 7.04952C18.011 6.90715 18.154 6.72682 18.2522 6.52184C18.3505 6.31686 18.4015 6.09244 18.4015 5.86512C18.4015 5.63781 18.3505 5.41339 18.2522 5.2084C18.154 5.00342 18.011 4.8231 17.8338 4.68073C17.5355 4.41428 17.2968 4.08785 17.1334 3.72278C16.97 3.35772 16.8855 2.96226 16.8855 2.56229C16.8855 2.16232 16.97 1.76686 17.1334 1.40179C17.2968 1.03673 17.5355 0.710292 17.8338 0.443851C17.8947 0.38076 17.9676 0.330436 18.0482 0.295817C18.1288 0.261197 18.2155 0.242975 18.3032 0.242212C18.3909 0.24145 18.4779 0.258164 18.559 0.291378C18.6402 0.324592 18.714 0.373641 18.776 0.435663C18.838 0.497685 18.8871 0.571439 18.9203 0.65262C18.9535 0.733801 18.9702 0.820785 18.9694 0.908494C18.9687 0.996204 18.9505 1.08288 18.9158 1.16348C18.8812 1.24407 18.8309 1.31696 18.7678 1.37789C18.5906 1.52026 18.4476 1.70059 18.3493 1.90557C18.2511 2.11055 18.2001 2.33497 18.2001 2.56229C18.2001 2.7896 18.2511 3.01402 18.3493 3.21901C18.4476 3.42399 18.5906 3.60431 18.7678 3.74668C19.0661 4.01313 19.3048 4.33956 19.4682 4.70463C19.6316 5.06969 19.7161 5.46515 19.7161 5.86512C19.7161 6.26509 19.6316 6.66055 19.4682 7.02562C19.3048 7.39068 19.0661 7.71712 18.7678 7.98356C18.644 8.10745 18.476 8.17707 18.3008 8.17711Z" fill="#DEC377"/>
<path d="M23.5852 8.17711C23.4546 8.17708 23.3269 8.13832 23.2183 8.06574C23.1097 7.99315 23.025 7.88999 22.9751 7.76931C22.9251 7.64862 22.912 7.51583 22.9375 7.38771C22.9629 7.25959 23.0258 7.1419 23.1182 7.04952C23.2954 6.90715 23.4384 6.72682 23.5367 6.52184C23.6349 6.31686 23.6859 6.09244 23.6859 5.86512C23.6859 5.63781 23.6349 5.41339 23.5367 5.2084C23.4384 5.00342 23.2954 4.8231 23.1182 4.68073C22.8199 4.41428 22.5812 4.08785 22.4178 3.72278C22.2544 3.35772 22.1699 2.96226 22.1699 2.56229C22.1699 2.16232 22.2544 1.76686 22.4178 1.40179C22.5812 1.03673 22.8199 0.710292 23.1182 0.443851C23.1791 0.38076 23.252 0.330436 23.3326 0.295817C23.4132 0.261197 23.4999 0.242975 23.5876 0.242212C23.6753 0.24145 23.7623 0.258164 23.8435 0.291378C23.9246 0.324592 23.9984 0.373641 24.0604 0.435663C24.1224 0.497685 24.1715 0.571439 24.2047 0.65262C24.2379 0.733801 24.2546 0.820785 24.2539 0.908494C24.2531 0.996204 24.2349 1.08288 24.2003 1.16348C24.1656 1.24407 24.1153 1.31696 24.0522 1.37789C23.875 1.52026 23.732 1.70059 23.6338 1.90557C23.5355 2.11055 23.4845 2.33497 23.4845 2.56229C23.4845 2.7896 23.5355 3.01402 23.6338 3.21901C23.732 3.42399 23.875 3.60431 24.0522 3.74668C24.3505 4.01313 24.5892 4.33956 24.7526 4.70463C24.916 5.06969 25.0005 5.46515 25.0005 5.86512C25.0005 6.26509 24.916 6.66055 24.7526 7.02562C24.5892 7.39068 24.3505 7.71712 24.0522 7.98356C23.9284 8.10745 23.7604 8.17707 23.5852 8.17711Z" fill="#DEC377"/>
</g>
<defs>
<clipPath id="clip0">
<rect width="40" height="40" fill="white"/>
</clipPath>
</defs>
</svg>
