<svg width="19" height="16" viewBox="0 0 19 16" fill="none" xmlns="http://www.w3.org/2000/svg">
<path d="M9.52546 16.0001L8.73346 13.2461H4.28746L3.49546 16.0001H0.147461L4.52146 3.09411H8.44546L12.8735 16.0001H9.52546ZM7.29346 8.11611C7.23346 7.90011 7.14946 7.61211 7.04146 7.25211C6.94546 6.88011 6.84346 6.50211 6.73546 6.11811C6.63946 5.73411 6.56146 5.41011 6.50146 5.14611C6.45346 5.41011 6.37546 5.74011 6.26746 6.13611C6.17146 6.52011 6.07546 6.89811 5.97946 7.27011C5.88346 7.63011 5.80546 7.91211 5.74546 8.11611L4.98946 10.6901H8.04946L7.29346 8.11611Z" fill="black" fill-opacity="0.5"/>
<path d="M18.13 0.808105V8.51211H15.862V4.94811C15.862 4.80411 15.868 4.60611 15.88 4.35411C15.892 4.09011 15.904 3.83811 15.916 3.59811C15.928 3.34611 15.94 3.17811 15.952 3.09411C15.88 3.20211 15.784 3.32211 15.664 3.45411C15.544 3.57411 15.436 3.67611 15.34 3.76011L14.638 4.31811L13.54 3.04011L16.348 0.808105H18.13Z" fill="black" fill-opacity="0.5"/>
</svg>
