<svg width="0" height="0" class="hidden">
  <symbol fill="none" xmlns="http://www.w3.org/2000/svg" viewBox="0 0 60 60" id="confidentiality-icon">
    <path d="M45.292 53.82H9.68V18.444L21.943 6.258h22.72V19.78a.62.62 0 00.63.629c.392 0 .628-.236.628-.63V5.63a.62.62 0 00-.629-.63H21.707a.6.6 0 00-.393.157L8.657 17.814a.6.6 0 00-.157.393v36.164a.62.62 0 00.629.629h36.163a.62.62 0 00.63-.629c0-.393-.315-.55-.63-.55z" fill="#000" fill-opacity=".8"></path>
    <path d="M22.258 18.207V8.773a.62.62 0 00-.63-.628c-.392 0-.628.235-.628.628v8.884h-8.726a.62.62 0 00-.63.629c0 .393.236.629.63.629h9.433a.755.755 0 00.55-.708zM39.79 23.16H13.847a.62.62 0 00-.63.63c0 .392.237.628.63.628H39.79a.62.62 0 00.629-.629.62.62 0 00-.629-.629zm.55 5.268a.62.62 0 00-.629-.63H13.768a.62.62 0 00-.63.63c0 .393.236.629.63.629H39.71a.62.62 0 00.629-.63zm-26.493 4.166a.62.62 0 00-.63.63c0 .392.237.628.63.628h21.226a.62.62 0 00.629-.629c0-.393-.236-.629-.629-.629H13.847z" fill="#000" fill-opacity=".8"></path>
    <path d="M47.494 30.236c-4.56 0-8.57 2.83-10.142 7.075H15.497a.6.6 0 00-.393.157l-3.145 3.145a.6.6 0 00-.157.393c0 .157 0 .236.078.393l3.145 3.145a.6.6 0 00.393.157h3.223a.6.6 0 00.394-.157l1.808-1.808 1.965 1.808a.6.6 0 00.393.157h.786a.6.6 0 00.393-.157l1.809-1.808 1.808 1.808a.6.6 0 00.393.157h.786a.6.6 0 00.393-.157l1.808-1.808 1.808 1.808a.6.6 0 00.393.157h3.538c1.572 4.245 5.582 7.076 10.142 7.076 5.975 0 10.849-4.874 10.849-10.85 0-5.974-4.639-10.691-10.613-10.691zm0 20.44c-4.246 0-7.862-2.673-9.199-6.682a.591.591 0 00-.55-.393H34.05l-2.044-2.044a.6.6 0 00-.393-.158.6.6 0 00-.393.158l-2.123 1.965h-.314l-2.044-2.044a.617.617 0 00-.865 0l-2.044 2.044h-.314l-2.044-2.044a.617.617 0 00-.865 0l-2.044 2.044h-2.83l-2.595-2.594 2.595-2.595h22.09a.591.591 0 00.551-.393c1.337-3.93 4.953-6.603 9.12-6.603a9.663 9.663 0 019.67 9.67 9.663 9.663 0 01-9.67 9.67z" fill="#000" fill-opacity=".8"></path>
    <path d="M51.424 36.918a4.06 4.06 0 00-4.088 4.088 4.06 4.06 0 004.088 4.088 4.06 4.06 0 004.088-4.088 4.06 4.06 0 00-4.088-4.088zm0 6.997c-1.572 0-2.909-1.336-2.909-2.909 0-1.572 1.337-2.909 2.91-2.909 1.572 0 2.908 1.337 2.908 2.91a2.902 2.902 0 01-2.909 2.908zM40.34 8.773a.62.62 0 00-.63-.628h-9.433a.62.62 0 00-.63.628V19.78a.62.62 0 00.63.629h9.434a.62.62 0 00.629-.63V8.774zM39.16 19.23h-8.254V9.402h8.255v9.827z" fill="#000" fill-opacity=".8"></path>
  </symbol>
  <symbol fill="none" xmlns="http://www.w3.org/2000/svg" viewBox="0 0 60 60" id="goal-icon">
    <path d="M30 25.108a.728.728 0 00.738-.739c0-.461-.277-.738-.738-.738-3.416 0-6.277 2.77-6.277 6.277 0 3.508 2.77 6.277 6.277 6.277 3.508 0 6.277-2.77 6.277-6.277a.728.728 0 00-.739-.739c-.461 0-.738.277-.738.739 0 2.677-2.216 4.892-4.892 4.892-2.677 0-4.893-2.215-4.893-4.892 0-2.677 2.308-4.8 4.985-4.8z" fill="#000" fill-opacity=".8"></path>
    <path d="M49.661 14.585c-.276.184-.369.646-.184.923 3.138 4.154 4.708 9.138 4.708 14.4 0 13.477-10.8 24.277-24.185 24.277-13.385 0-24.277-10.8-24.277-24.185C5.723 16.616 16.615 5.723 30 5.723a24.223 24.223 0 0114.4 4.708c.277.185.738.185.923-.185.185-.277.185-.738-.185-.923C40.708 6 35.446 4.34 29.908 4.34 15.877 4.339 4.338 15.877 4.338 30S15.785 55.662 30 55.662A25.607 25.607 0 0055.66 30c0-5.538-1.753-10.8-4.984-15.23-.277-.277-.739-.37-1.016-.185z" fill="#000" fill-opacity=".8"></path>
    <path d="M40.8 14.954c.185-.277.092-.739-.185-.923-3.138-2.123-6.738-3.139-10.523-3.139-10.523 0-19.2 8.585-19.2 19.2 0 10.616 8.585 19.2 19.2 19.2 10.616 0 19.2-8.584 19.2-19.2 0-3.784-1.107-7.384-3.138-10.523-.185-.277-.646-.369-.923-.184-.277.184-.37.646-.185.923C46.985 23.169 48 26.585 48 30.092c0 9.785-7.938 17.816-17.815 17.816a17.767 17.767 0 01-17.816-17.816 17.767 17.767 0 0117.816-17.815c3.507 0 6.923 1.015 9.784 2.954.185.184.554.092.831-.277z" fill="#000" fill-opacity=".8"></path>
    <path d="M36.092 19.662c.185-.37 0-.739-.277-.923-1.753-.924-3.784-1.385-5.815-1.385-7.015 0-12.738 5.723-12.738 12.739 0 7.015 5.723 12.738 12.738 12.738s12.738-5.723 12.738-12.739c0-2.03-.461-3.969-1.384-5.815-.185-.37-.554-.462-.923-.277-.37.185-.462.554-.277.923.83 1.57 1.2 3.323 1.2 5.17A11.346 11.346 0 0130 41.446a11.346 11.346 0 01-11.354-11.353A11.346 11.346 0 0130 18.739c1.846 0 3.508.461 5.17 1.2.276.184.738 0 .922-.277z" fill="#000" fill-opacity=".8"></path>
    <path d="M56.77 8.123h-3.877l3.415-3.507a.724.724 0 000-1.016c-.277-.277-.646-.184-.923.092l-3.416 3.416V3.23a.728.728 0 00-.738-.739c-.462 0-.738.277-.738.739v5.261L29.539 29.54a.724.724 0 000 1.015.706.706 0 00.461.185c.185 0 .37-.093.462-.185L51.508 9.508h5.261c.37 0 .739-.277.739-.739 0-.461-.37-.646-.739-.646z" fill="#000" fill-opacity=".8"></path>
  </symbol>
  <symbol fill="none" xmlns="http://www.w3.org/2000/svg" viewBox="0 0 60 60" id="license-icon">
    <g clip-path="url(#clip0)" fill="#000" fill-opacity=".8">
      <path d="M33.845 50.937H5.968V18.681l14.4-14.308h26.677V20.25c0 .37.277.738.738.738.462 0 .739-.277.739-.738V3.634a.728.728 0 00-.739-.738H20.091a.705.705 0 00-.461.185L4.768 17.942a.705.705 0 00-.184.462v33.18c0 .369.276.738.738.738h28.523c.37 0 .739-.277.739-.739 0-.461-.37-.646-.739-.646z"></path>
      <path d="M20.737 18.404V7.327A.728.728 0 0020 6.588c-.462 0-.739.277-.739.739v10.43H9.014a.728.728 0 00-.738.74c0 .46.277.738.738.738h11.077a.887.887 0 00.646-.831zm20.585 6.566H10.86a.728.728 0 00-.738.738c0 .461.277.738.739.738h30.461c.37 0 .738-.277.738-.738a.728.728 0 00-.738-.739zm.646 6.714a.728.728 0 00-.739-.738h-30.46a.728.728 0 00-.739.738c0 .462.277.739.739.739H41.23c.461 0 .738-.37.738-.739zM10.86 36.923a.728.728 0 00-.738.739c0 .461.277.738.739.738h24.923a.728.728 0 00.738-.738c0-.462-.277-.739-.738-.739H10.86zm.004 5.977a.728.728 0 00-.739.738c0 .462.277.739.739.739H33.44c.37 0 .738-.277.738-.739 0-.461-.276-.738-.738-.738H10.864zM41.968 7.327a.728.728 0 00-.739-.739H30.153a.728.728 0 00-.739.739V20.25c0 .37.277.738.738.738H41.23c.37 0 .739-.276.739-.738V7.327zm-1.385 12.277h-9.692V8.065h9.692v11.539z"></path>
      <path fill-rule="evenodd" clip-rule="evenodd" d="M49.476 52.194l.018-.017c.857-.8 1.922-1.224 3.054-1.224 1.154 0 2.112-.937 2.112-2.152 0-1.138.47-2.261 1.257-3.048.826-.826.826-2.2 0-3.025a4.269 4.269 0 01-1.257-3.049 2.157 2.157 0 00-2.152-2.152 4.369 4.369 0 01-3.049-1.258 2.157 2.157 0 00-3.025 0 4.268 4.268 0 01-3.048 1.258 2.157 2.157 0 00-2.152 2.152c0 1.138-.47 2.261-1.258 3.049-.433.432-.64.928-.64 1.512 0 .553.213 1.086.64 1.513a4.268 4.268 0 011.258 3.048c0 1.175.957 2.152 2.152 2.152 1.138 0 2.26.47 3.048 1.258.427.427.96.64 1.513.64.52 0 1.091-.22 1.512-.64l.017-.017zM56.06 48.8c0 1.978-1.575 3.552-3.512 3.552-.767 0-1.493.283-2.099.848a3.585 3.585 0 01-2.502 1.05 3.515 3.515 0 01-2.503-1.05 2.97 2.97 0 00-2.058-.848 3.557 3.557 0 01-3.552-3.552c0-.767-.283-1.493-.848-2.058a3.515 3.515 0 01-1.05-2.503c0-.969.364-1.816 1.05-2.502a2.97 2.97 0 00.848-2.059 3.557 3.557 0 013.552-3.552c.767 0 1.493-.282 2.058-.848a3.557 3.557 0 015.005 0 2.97 2.97 0 002.059.848 3.557 3.557 0 013.552 3.552c0 .767.282 1.493.847 2.059a3.557 3.557 0 010 5.005 2.969 2.969 0 00-.847 2.058zm-.215 3.82l1.94 4.122.961 2.078-5.093-1.856-1.061 2.918-.911 2.036-.938-1.963-2.018-4.318 1.268-.593 1.613 3.451 1.21-3.325 3.235 1.176-1.472-3.13 1.266-.596zm-9.331 3.21l-2.089 4.047-1.063 2.028-1.629-5.171-2.96.934-2.17.518.986-1.94 2.197-4.23 1.243.646-1.757 3.38 3.375-1.065 1.036 3.284 1.587-3.074 1.244.642z"></path>
      <path fill-rule="evenodd" clip-rule="evenodd" d="M53.74 41.38a6.331 6.331 0 00-7.525-3.558 6.333 6.333 0 107.997 6.95v-.002l-1.43-.194a4.891 4.891 0 11-.364-2.618l1.322-.577z"></path>
    </g>
    <defs>
      <clipPath id="clip0">
        <path fill="#fff" d="M0 0h60v60H0z"></path>
      </clipPath>
    </defs>
  </symbol>
  <symbol fill="none" xmlns="http://www.w3.org/2000/svg" viewBox="0 0 60 60" id="message-icon">
    <path d="M37.627 46.096c4.43 0 8.677-1.292 12.37-3.784l8.584 3.784c.092 0 .184.093.277.093a.706.706 0 00.461-.185.717.717 0 00.185-.739l-3.046-9.877c2.03-3.415 3.046-7.2 3.046-11.169 0-12.092-9.877-21.969-21.97-21.969-12.092 0-21.784 9.785-21.784 21.877 0 12.092 9.785 21.97 21.877 21.97zm0-42.461c11.354 0 20.584 9.23 20.584 20.584 0 3.785-1.015 7.477-3.046 10.708-.092.184-.092.37-.092.554l2.677 8.677-7.57-3.323a.565.565 0 00-.645.092c-3.508 2.492-7.57 3.785-11.908 3.785-11.354 0-20.585-9.231-20.585-20.585 0-11.354 9.231-20.492 20.585-20.492z" fill="#000" fill-opacity=".8"></path>
    <path d="M27.231 19.777c-2.4 0-4.338 1.938-4.338 4.43 0 2.493 1.938 4.431 4.338 4.431 2.4 0 4.43-1.938 4.43-4.43 0-2.493-2.03-4.431-4.43-4.431zm0 7.384c-1.662 0-2.954-1.384-2.954-3.046s1.385-3.046 2.954-3.046c1.57 0 3.046 1.384 3.046 3.046s-1.384 3.046-3.046 3.046zm6.739-3.046c0 2.4 1.938 4.431 4.43 4.431 2.4 0 4.339-1.938 4.339-4.43 0-2.493-1.939-4.431-4.339-4.431-2.492.092-4.43 2.03-4.43 4.43zm4.338-2.953c1.661 0 2.954 1.384 2.954 3.046 0 1.661-1.385 3.046-2.954 3.046-1.57 0-3.046-1.385-3.046-3.046 0-1.662 1.384-3.046 3.046-3.046zm11.077 7.384c2.4 0 4.43-1.938 4.43-4.43 0-2.493-1.938-4.431-4.43-4.431s-4.43 1.938-4.43 4.43c0 2.493 2.03 4.431 4.43 4.431zm0-7.384c1.661 0 3.046 1.384 3.046 3.046 0 1.661-1.385 3.046-3.046 3.046-1.662 0-3.046-1.385-3.046-3.046 0-1.662 1.384-3.046 3.046-3.046z" fill="#000" fill-opacity=".8"></path>
    <path d="M36.462 48.485c-3.785 3.507-8.677 5.354-13.847 5.354a20.51 20.51 0 01-11.907-3.785.567.567 0 00-.646-.092l-7.57 3.323 2.677-8.677c.093-.185 0-.37-.092-.554-1.938-3.23-3.046-6.923-3.046-10.708 0-8.492 5.077-15.969 12.923-19.107.37-.185.554-.554.37-.924-.185-.369-.555-.553-.924-.369C6 16.27.554 24.3.554 33.346c0 3.97 1.015 7.846 3.046 11.17L.74 54.391a.718.718 0 00.184.739.705.705 0 00.462.184c.092 0 .184 0 .277-.092l8.584-3.785a21.944 21.944 0 0012.37 3.785c5.446 0 10.707-2.03 14.769-5.723a.724.724 0 000-1.015c-.185-.185-.646-.185-.923 0z" fill="#000" fill-opacity=".8"></path>
  </symbol>
  <symbol fill="none" xmlns="http://www.w3.org/2000/svg" viewBox="0 0 60 60" id="protect-icon">
    <path d="M52.715 16.811C39.238 16.627 30.562 4.627 30.47 4.534a.692.692 0 00-1.107 0c-.093.093-8.77 12.093-22.247 12.277a.631.631 0 00-.646.647c0 .277-2.584 27.692 23.262 38.953.092 0 .184.093.277.093.092 0 .184 0 .277-.093 25.753-11.169 23.261-38.677 23.261-38.953-.184-.37-.461-.647-.83-.647zm-22.8 38.123C7.485 45.059 7.577 22.166 7.762 18.197c12-.462 20.03-9.415 22.153-12.092C32.038 8.78 40.07 17.734 52.07 18.196c.185 3.97.277 26.862-22.154 36.739z" fill="#000" fill-opacity=".8"></path>
    <path d="M47.361 21.796c-7.569-1.477-13.384-5.815-16.984-9.138-.23-.213-.462-.436-.462-.436l-.461.436c-3.508 3.323-9.416 7.661-16.985 9.138-.214.053-.59.134-.59.134s.036.45.036.605c.554 7.2 3.508 20.4 17.631 27.692.092.092.185.092.277.092.092 0 .185 0 .277-.092 14.215-7.292 16.948-20.51 17.63-27.692l.065-.66s-.018-.005-.434-.079zM29.915 48.842c-12.923-6.83-15.877-18.83-16.523-25.754 7.293-1.569 12.923-5.63 16.523-8.954 3.6 3.323 9.323 7.293 16.523 8.954-.553 6.923-3.6 18.923-16.523 25.754z" fill="#000" fill-opacity=".8"></path>
    <path d="M26.038 25.212v3.046h-2.861v10.707h14.4V28.258h-2.861v-3.046c0-2.4-1.939-4.431-4.431-4.431-2.493 0-4.247 2.03-4.247 4.43zm10.154 12.277H24.654v-7.847h11.631v7.847h-.093zm-8.677-12.277c0-1.662 1.293-3.047 2.954-3.047 1.662 0 3.047 1.385 3.047 3.047v3.046h-6v-3.046z" fill="#000" fill-opacity=".8"></path>
    <path d="M30.377 31.95h-.739v3.323h1.477V31.95h-.738z" fill="#000" fill-opacity=".8"></path>
  </symbol>
  <symbol fill="none" xmlns="http://www.w3.org/2000/svg" viewBox="0 0 46 60" id="reputation-icon">
    <path d="M33.547 42.092c4.43 0 8.03-3.6 8.03-8.123 0-1.754.739-3.507 1.939-4.707 3.138-3.139 3.138-8.308 0-11.447-1.292-1.292-1.938-2.953-1.938-4.707 0-4.431-3.6-8.123-8.124-8.123-1.753 0-3.507-.739-4.707-1.939-3.139-3.138-8.308-3.138-11.446 0-1.293 1.293-2.954 1.939-4.708 1.939-4.43 0-8.123 3.6-8.123 8.123 0 1.754-.739 3.508-1.939 4.707-1.569 1.57-2.4 3.508-2.4 5.723 0 2.124.831 4.154 2.4 5.724 1.293 1.292 1.939 2.953 1.939 4.707 0 4.431 3.6 8.123 8.123 8.123 1.754 0 3.508.739 4.708 1.939 1.569 1.57 3.6 2.4 5.723 2.4 2.03 0 4.153-.83 5.723-2.4 1.384-1.292 3.046-1.939 4.8-1.939zm-15.139.924c-1.569-1.57-3.6-2.4-5.723-2.4-3.692 0-6.738-3.047-6.738-6.739 0-2.123-.831-4.154-2.4-5.723-1.293-1.292-1.939-2.954-1.939-4.708s.739-3.508 1.939-4.708c1.569-1.569 2.4-3.6 2.4-5.723 0-3.692 3.046-6.738 6.738-6.738 2.123 0 4.154-.83 5.723-2.4a7.24 7.24 0 014.708-1.754c1.754 0 3.415.646 4.708 1.939 1.569 1.477 3.6 2.307 5.723 2.307 3.692 0 6.646 3.046 6.646 6.739 0 2.123.83 4.154 2.4 5.723 2.584 2.585 2.584 6.83 0 9.508-1.57 1.569-2.4 3.6-2.4 5.723 0 3.692-3.046 6.738-6.739 6.738-2.123 0-4.153.83-5.723 2.4-2.492 2.492-6.738 2.492-9.323-.184z" fill="#000" fill-opacity=".8"></path>
    <path d="M39.455 23.538a.728.728 0 00-.739-.738.728.728 0 00-.738.738c0 8.216-6.739 14.954-15.047 15.047-8.215 0-14.953-6.739-15.046-15.047 0-2.307.462-4.43 1.477-6.461 2.677-5.17 8.031-8.492 13.754-8.492 6.277 0 12 3.969 14.123 9.969.092.369.554.554.923.461a.72.72 0 00.37-.369.588.588 0 000-.554C36.223 11.631 30.038 7.2 23.115 7.2c-3.138 0-6.185.923-8.861 2.585a16.048 16.048 0 00-5.908 6.738 16.997 16.997 0 00-1.57 7.108c0 9.046 7.385 16.43 16.431 16.43 9.047 0 16.247-7.476 16.247-16.523z" fill="#000" fill-opacity=".8"></path>
    <path d="M34.285 19.939c-.092-.277-.277-.462-.554-.462l-6.923-1.015-3.046-6.277c-.277-.462-1.015-.462-1.2 0l-3.139 6.277-6.83 1.015c-.277 0-.462.185-.554.462a.718.718 0 00.184.738l4.985 4.892-1.292 6.739c0 .277.092.554.277.646.184.185.461.185.738.092l6.185-3.23 6.184 3.23c.093.093.185.093.277.093.185 0 .277 0 .37-.093a.997.997 0 00.277-.646l-1.2-6.83 4.984-4.893c.277-.184.277-.462.277-.738zm-6.461 4.8c-.185.184-.277.369-.185.646l1.015 5.815-5.261-2.77c-.093-.091-.185-.091-.277-.091-.093 0-.185 0-.277.092l-5.262 2.77 1.016-5.816c0-.185 0-.462-.185-.646l-4.246-4.154 5.815-.831c.185 0 .462-.185.554-.37l2.585-5.26 2.584 5.26c.093.185.277.37.554.37l5.816.83-4.247 4.155zM18.5 47.63c-.369-.184-.738 0-.922.37l-4.154 8.862-2.585-7.2a.72.72 0 00-.37-.37.589.589 0 00-.553 0l-7.2 2.585 3.97-8.585c.184-.369 0-.738-.37-.923-.37-.184-.739 0-.923.37L.685 52.892c-.092.277-.092.554.092.739.185.184.462.277.739.184l8.123-2.953 2.954 8.123c.092.277.37.461.646.461.277 0 .554-.184.646-.369l4.8-10.338c.37-.554.185-.923-.184-1.108zm25.477 5.909c.185-.185.277-.462.093-.739l-4.431-9.415c-.185-.37-.554-.462-.923-.37-.37.185-.462.554-.37.923l3.693 7.939-7.2-2.585a.589.589 0 00-.554 0 .72.72 0 00-.37.37l-2.491 7.107-3.877-8.4c-.185-.369-.554-.461-.924-.369-.369.185-.461.554-.369.923L30.87 58.8c.092.277.369.37.646.37a.694.694 0 00.646-.462l2.954-8.123 8.123 2.954c.277.276.554.184.738 0z" fill="#000" fill-opacity=".8"></path>
  </symbol>
  <symbol fill="none" xmlns="http://www.w3.org/2000/svg" viewBox="0 0 60 60" id="team-icon">
    <path d="M47.539 33.969h-.462c.739-1.292 1.2-2.861 1.2-3.877 0-2.4-2.03-4.43-4.43-4.43s-4.431 2.03-4.431 4.43c0 1.016.461 2.585 1.2 3.877h-.462c-.923 0-1.754.277-2.492.739-.646-1.57-2.216-2.585-3.97-2.585h-.461c.738-1.292 1.2-2.862 1.2-3.877 0-2.4-2.03-4.43-4.43-4.43s-4.431 2.03-4.431 4.43c0 1.015.461 2.585 1.2 3.877h-.462c-1.754 0-3.323 1.108-3.97 2.585-.738-.462-1.569-.739-2.492-.739h-.461c.738-1.292 1.2-2.861 1.2-3.877 0-2.4-2.03-4.43-4.43-4.43s-4.432 2.03-4.432 4.43c0 1.016.462 2.585 1.2 3.877h-.461c-2.4 0-4.431 1.938-4.431 4.43v10.155c0 .369.277.738.738.738h2.954V58.8c0 .369.277.738.739.738h7.477a.728.728 0 00.738-.738V40.338a.728.728 0 00-.738-.738c-.462 0-.739.277-.739.738v17.816h-2.4V46.615a.728.728 0 00-.738-.738c-.462 0-.739.277-.739.738V57.97h-2.4V40.154a.728.728 0 00-.738-.739c-.462 0-.739.277-.739.739v7.661H9.231v-9.508c0-1.661 1.385-3.046 3.046-3.046h1.477c.646.646 1.385 1.016 2.216 1.016.83 0 1.569-.37 2.215-1.016h1.477c.83 0 1.569.37 2.123.923v9.508c0 .37.277.739.738.739h2.954v11.353c0 .37.277.739.739.739h7.477a.728.728 0 00.738-.739V46.431h2.954c.37 0 .738-.277.738-.739v-9.508c.554-.553 1.293-.923 2.123-.923h1.477c.647.646 1.385 1.016 2.216 1.016.83 0 1.569-.37 2.215-1.016h1.477c1.661 0 3.046 1.385 3.046 3.046v9.508h-2.215v-7.661a.728.728 0 00-.739-.739c-.461 0-.738.277-.738.739v17.815h-2.4V46.615a.728.728 0 00-.739-.738c-.461 0-.738.277-.738.738V57.97h-2.4V40.154a.728.728 0 00-.739-.739c-.461 0-.738.277-.738.739v18.461c0 .37.277.739.738.739h7.477c.37 0 .739-.277.739-.739V49.2h2.954a.728.728 0 00.738-.739V38.307c.092-2.4-1.938-4.338-4.338-4.338zm-31.385-6.923c1.662 0 3.046 1.385 3.046 3.046 0 1.2-.738 3.046-1.661 4.062-.277.277-.554.553-.923.738h-.093c-.092 0-.277.092-.369.092-.092 0-.277 0-.37-.092h-.091c-.37-.184-.739-.461-.923-.738-.924-1.016-1.662-2.862-1.662-4.062 0-1.754 1.384-3.046 3.046-3.046zM30 25.2c1.662 0 3.046 1.384 3.046 3.046 0 1.2-.738 3.046-1.661 4.061-.277.277-.554.554-.923.739h-.093c-.092 0-.276.092-.369.092-.092 0-.277 0-.369-.092h-.092c-.37-.185-.739-.462-.923-.739-.924-1.015-1.662-2.861-1.662-4.061 0-1.754 1.385-3.046 3.046-3.046zm6.739 19.846h-2.216v-4.892a.728.728 0 00-.738-.739c-.462 0-.739.277-.739.739v16.892h-2.4V44.769a.728.728 0 00-.738-.738c-.462 0-.739.276-.739.738v12.277h-2.4V40.154a.728.728 0 00-.738-.739c-.461 0-.738.277-.738.739v4.892h-2.216v-8.585c0-1.661 1.385-3.046 3.046-3.046H27.6c.646.646 1.385 1.016 2.216 1.016.83 0 1.569-.37 2.215-1.016h1.477c1.661 0 3.046 1.385 3.046 3.046v8.585h.185zm7.107-18c1.662 0 3.047 1.385 3.047 3.046 0 1.2-.739 3.046-1.662 4.062-.277.277-.554.553-.923.738h-.092c-.093 0-.277.092-.37.092-.092 0-.276 0-.369-.092h-.092c-.37-.184-.739-.461-.923-.738-.923-1.016-1.662-2.862-1.662-4.062 0-1.754 1.385-3.046 3.046-3.046z" fill="#000" fill-opacity=".8"></path>
    <path d="M54.277 34.43a26.709 26.709 0 001.292-8.122C55.57 12.185 44.123.646 29.908.646 15.692.646 4.43 12.184 4.43 26.308c0 2.769.461 5.446 1.292 8.123.093.277.37.461.646.461h.185c.37-.092.554-.554.462-.83-.831-2.493-1.2-5.077-1.2-7.662a24.86 24.86 0 012.769-11.354h8.861c-.646 2.308-1.015 4.892-1.292 7.57 0 .369.277.738.646.738.37 0 .739-.277.739-.646.184-2.77.646-5.354 1.384-7.754h10.431v5.815c0 .37.277.739.738.739.462 0 .739-.277.739-.739v-5.815h10.43c.647 2.4 1.108 4.984 1.385 7.753 0 .37.37.647.646.647h.093c.369 0 .646-.37.646-.739a38.072 38.072 0 00-1.292-7.569H51.6c1.754 3.415 2.77 7.2 2.77 11.354 0 2.585-.462 5.17-1.2 7.661-.093.37.092.739.46.831.185.092.555-.092.647-.461zM9.416 13.662c3.323-5.446 8.769-9.415 15.138-10.892-2.862 2.215-5.17 6-6.646 10.892H9.416zm9.876 0c2.123-6.553 5.816-10.984 9.97-11.446v11.446h-9.97zm11.447 0V2.123c4.153.461 7.846 4.892 9.969 11.446h-9.97v.092zm11.446 0C40.708 8.77 38.308 4.984 35.539 2.77c6.369 1.477 11.815 5.446 15.138 10.892h-8.492z" fill="#000" fill-opacity=".8"></path>
  </symbol>
  <symbol fill="none" xmlns="http://www.w3.org/2000/svg" viewBox="0 0 60 60" id="write-icon">
    <path d="M51.416 17.596l3.877-3.877c1.015-1.015 1.015-2.584 0-3.6l-3.877-3.877c-.277-.277-.554-.461-.831-.553-.277-.093-.646-.185-.923-.185-.646 0-1.293.277-1.754.738L44.03 10.12 9.969 43.996c-.092.093-.092.185-.184.277l-3.323 9.785a.718.718 0 00.184.738c.185.093.37.185.554.185h.185l9.784-3.23c.093 0 .185-.093.277-.186l33.97-33.969zM16.985 50.088l-2.308-2.307 32.954-32.954 2.308 2.308-32.954 32.953zm-6.277-4.338l2.492 2.492 2.493 2.493-2.493.83-3.323-3.323.83-2.492zm38.03-38.585a1.17 1.17 0 011.662 0l3.877 3.877a1.17 1.17 0 010 1.662l-3.415 3.415-2.77-2.769-2.769-2.77 3.416-3.415zM44.4 11.504l2.308 2.308-33.046 32.953-2.308-2.307L44.4 11.504zM9.416 49.719l2.307 2.308-3.507 1.2 1.2-3.508zm49.199-25.477h-10.43a.728.728 0 00-.739.739c0 .461.277.738.739.738h10.43c.37 0 .739-.277.739-.738a.728.728 0 00-.739-.739zM1.385 34.858h14.123a.728.728 0 00.738-.739c0-.462-.277-.738-.738-.738H1.385a.728.728 0 00-.739.738c0 .462.37.739.739.739zm57.231-1.385H38.954a.728.728 0 00-.738.738c0 .462.276.739.738.739h19.662a.728.728 0 00.738-.739.728.728 0 00-.738-.738zm0 9.231H29.723a.728.728 0 00-.738.738c0 .462.277.739.738.739h28.893a.728.728 0 00.738-.739.728.728 0 00-.738-.738zM18 7.165h25.2c.37 0 .738-.277.738-.738 0-.462-.277-.739-.738-.739H18a.728.728 0 00-.738.739c0 .461.369.738.738.738zm-6.615 9.231h19.384c.37 0 .739-.277.739-.738 0-.462-.277-.739-.739-.739H11.385a.728.728 0 00-.739.739c0 .461.37.738.739.738zm-10 9.231h23.354a.728.728 0 00.738-.739c0-.461-.277-.738-.738-.738H1.385a.728.728 0 00-.739.738c0 .462.37.739.739.739zm41.538 26.308h-22.43a.728.728 0 00-.74.738c0 .462.278.738.74.738h22.43c.37 0 .739-.276.739-.738a.728.728 0 00-.739-.738z" fill="#000" fill-opacity=".8"></path>
  </symbol>
</svg>