<svg width="0" height="0" class="hidden">
	<symbol fill="none" xmlns="http://www.w3.org/2000/svg" viewBox="0 0 40 40" id="box-icon">
		<path d="M33.036 0H6.964L0 11.142V40h40V11.142L33.036 0zm5.095 10.667H20.667V1.333h11.63l5.834 9.334zM7.703 1.333h11.63v9.334H1.87l5.834-9.334zm-6.37 37.334V12h37.334v26.667H1.333z" fill="#DEC377">
		</path>
		<path d="M24 15.333h-8c-1.103 0-2 .898-2 2 0 1.103.897 2 2 2h8c1.103 0 2-.897 2-2 0-1.102-.897-2-2-2zM24 18h-8a.667.667 0 010-1.333h8A.667.667 0 0124 18zm1.333 16.667H14.667a.667.667 0 100 1.333h10.666a.667.667 0 100-1.333zM16.667 26c.368 0 .666.299.666.667v4.391l.862-.862a.665.665 0 01.943 0c.26.26.26.682 0 .943l-2 2a.668.668 0 01-.944 0l-1.999-2a.666.666 0 11.943-.943l.862.862v-4.39c0-.37.299-.667.667-.667zm7.138 7.138a.668.668 0 01-.944 0l-1.999-2a.666.666 0 11.943-.942l.862.862v-4.39a.666.666 0 111.333 0v4.39l.862-.862a.665.665 0 01.943 0c.26.26.26.682 0 .943l-2 2z" fill="#DEC377">
		</path>
	</symbol>
	<symbol fill="none" xmlns="http://www.w3.org/2000/svg" viewBox="0 0 40 40" id="business-icon">
		<g clip-path="url(#clip0)" fill="#DEC377">
			<path d="M39.473.195a.666.666 0 00-.943 0l-2.472 2.472H20.536L1.02 22.342a2.336 2.336 0 00-.689 1.663c0 .628.245 1.22.69 1.664l13.644 13.644A2.358 2.358 0 0018 39.306l19-19.513V3.609l2.471-2.471a.667.667 0 000-.943zM35.668 19.25L17.05 38.37a1.02 1.02 0 01-1.441 0L1.964 24.727a1.013 1.013 0 01-.299-.72c0-.273.106-.529.301-.724L21.091 4h13.634l-3.222 3.222a3.312 3.312 0 00-1.835-.555A3.337 3.337 0 0026.334 10a3.337 3.337 0 003.334 3.334A3.337 3.337 0 0033 10c0-.678-.206-1.308-.555-1.835l3.222-3.222V19.25zm-4-9.25c0 1.103-.898 2-2 2-1.103 0-2-.897-2-2 0-1.102.897-2 2-2 .308 0 .596.076.856.201l-1.328 1.328a.666.666 0 10.943.943l1.328-1.328c.125.26.2.548.2.856z">
			</path>
			<path d="M26.943 14.088a.666.666 0 10-.943-.943l-.497.498a5.977 5.977 0 00-4.247-1.292 3.93 3.93 0 00-2.741 1.462 4.197 4.197 0 00-.9 3.15l.507 4.06-5.965 5.965a4.67 4.67 0 01.434-6.09.666.666 0 10-.943-.944 6.006 6.006 0 00-.444 7.987l-.76.761a.666.666 0 10.942.943l.762-.762a5.988 5.988 0 004.245 1.293 3.923 3.923 0 002.74-1.461 4.196 4.196 0 00.901-3.15l-.507-4.06 5.965-5.965a4.671 4.671 0 01-.434 6.091.666.666 0 10.942.943 6.008 6.008 0 00.444-7.987l.499-.499zm-8.234 11.643a2.856 2.856 0 01-.612 2.144 2.604 2.604 0 01-1.816.974 4.697 4.697 0 01-3.181-.918l5.23-5.231.38 3.03zm.228-8.933a2.857 2.857 0 01.612-2.144 2.61 2.61 0 011.817-.975 4.674 4.674 0 013.181.918l-5.232 5.231-.378-3.03z">
			</path>
		</g>
	</symbol>
	<symbol fill="none" xmlns="http://www.w3.org/2000/svg" viewBox="0 0 40 40" id="coffee-icon">
		<g clip-path="url(#clip0)">
			<path d="M33.4939 34.5999H30.1911C30.0159 34.5999 29.8479 34.5303 29.724 34.4064C29.6001 34.2825 29.5305 34.1145 29.5305 33.9393C29.5305 33.7641 29.6001 33.5961 29.724 33.4722C29.8479 33.3484 30.0159 33.2788 30.1911 33.2788H33.4939C34.895 33.2772 36.2382 32.7199 37.2289 31.7292C38.2196 30.7385 38.7769 29.3953 38.7785 27.9942V18.7463C38.7769 17.3452 38.2196 16.002 37.2289 15.0113C36.2382 14.0206 34.895 13.4633 33.4939 13.4618H30.1911C30.0159 13.4618 29.8479 13.3922 29.724 13.2683C29.6001 13.1444 29.5305 12.9764 29.5305 12.8012C29.5305 12.626 29.6001 12.458 29.724 12.3341C29.8479 12.2102 30.0159 12.1406 30.1911 12.1406H33.4939C35.2453 12.1425 36.9243 12.8391 38.1627 14.0775C39.4011 15.3159 40.0977 16.995 40.0996 18.7463V27.9942C40.0977 29.7456 39.4011 31.4246 38.1627 32.663C36.9243 33.9014 35.2453 34.598 33.4939 34.5999Z" fill="#DEC377" />
			<path d="M33.4939 30.6365H30.1911C30.0159 30.6365 29.8479 30.5669 29.724 30.443C29.6001 30.3191 29.5305 30.1511 29.5305 29.9759C29.5305 29.8007 29.6001 29.6327 29.724 29.5088C29.8479 29.3849 30.0159 29.3153 30.1911 29.3153H33.4939C33.8443 29.3153 34.1803 29.1762 34.4281 28.9284C34.6759 28.6806 34.8151 28.3446 34.8151 27.9942V18.7463C34.8151 18.3959 34.6759 18.0598 34.4281 17.8121C34.1803 17.5643 33.8443 17.4251 33.4939 17.4251H30.1911C30.0159 17.4251 29.8479 17.3555 29.724 17.2317C29.6001 17.1078 29.5305 16.9398 29.5305 16.7646C29.5305 16.5894 29.6001 16.4214 29.724 16.2975C29.8479 16.1736 30.0159 16.104 30.1911 16.104H33.4939C34.1947 16.104 34.8668 16.3824 35.3623 16.8779C35.8578 17.3734 36.1362 18.0455 36.1362 18.7463V27.9942C36.1362 28.695 35.8578 29.3671 35.3623 29.8626C34.8668 30.3581 34.1947 30.6365 33.4939 30.6365Z" fill="#DEC377" />
			<path d="M28.8698 37.2421H7.7317C7.20612 37.2421 6.70207 37.0333 6.33043 36.6617C5.95879 36.29 5.75 35.786 5.75 35.2604V11.48C5.75 10.9544 5.95879 10.4504 6.33043 10.0787C6.70207 9.70708 7.20612 9.49829 7.7317 9.49829H28.8698C29.3954 9.49829 29.8995 9.70708 30.2711 10.0787C30.6428 10.4504 30.8515 10.9544 30.8515 11.48V35.2604C30.8515 35.786 30.6428 36.29 30.2711 36.6617C29.8995 37.0333 29.3954 37.2421 28.8698 37.2421ZM7.7317 10.8194C7.55651 10.8194 7.38849 10.889 7.26461 11.0129C7.14073 11.1368 7.07113 11.3048 7.07113 11.48V35.2604C7.07113 35.4356 7.14073 35.6036 7.26461 35.7275C7.38849 35.8514 7.55651 35.921 7.7317 35.921H28.8698C29.045 35.921 29.213 35.8514 29.3369 35.7275C29.4608 35.6036 29.5304 35.4356 29.5304 35.2604V11.48C29.5304 11.3048 29.4608 11.1368 29.3369 11.0129C29.213 10.889 29.045 10.8194 28.8698 10.8194H7.7317Z" fill="#DEC377" />
			<path d="M13.0161 8.17711C12.8855 8.17708 12.7578 8.13832 12.6492 8.06574C12.5406 7.99315 12.456 7.88999 12.406 7.76931C12.356 7.64862 12.3429 7.51583 12.3684 7.38771C12.3939 7.25959 12.4567 7.1419 12.5491 7.04952C12.7263 6.90715 12.8693 6.72682 12.9676 6.52184C13.0658 6.31686 13.1168 6.09244 13.1168 5.86512C13.1168 5.63781 13.0658 5.41339 12.9676 5.2084C12.8693 5.00342 12.7263 4.8231 12.5491 4.68073C12.2508 4.41428 12.0121 4.08785 11.8487 3.72278C11.6853 3.35772 11.6008 2.96226 11.6008 2.56229C11.6008 2.16232 11.6853 1.76686 11.8487 1.40179C12.0121 1.03673 12.2508 0.710292 12.5491 0.443851C12.61 0.38076 12.6829 0.330436 12.7635 0.295817C12.8441 0.261197 12.9308 0.242975 13.0185 0.242212C13.1062 0.24145 13.1932 0.258164 13.2744 0.291378C13.3556 0.324592 13.4293 0.373641 13.4913 0.435663C13.5533 0.497685 13.6024 0.571439 13.6356 0.65262C13.6688 0.733801 13.6855 0.820785 13.6848 0.908494C13.684 0.996204 13.6658 1.08288 13.6312 1.16348C13.5966 1.24407 13.5462 1.31696 13.4831 1.37789C13.3059 1.52026 13.1629 1.70059 13.0647 1.90557C12.9664 2.11055 12.9154 2.33497 12.9154 2.56229C12.9154 2.7896 12.9664 3.01402 13.0647 3.21901C13.1629 3.42399 13.3059 3.60431 13.4831 3.74668C13.7814 4.01313 14.0201 4.33956 14.1835 4.70463C14.3469 5.06969 14.4314 5.46515 14.4314 5.86512C14.4314 6.26509 14.3469 6.66055 14.1835 7.02562C14.0201 7.39068 13.7814 7.71712 13.4831 7.98356C13.3593 8.10745 13.1913 8.17707 13.0161 8.17711Z" fill="#DEC377" />
			<path d="M18.3008 8.17711C18.1702 8.17708 18.0425 8.13832 17.9339 8.06574C17.8253 7.99315 17.7406 7.88999 17.6906 7.76931C17.6407 7.64862 17.6276 7.51583 17.653 7.38771C17.6785 7.25959 17.7414 7.1419 17.8338 7.04952C18.011 6.90715 18.154 6.72682 18.2522 6.52184C18.3505 6.31686 18.4015 6.09244 18.4015 5.86512C18.4015 5.63781 18.3505 5.41339 18.2522 5.2084C18.154 5.00342 18.011 4.8231 17.8338 4.68073C17.5355 4.41428 17.2968 4.08785 17.1334 3.72278C16.97 3.35772 16.8855 2.96226 16.8855 2.56229C16.8855 2.16232 16.97 1.76686 17.1334 1.40179C17.2968 1.03673 17.5355 0.710292 17.8338 0.443851C17.8947 0.38076 17.9676 0.330436 18.0482 0.295817C18.1288 0.261197 18.2155 0.242975 18.3032 0.242212C18.3909 0.24145 18.4779 0.258164 18.559 0.291378C18.6402 0.324592 18.714 0.373641 18.776 0.435663C18.838 0.497685 18.8871 0.571439 18.9203 0.65262C18.9535 0.733801 18.9702 0.820785 18.9694 0.908494C18.9687 0.996204 18.9505 1.08288 18.9158 1.16348C18.8812 1.24407 18.8309 1.31696 18.7678 1.37789C18.5906 1.52026 18.4476 1.70059 18.3493 1.90557C18.2511 2.11055 18.2001 2.33497 18.2001 2.56229C18.2001 2.7896 18.2511 3.01402 18.3493 3.21901C18.4476 3.42399 18.5906 3.60431 18.7678 3.74668C19.0661 4.01313 19.3048 4.33956 19.4682 4.70463C19.6316 5.06969 19.7161 5.46515 19.7161 5.86512C19.7161 6.26509 19.6316 6.66055 19.4682 7.02562C19.3048 7.39068 19.0661 7.71712 18.7678 7.98356C18.644 8.10745 18.476 8.17707 18.3008 8.17711Z" fill="#DEC377" />
			<path d="M23.5852 8.17711C23.4546 8.17708 23.3269 8.13832 23.2183 8.06574C23.1097 7.99315 23.025 7.88999 22.9751 7.76931C22.9251 7.64862 22.912 7.51583 22.9375 7.38771C22.9629 7.25959 23.0258 7.1419 23.1182 7.04952C23.2954 6.90715 23.4384 6.72682 23.5367 6.52184C23.6349 6.31686 23.6859 6.09244 23.6859 5.86512C23.6859 5.63781 23.6349 5.41339 23.5367 5.2084C23.4384 5.00342 23.2954 4.8231 23.1182 4.68073C22.8199 4.41428 22.5812 4.08785 22.4178 3.72278C22.2544 3.35772 22.1699 2.96226 22.1699 2.56229C22.1699 2.16232 22.2544 1.76686 22.4178 1.40179C22.5812 1.03673 22.8199 0.710292 23.1182 0.443851C23.1791 0.38076 23.252 0.330436 23.3326 0.295817C23.4132 0.261197 23.4999 0.242975 23.5876 0.242212C23.6753 0.24145 23.7623 0.258164 23.8435 0.291378C23.9246 0.324592 23.9984 0.373641 24.0604 0.435663C24.1224 0.497685 24.1715 0.571439 24.2047 0.65262C24.2379 0.733801 24.2546 0.820785 24.2539 0.908494C24.2531 0.996204 24.2349 1.08288 24.2003 1.16348C24.1656 1.24407 24.1153 1.31696 24.0522 1.37789C23.875 1.52026 23.732 1.70059 23.6338 1.90557C23.5355 2.11055 23.4845 2.33497 23.4845 2.56229C23.4845 2.7896 23.5355 3.01402 23.6338 3.21901C23.732 3.42399 23.875 3.60431 24.0522 3.74668C24.3505 4.01313 24.5892 4.33956 24.7526 4.70463C24.916 5.06969 25.0005 5.46515 25.0005 5.86512C25.0005 6.26509 24.916 6.66055 24.7526 7.02562C24.5892 7.39068 24.3505 7.71712 24.0522 7.98356C23.9284 8.10745 23.7604 8.17707 23.5852 8.17711Z" fill="#DEC377" />
		</g>
		<defs>
			<clipPath id="clip0">
				<rect width="40" height="40" fill="white" />
			</clipPath>
		</defs>
	</symbol>
	<symbol fill="none" xmlns="http://www.w3.org/2000/svg" viewBox="0 0 40 40" id="hand-icon">
		<g clip-path="url(#clip0)">
			<path d="M39.6393 23.9907C38.4706 22.3626 37.2859 22.3366 34.3198 23.8974L28.5709 27.4121C27.7189 27.8655 25.9702 28.0015 24.2741 28.0302C24.5755 27.4028 24.4408 26.6541 23.8715 25.8034C23.3441 25.0167 22.6261 24.3914 21.7927 23.964C23.1741 22.8413 24.0008 21.1699 24.0008 19.3332C24.0008 16.0251 21.3094 13.333 18.0006 13.333C14.6918 13.333 12.0004 16.0251 12.0004 19.3332C12.0004 20.3206 12.2457 21.2633 12.6851 22.104C12.6764 22.098 12.6671 22.0926 12.6591 22.086C10.2657 20.2812 6.26687 20.0266 4.66749 19.9992V17.9812H0V39.3339H4.66682V37.3338H13.3338C14.6938 37.3338 16.0659 37.2298 17.4112 37.0258L26.0535 35.7118C26.3682 35.7078 26.6869 35.6704 26.9709 35.6064C27.7669 35.4944 28.5276 35.1144 29.1723 34.5064L39.2773 26.6368L39.2926 26.6241C40.08 25.9728 40.232 24.8154 39.6393 23.9907ZM15.4472 23.2327C14.1211 22.3646 13.3338 20.9166 13.3338 19.3332C13.3338 16.7598 15.4278 14.6664 18.0006 14.6664C20.5733 14.6664 22.6674 16.7598 22.6674 19.3332C22.6674 21.0573 21.7401 22.606 20.2327 23.426C20.15 23.41 20.066 23.402 19.9827 23.3893C19.8993 23.3767 19.8173 23.362 19.7327 23.3527C19.516 23.3287 19.298 23.314 19.0793 23.314H16.4792C16.1439 23.3147 15.7972 23.2873 15.4472 23.2327ZM3.33344 38.0005H1.33338V19.3145H3.33344V20.0219V37.3345V38.0005ZM38.4493 25.5921L28.3269 33.4743L28.2756 33.519C27.8289 33.9464 27.3136 34.2117 26.7196 34.2977C26.4769 34.3517 26.2349 34.379 26.0009 34.379L17.2106 35.7078C15.9312 35.9024 14.6265 36.0011 13.3338 36.0011H4.66682V21.3346C6.14487 21.3653 9.80433 21.6039 11.8564 23.1507C12.7471 23.8227 13.8145 24.2787 14.9532 24.4974L14.9632 24.5034L15.0898 24.5254C15.0965 24.5267 15.1025 24.5267 15.1092 24.528C15.3278 24.5654 15.5492 24.5954 15.7725 24.6147C15.7799 24.6154 15.7872 24.6167 15.7939 24.6174C16.0205 24.6367 16.2485 24.6481 16.4785 24.6481H19.0786C19.4453 24.6481 19.812 24.6914 20.168 24.7767L20.2107 24.7874C21.2594 25.0474 22.1707 25.6641 22.7621 26.5461C23.0428 26.9641 23.1534 27.3115 23.0594 27.4748C22.8814 27.7828 22.0554 27.9722 21.2174 28.0088C20.9447 28.0042 20.696 28.0008 20.478 28.0008H14.0005C11.9131 28.0008 10.667 28.9975 10.667 30.6676C10.667 31.0356 10.965 31.3343 11.3337 31.3343C11.7024 31.3343 12.0004 31.0356 12.0004 30.6676C12.0004 30.3376 12.0004 29.3342 14.0005 29.3342H20.4633C20.6147 29.3435 20.9054 29.3562 21.2714 29.3429C21.386 29.3449 21.5047 29.3469 21.6261 29.3489C24.7548 29.4069 27.6889 29.3909 29.2316 28.5695L34.9772 25.0561C37.7266 23.6114 38.0033 23.9987 38.5553 24.7681C38.74 25.0241 38.6926 25.3847 38.4493 25.5921Z" fill="#DEC377" />
			<path d="M21.3341 19.3332C21.3341 17.4951 19.8387 15.9998 18.0007 15.9998C16.1626 15.9998 14.6672 17.4951 14.6672 19.3332C14.6672 21.1713 16.1626 22.6666 18.0007 22.6666C19.8387 22.6666 21.3341 21.1713 21.3341 19.3332ZM18.0007 21.3333C16.898 21.3333 16.0006 20.4359 16.0006 19.3332C16.0006 18.2305 16.898 17.3331 18.0007 17.3331C19.1034 17.3331 20.0007 18.2305 20.0007 19.3332C20.0007 20.4359 19.1034 21.3333 18.0007 21.3333Z" fill="#DEC377" />
			<path d="M28.0009 12.6664C31.3097 12.6664 34.0011 9.97432 34.0011 6.66621C34.0011 3.35811 31.3097 0.666016 28.0009 0.666016C24.6922 0.666016 22.0007 3.35811 22.0007 6.66621C22.0007 9.97432 24.6922 12.6664 28.0009 12.6664ZM28.0009 1.99939C30.5737 1.99939 32.6678 4.0928 32.6678 6.66621C32.6678 9.23963 30.5737 11.333 28.0009 11.333C25.4282 11.333 23.3341 9.23963 23.3341 6.66621C23.3341 4.0928 25.4282 1.99939 28.0009 1.99939Z" fill="#DEC377" />
			<path d="M28.0009 9.99965C29.839 9.99965 31.3344 8.50427 31.3344 6.66621C31.3344 4.82815 29.839 3.33276 28.0009 3.33276C26.1629 3.33276 24.6675 4.82815 24.6675 6.66621C24.6675 8.50427 26.1629 9.99965 28.0009 9.99965ZM28.0009 4.66614C29.1036 4.66614 30.001 5.5635 30.001 6.66621C30.001 7.76891 29.1036 8.66627 28.0009 8.66627C26.8982 8.66627 26.0009 7.76891 26.0009 6.66621C26.0009 5.5635 26.8982 4.66614 28.0009 4.66614Z" fill="#DEC377" />
		</g>
		<defs>
			<clipPath id="clip0">
				<rect width="40" height="40" fill="white" />
			</clipPath>
		</defs>
	</symbol>
	<symbol fill="none" xmlns="http://www.w3.org/2000/svg" viewBox="0 0 40 40" id="dollar-house-icon">
		<path d="M13.513 17.63h10.474a.623.623 0 00.625-.626V15.26a5.862 5.862 0 10-11.724 0v1.745a.624.624 0 00.625.625zm.625-2.371a4.612 4.612 0 019.224 0v1.12h-9.224v-1.12z" fill="#DEC377">
		</path>
		<path d="M32.756 20.637v-4.175h2.869a.625.625 0 00.617-.723 15.789 15.789 0 00-3.486-6.924v-6.94a.625.625 0 00-.625-.625h-5.819a.625.625 0 00-.625.625v1.564a28.433 28.433 0 00-6.82-2.178.638.638 0 00-.235 0C3.248 4.222 1.276 15.625 1.258 15.74a.625.625 0 00.617.722h2.869v15.044H3.619a.623.623 0 00-.625.625v3.494a.625.625 0 00.625.625H23.02a9.367 9.367 0 109.736-15.613zM5.37 15.212H2.668c.7-2.433 3.88-10.305 16.082-12.7a26.422 26.422 0 017.27 2.491.625.625 0 00.918-.553V2.5h4.568v6.544c0 .148.053.292.15.405a15.832 15.832 0 013.175 5.764h-2.7a.626.626 0 00-.625.625v4.406c-.043-.01-.088-.013-.131-.023a9.205 9.205 0 00-1.044-.166 9.417 9.417 0 00-.956-.055 9.24 9.24 0 00-4.85 1.363.617.617 0 00-.538-.325h-5.222l-.015-.003-.015.003h-5.223a.625.625 0 00-.625.625v9.843H5.994V15.838a.624.624 0 00-.625-.625zm17.297 7.63a9.507 9.507 0 00-.39.426c-.1.116-.2.231-.296.352-.118.15-.227.307-.335.464-.086.125-.174.249-.254.378-.1.164-.19.333-.281.502-.07.132-.145.262-.209.397-.084.177-.155.36-.227.542-.054.136-.113.268-.16.406-.067.194-.12.394-.173.593-.036.133-.08.262-.11.397-.05.224-.082.454-.116.683-.017.114-.043.226-.056.341-.039.35-.059.7-.059 1.052a9.415 9.415 0 00.086 1.216c.034.263.08.525.135.784.01.043.013.088.023.131h-.869v-9.218h3.87c-.087.073-.162.157-.245.233a9.66 9.66 0 00-.334.32zm-8.529 8.664v-9.218h3.988v9.218h-3.988zM4.244 35v-2.244h14.494l.012.003.012-.003h1.867c.079.203.165.403.258.6.004.01.01.018.014.027.142.297.3.586.473.866l.082.137c.133.21.272.415.421.614H4.244zm25.131 2.5a8.12 8.12 0 01-5.4-14.187 8.145 8.145 0 016.052-2.037 8.125 8.125 0 01-.652 16.224z" fill="#DEC377">
		</path>
		<path d="M30.109 28.995h-1.223a1.332 1.332 0 010-2.663h2.446a.625.625 0 100-1.25H30V23.75a.625.625 0 00-1.25 0v1.346a2.576 2.576 0 00.136 5.149h1.223a1.087 1.087 0 110 2.173h-2.69a.625.625 0 100 1.25h1.331V35A.625.625 0 1030 35v-1.332h.109a2.337 2.337 0 100-4.673z" fill="#DEC377">
		</path>
	</symbol>
	<symbol fill="none" xmlns="http://www.w3.org/2000/svg" viewBox="0 0 40 40" id="folder-icon">
		<path d="M40 11.162h-5.954V8.598h-16.22l-1.923-5.127H2v31.405h32.046v-.56L40 11.162zm-1.654 1.282l-4.3 16.725V12.444h4.3zM3.282 4.753h11.733l1.923 5.127h15.826v23.714H3.282V4.753z" fill="#DEC377">
		</path>
		<path d="M5.845 31.03h15.383v-9.614H5.845v9.614zm1.282-8.332h12.819v7.05H7.127v-7.05z" fill="#DEC377">
		</path>
		<path d="M14.818 27.185H9.05a.64.64 0 100 1.282h5.768a.64.64 0 100-1.282zM9.05 25.262h2.564a.64.64 0 100-1.282H9.05a.64.64 0 100 1.282zm8.973-1.282H16.74a.64.64 0 100 1.282h1.282a.64.64 0 100-1.282zm-1.096 3.39a.657.657 0 00-.186.456c0 .173.07.333.186.448a.64.64 0 00.91.007.674.674 0 00.186-.455.673.673 0 00-.186-.455.671.671 0 00-.91 0zm-2.749-2.108c.166 0 .333-.07.455-.186a.674.674 0 00.186-.455.66.66 0 00-.186-.455c-.237-.237-.68-.237-.91 0a.67.67 0 00-.186.455c0 .167.07.334.185.455a.672.672 0 00.456.186z" fill="#DEC377">
		</path>
	</symbol>
	<symbol fill="none" xmlns="http://www.w3.org/2000/svg" viewBox="0 0 40 40" id="headphones-icon">
		<path fill-rule="evenodd" clip-rule="evenodd" d="M20 1C9.81 1 1.493 9.022 1.021 19.095H1v8.947a4.926 4.926 0 009.852 0v-4.02a4.926 4.926 0 00-4.926-4.927H2.833C3.303 10.022 10.809 2.81 20 2.81c9.19 0 16.697 7.212 17.167 16.285h-3.093a4.926 4.926 0 00-4.926 4.926v4.021a4.926 4.926 0 008.043 3.815v.206c0 1.94-.329 3.235-.854 4.022-.482.723-1.186 1.105-2.263 1.105H23.117V39h10.957c1.604 0 2.91-.623 3.769-1.91.815-1.224 1.157-2.944 1.157-5.027V20C39 9.507 30.494 1 20 1zM2.81 28.042v-7.137h3.116a3.116 3.116 0 013.116 3.116v4.021a3.116 3.116 0 01-6.232 0zm31.264-7.137h3.117v7.137a3.116 3.116 0 01-6.233 0v-4.02a3.116 3.116 0 013.116-3.117z" fill="#DEC377">
		</path>
	</symbol>
	<symbol fill="none" xmlns="http://www.w3.org/2000/svg" viewBox="0 0 40 40" id="shtamp-icon">
		<path d="M36.41 26H26v-4h-2.666v-4.162c0-1.425.614-2.764 1.644-3.583A7.949 7.949 0 0028 8a8.01 8.01 0 00-2.675-5.97A8.037 8.037 0 0019.062.053c-3.569.406-6.508 3.281-6.988 6.836-.38 2.816.705 5.555 2.903 7.329 1.058.854 1.69 2.253 1.69 3.742V22H14v4H3.59C2.714 26 2 26.713 2 27.59v7.487c0 .876.713 1.59 1.59 1.59h.47A4.003 4.003 0 008 40.001h24.001a4.004 4.004 0 003.94-3.334h.47c.877 0 1.591-.713 1.591-1.59V27.59A1.595 1.595 0 0036.41 26zM15.814 13.18c-1.831-1.477-2.736-3.763-2.417-6.112.4-2.96 2.846-5.351 5.817-5.69 1.933-.218 3.788.364 5.224 1.646A6.673 6.673 0 0126.668 8c0 2.04-.918 3.94-2.52 5.212-1.364 1.085-2.147 2.771-2.147 4.626V22h-4v-4.04c-.001-1.915-.798-3.658-2.187-4.78zm-.48 10.153h9.333V26h-9.334v-2.667zM32 38.667H8a2.67 2.67 0 01-2.582-2h29.165a2.67 2.67 0 01-2.582 2zm4.667-3.59a.258.258 0 01-.257.257H3.59a.258.258 0 01-.257-.257V27.59c0-.142.115-.257.257-.257h32.82c.142 0 .257.115.257.257v7.487z" fill="#DEC377">
		</path>
	</symbol>
	<symbol fill="none" xmlns="http://www.w3.org/2000/svg" viewBox="0 0 40 40" id="tree-icon">
		<path d="M35.333 27.38v-8.047H20.667v-6.712a5.339 5.339 0 004.666-5.288A5.34 5.34 0 0020 2a5.34 5.34 0 00-5.333 5.333 5.339 5.339 0 004.666 5.288v6.712H4.667v8.046C2.04 27.71 0 29.952 0 32.667A5.34 5.34 0 005.333 38a5.34 5.34 0 005.334-5.333A5.339 5.339 0 006 27.379v-6.712h13.333v6.712a5.339 5.339 0 00-4.666 5.288A5.34 5.34 0 0020 38a5.34 5.34 0 005.333-5.333 5.339 5.339 0 00-4.666-5.288v-6.712H34v6.712a5.339 5.339 0 00-4.667 5.288A5.34 5.34 0 0034.667 38 5.34 5.34 0 0040 32.667a5.339 5.339 0 00-4.667-5.288zM16 7.332c0-2.206 1.794-4 4-4s4 1.794 4 4-1.794 4-4 4-4-1.794-4-4zM9.333 32.667c0 2.206-1.794 4-4 4s-4-1.794-4-4 1.794-4 4-4 4 1.794 4 4zm14.667 0c0 2.206-1.794 4-4 4s-4-1.794-4-4 1.794-4 4-4 4 1.794 4 4zm10.667 4c-2.206 0-4-1.794-4-4s1.794-4 4-4 4 1.794 4 4-1.794 4-4 4z" fill="#DEC377">
		</path>
	</symbol>
</svg>
