<svg width="0" height="0" class="hidden">
  <symbol fill="none" xmlns="http://www.w3.org/2000/svg" viewBox="0 0 30 30" id="facebook">
    <path d="M27.19 1.78H2.81a1.06 1.06 0 00-1.06 1.06v24.38c0 .587.474 1.06 1.06 1.06h24.38c.586 0 1.06-.473 1.06-1.06V2.84a1.06 1.06 0 00-1.06-1.06zm-3.06 7.735h-2.117c-1.66 0-1.981.788-1.981 1.948v2.554h3.961l-.516 3.998h-3.445V28.28H15.9V18.018h-3.455v-4.001H15.9v-2.948c0-3.422 2.09-5.287 5.144-5.287 1.464 0 2.72.11 3.088.159v3.574h-.004z" fill="#000" fill-opacity=".5"></path>
  </symbol>
  <symbol fill="none" xmlns="http://www.w3.org/2000/svg" viewBox="0 0 30 30" id="instagram">
    <path d="M10.151 15.12c0-1.38.483-2.553 1.45-3.52.966-.966 2.139-1.449 3.52-1.449 1.38 0 2.553.483 3.519 1.45.966.966 1.449 2.139 1.449 3.52 0 1.38-.483 2.553-1.45 3.519-.965.966-2.139 1.449-3.519 1.449-1.38 0-2.553-.483-3.52-1.45-.966-.965-1.449-2.139-1.449-3.519zm18.22-1.656v11.594c0 .914-.324 1.695-.971 2.342a3.192 3.192 0 01-2.342.97H5.183a3.192 3.192 0 01-2.342-.97 3.192 3.192 0 01-.97-2.342V5.183c0-.915.323-1.695.97-2.342a3.191 3.191 0 012.342-.97h19.875c.914 0 1.695.323 2.342.97s.97 1.427.97 2.342v4.968h-6.625a8.476 8.476 0 00-2.898-2.42 8.023 8.023 0 00-3.727-.892c-1.328 0-2.57.297-3.726.893a8.475 8.475 0 00-2.899 2.42H1.87v3.312h5.124a8.968 8.968 0 00-.155 1.656 8.08 8.08 0 001.113 4.154 8.283 8.283 0 003.015 3.015A8.08 8.08 0 0015.12 23.4a8.08 8.08 0 004.154-1.112 8.284 8.284 0 003.015-3.015A8.08 8.08 0 0023.4 15.12a8.97 8.97 0 00-.155-1.656h5.124z" fill="#000" fill-opacity=".5"></path>
  </symbol>
  <symbol fill="none" xmlns="http://www.w3.org/2000/svg" viewBox="0 0 30 30" id="linkedin">
    <path d="M26.375 1.875H3.869C2.838 1.875 2 2.725 2 3.768v22.464c0 1.043.838 1.893 1.87 1.893h22.505c1.031 0 1.875-.85 1.875-1.893V3.768a1.888 1.888 0 00-1.875-1.893zm-16.441 22.5H6.043V11.848h3.896v12.527h-.005zM7.988 10.137a2.257 2.257 0 010-4.512 2.26 2.26 0 012.256 2.256 2.253 2.253 0 01-2.256 2.256zm16.53 14.238h-3.891v-6.094c0-1.453-.03-3.322-2.021-3.322-2.028 0-2.338 1.582-2.338 3.217v6.199h-3.891V11.848h3.732v1.71h.053c.522-.984 1.793-2.02 3.686-2.02 3.937 0 4.67 2.595 4.67 5.97v6.867z" fill="#000" fill-opacity=".5"></path>
  </symbol>
  <symbol fill="none" xmlns="http://www.w3.org/2000/svg" viewBox="0 0 30 30" id="odnoklassniki">
    <path d="M12.793 10.377a2.34 2.34 0 012.332-2.344 2.34 2.34 0 012.332 2.344 2.334 2.334 0 01-2.332 2.332 2.338 2.338 0 01-2.332-2.332zm15.457-5.69v20.625a2.813 2.813 0 01-2.813 2.813H4.813A2.813 2.813 0 012 25.312V4.688a2.813 2.813 0 012.813-2.812h20.625a2.813 2.813 0 012.812 2.813zm-17.877 5.69c0 2.613 2.133 4.74 4.752 4.74 2.62 0 4.752-2.12 4.752-4.74a4.751 4.751 0 10-9.504 0zm10.225 5.314c-.27-.533-1.014-.984-1.998-.21 0 0-1.33 1.054-3.475 1.054S11.65 15.48 11.65 15.48c-.984-.773-1.728-.322-1.998.211-.463.944.065 1.39 1.254 2.168 1.014.65 2.414.891 3.317.985l-.756.756c-1.067 1.054-2.08 2.08-2.795 2.794-1.031 1.032.627 2.684 1.664 1.676l2.795-2.806c1.066 1.066 2.092 2.091 2.795 2.806 1.031 1.008 2.695-.627 1.676-1.675L16.807 19.6l-.762-.756c.908-.094 2.29-.346 3.293-.985 1.195-.779 1.717-1.23 1.26-2.168z" fill="#000" fill-opacity=".5"></path>
  </symbol>
  <symbol fill="none" xmlns="http://www.w3.org/2000/svg" viewBox="0 0 30 30" id="vk">
    <path d="M28.5 25.5v-21c0-1.65-1.355-3-3.008-3H4.508C2.784 1.5 1.5 2.78 1.5 4.5v21c0 1.722 1.283 3 3.008 3h20.985a3.012 3.012 0 003.007-3zm-5.724-8.09s1.698 1.676 2.116 2.453c.012.017.017.032.021.038.17.285.213.51.128.675-.141.274-.621.412-.785.424h-2.998c-.21 0-.645-.054-1.173-.419-.405-.282-.806-.748-1.195-1.203-.582-.675-1.087-1.26-1.593-1.26a.574.574 0 00-.19.032c-.385.123-.874.67-.874 2.133 0 .457-.36.718-.615.718h-1.374c-.468 0-2.905-.163-5.064-2.442-2.649-2.79-5.028-8.386-5.049-8.436-.15-.361.16-.557.498-.557h3.03c.407 0 .537.245.63.466.105.25.501 1.261 1.149 2.399 1.054 1.849 1.704 2.602 2.221 2.602a.567.567 0 00.276-.073c.677-.374.551-2.786.521-3.284 0-.095-.002-1.079-.346-1.551-.25-.342-.671-.473-.926-.522.104-.143.24-.26.399-.339.463-.231 1.299-.264 2.13-.264h.462c.901.012 1.135.07 1.461.153.659.157.672.585.614 2.04-.017.414-.035.883-.035 1.434 0 .118-.005.249-.005.384-.02.744-.044 1.586.48 1.93a.433.433 0 00.227.066c.183 0 .73 0 2.214-2.545.652-1.123 1.155-2.45 1.19-2.548a.792.792 0 01.221-.275.52.52 0 01.25-.058h3.562c.39 0 .654.058.704.207.085.238-.017.966-1.645 3.165l-.724.96c-1.476 1.931-1.476 2.03.087 3.497z" fill="#000" fill-opacity=".5"></path>
  </symbol>
  <symbol fill="none" xmlns="http://www.w3.org/2000/svg" viewBox="0 0 30 30" id="youtube">
    <path d="M17.359 22.05v-2.708c0-.575-.167-.862-.5-.862-.196 0-.386.092-.57.276v3.864c.184.184.374.276.57.276.333 0 .5-.282.5-.846zm3.174-2.104h1.138v-.587c0-.586-.19-.88-.569-.88-.38 0-.57.294-.57.88v.587zm-9.85-4.588v1.207h-1.38v7.297H8.027v-7.297H6.68v-1.207h4.002zm3.467 2.173v6.33h-1.155v-.69c-.449.518-.886.777-1.311.777-.38 0-.621-.161-.725-.483-.069-.195-.103-.506-.103-.931V17.53h1.138v4.658c0 .276.006.425.017.448.012.172.098.259.26.259.23 0 .47-.178.724-.535v-4.83h1.155zm4.347 1.915v2.518c0 .598-.04 1.018-.12 1.26-.139.482-.443.724-.915.724-.402 0-.793-.236-1.173-.707v.62h-1.156v-8.503h1.156v2.777c.368-.46.76-.69 1.173-.69.472 0 .776.241.915.724.08.242.12.667.12 1.277zm4.33 2.225v.155c0 .334-.012.581-.035.742-.034.253-.12.483-.258.69-.31.46-.77.69-1.38.69-.598 0-1.064-.218-1.398-.655-.241-.311-.362-.805-.362-1.484v-2.225c0-.679.115-1.173.345-1.484.334-.437.794-.655 1.38-.655.587 0 1.035.218 1.346.655.241.334.362.828.362 1.484v1.31h-2.294v1.122c0 .587.195.88.586.88.276 0 .449-.15.518-.449l.008-.12a3.5 3.5 0 00.009-.285v-.371h1.173zm-7.78-14.214v2.691c0 .587-.184.88-.552.88-.368 0-.552-.293-.552-.88v-2.69c0-.599.184-.898.552-.898.368 0 .552.3.552.897zm9.194 12.3c0-2.036-.109-3.531-.327-4.486a2.36 2.36 0 00-.742-1.268 2.33 2.33 0 00-1.311-.595c-1.564-.172-3.933-.258-7.107-.258-3.162 0-5.526.086-7.09.258a2.303 2.303 0 00-1.32.595 2.39 2.39 0 00-.732 1.268c-.23 1-.345 2.496-.345 4.485 0 2.024.115 3.52.345 4.485.115.495.359.915.733 1.26.373.345.808.546 1.302.603 1.576.173 3.945.259 7.107.259 3.162 0 5.531-.086 7.107-.259a2.263 2.263 0 001.302-.604c.374-.345.619-.764.733-1.259.23-.966.345-2.46.345-4.485zM11.218 8.526L12.77 3.42h-1.293l-.88 3.363-.914-3.363H8.337c.08.264.213.66.397 1.19l.414 1.19c.402 1.185.667 2.093.793 2.726v3.467h1.277V8.527zm4.985 1.397V7.68c0-.667-.12-1.167-.362-1.5-.334-.437-.782-.656-1.346-.656-.586 0-1.035.219-1.345.656-.242.333-.362.833-.362 1.5v2.243c0 .667.12 1.167.362 1.5.31.438.759.656 1.345.656.564 0 1.012-.218 1.346-.655.241-.31.362-.811.362-1.501zm3.122 2.07h1.156V5.61h-1.156v4.882c-.253.357-.494.535-.724.535-.173 0-.265-.092-.276-.276-.012-.023-.017-.173-.017-.449V5.611h-1.156v5.055c0 .425.034.741.103.948.127.31.374.466.742.466.414 0 .857-.259 1.328-.776v.69zm8.677-5.244v16.56c0 1.368-.005 3.112-.976 4.084-.972.972-2.623.884-3.992.884H6.474c-1.368 0-3.157.088-4.13-.884-.97-.972-.838-2.716-.838-4.084V6.75c0-1.369-.133-3.114.839-4.085.972-.972 2.76-.883 4.13-.883h16.559c1.369 0 3.02-.089 3.992.883.971.971.976 2.716.976 4.085z" fill="#000" fill-opacity=".5"></path>
  </symbol>
</svg>