<svg width="0" height="0" class="hidden">
  <symbol fill="none" xmlns="http://www.w3.org/2000/svg" viewBox="0 0 19 16" id="A1-icon">
    <path d="M9.525 16l-.792-2.754H4.287L3.495 16H.147L4.521 3.094h3.924L12.873 16H9.526zM7.293 8.116c-.06-.216-.144-.504-.252-.864-.096-.372-.198-.75-.306-1.134a47.769 47.769 0 01-.234-.972c-.048.264-.126.594-.234.99-.096.384-.192.762-.288 1.134-.096.36-.174.642-.234.846L4.99 10.69h3.06l-.756-2.574zM18.13.808v7.704h-2.268V4.948c0-.144.006-.342.018-.594l.036-.756c.012-.252.024-.42.036-.504a3.135 3.135 0 01-.288.36c-.12.12-.228.222-.324.306l-.702.558L13.54 3.04 16.348.808h1.782z" fill="#000" fill-opacity=".5"></path>
  </symbol>
  <symbol fill="none" xmlns="http://www.w3.org/2000/svg" viewBox="0 0 20 20" id="mts-icon">
    <g clip-path="url(#clip0)" opacity=".85">
      <path fill-rule="evenodd" clip-rule="evenodd" d="M20.037 20.036H0V0h20.037v20.036zm-4.128-8.48c0-4.408-3.043-9.498-5.89-9.498-2.848 0-5.888 5.09-5.888 9.499 0 3.463 2.03 6.417 5.888 6.417 3.854 0 5.89-2.954 5.89-6.417z" fill="#000" fill-opacity=".5"></path>
    </g>
  </symbol>
  <symbol fill="none" xmlns="http://www.w3.org/2000/svg" viewBox="0 0 20 20" id="tel-icon">
    <path d="M16.075 8.422c.02-2.41-2.032-4.619-4.575-4.925a3.08 3.08 0 01-.164-.025 2.378 2.378 0 00-.388-.041c-.521 0-.66.366-.697.584-.036.212-.002.392.1.53.173.235.477.277.721.31.071.01.139.019.196.031 2.284.511 3.054 1.314 3.43 3.58.009.055.013.123.018.196.017.27.05.834.656.834.05 0 .105-.005.161-.013.564-.086.546-.6.538-.848a1.04 1.04 0 01.002-.18.248.248 0 00.001-.034l.001.001z" fill="#000" fill-opacity=".5"></path>
    <path d="M10.8 2.613c.068.005.132.01.185.018 3.752.577 5.478 2.355 5.956 6.137a1.9 1.9 0 01.01.224c.006.296.016.911.676.924h.02c.207 0 .371-.063.49-.186.205-.214.191-.533.179-.79a3.76 3.76 0 01-.005-.175c.048-3.867-3.3-7.374-7.164-7.504-.016 0-.031 0-.046.002a.323.323 0 01-.046.003c-.04 0-.086-.004-.137-.007-.06-.004-.129-.009-.2-.009-.615 0-.731.438-.746.698-.035.603.548.645.828.665zm5.96 11.042a11.62 11.62 0 01-.24-.187c-.41-.33-.845-.633-1.266-.927l-.262-.184c-.54-.379-1.025-.563-1.484-.563-.618 0-1.156.342-1.601 1.014-.197.299-.436.444-.73.444a1.45 1.45 0 01-.589-.148c-1.741-.79-2.986-2.002-3.698-3.6-.344-.774-.233-1.279.372-1.69.345-.234.984-.668.94-1.5-.052-.945-2.136-3.787-3.015-4.11a1.71 1.71 0 00-1.163-.003c-1.01.339-1.732.936-2.095 1.723-.35.762-.333 1.656.045 2.586C3.07 9.2 4.61 11.544 6.552 13.48c1.901 1.893 4.238 3.444 6.945 4.61.244.105.5.163.687.204.063.014.118.027.158.038a.265.265 0 00.068.009h.022c1.273 0 2.802-1.164 3.271-2.49.412-1.161-.34-1.735-.943-2.196zm-5.397-7.97c-.217.006-.671.018-.83.48-.076.216-.066.402.026.557.135.225.394.295.63.333.853.137 1.293.608 1.38 1.486.04.408.317.694.67.694a.66.66 0 00.08-.005c.424-.05.63-.363.612-.928.006-.59-.302-1.26-.828-1.794-.526-.535-1.161-.836-1.74-.822z" fill="#000" fill-opacity=".5"></path>
  </symbol>
  <symbol fill="none" xmlns="http://www.w3.org/2000/svg" viewBox="0 0 20 20" id="whats-up-icon">
    <path d="M10.625 18.75a9.291 9.291 0 01-4.55-1.172L0 20l2.422-6.074A9.292 9.292 0 011.25 9.375c0-1.276.247-2.49.742-3.643a9.447 9.447 0 012.002-2.988A9.448 9.448 0 016.982.742 9.136 9.136 0 0110.625 0c1.276 0 2.49.247 3.643.742a9.449 9.449 0 012.988 2.002 9.448 9.448 0 012.002 2.988A9.136 9.136 0 0120 9.375c0 1.276-.247 2.49-.742 3.643a9.45 9.45 0 01-2.002 2.988 9.45 9.45 0 01-2.988 2.002 9.136 9.136 0 01-3.643.742zm3.125-7.5H12.5l-.703.625c-.586-.156-1.306-.66-2.158-1.514-.853-.853-1.358-1.572-1.514-2.158L8.75 7.5V6.25c0-.221-.078-.443-.234-.664a1.482 1.482 0 00-.518-.479c-.189-.097-.322-.107-.4-.029l-.918.918c-.508.508-.583 1.299-.225 2.373.358 1.074 1.042 2.116 2.05 3.125 1.01 1.01 2.052 1.693 3.126 2.05 1.074.359 1.865.284 2.373-.224l.918-.918c.078-.078.068-.211-.03-.4a1.483 1.483 0 00-.478-.518 1.147 1.147 0 00-.664-.234z" fill="#000" fill-opacity=".5"></path>
  </symbol>
</svg>