<svg width="231" height="60" viewBox="0 0 231 60" fill="none" xmlns="http://www.w3.org/2000/svg">
<g clip-path="url(#clip0)">
<path fill-rule="evenodd" clip-rule="evenodd" d="M10.9383 32.645C10.9383 32.645 10.9846 31.8339 10.2894 31.0459C9.571 30.2348 7.18405 30.2348 6.16438 29.9336C5.14471 29.6323 5.0752 28.8676 5.0752 28.8676V25.7622C5.0752 25.7622 5.12154 26.5038 6.16438 26.8282C7.18405 27.1295 9.571 27.1295 10.2894 27.9406C10.9846 28.7285 10.9383 29.5396 10.9383 29.5396V32.645Z" fill="#D3AF4A"/>
<path fill-rule="evenodd" clip-rule="evenodd" d="M10.9383 40.1069C10.9383 40.1069 10.9846 39.2958 10.2894 38.5079C9.571 37.6968 7.18405 37.6968 6.16438 37.3955C5.14471 37.0942 5.0752 36.3295 5.0752 36.3295V33.2241C5.0752 33.2241 5.12154 33.9657 6.16438 34.2901C7.18405 34.5914 9.571 34.5914 10.2894 35.4025C10.9846 36.1904 10.9383 37.0015 10.9383 37.0015V40.1069Z" fill="#D3AF4A"/>
<path fill-rule="evenodd" clip-rule="evenodd" d="M7.97182 4.51142C7.83278 4.60412 7.67056 4.88221 7.53151 5.06761C7.39247 5.253 7.20707 5.39204 7.32294 5.62379C7.46198 5.90188 7.8096 6.6898 7.97182 6.89837C8.13404 6.71298 8.48165 5.92505 8.6207 5.62379C8.73657 5.36887 8.528 5.20665 8.38896 5.02126C8.27308 4.88221 8.11087 4.60412 7.97182 4.51142ZM10.5673 7.82534L11.5175 5.8787L10.5442 6.11045L10.5673 7.82534ZM5.469 7.80217V6.08727L4.49568 5.8787L5.469 7.80217ZM8.01817 2.07812C8.36578 2.93557 8.89879 4.07111 9.64036 4.90539C10.1965 5.53109 9.94163 5.36887 9.52449 6.29584C9.31593 6.75933 9.01466 7.4082 9.06101 7.96439C9.75624 7.89486 9.91846 6.52758 10.0112 5.92505C10.0807 5.55426 10.127 5.46157 10.4746 5.3457C11.726 4.95173 11.6797 5.29935 12.8848 4.09429C13.047 3.93207 13.0933 3.88572 13.2092 3.97841C13.3483 4.21016 12.8152 4.99808 12.6762 5.29935C12.0041 6.6898 11.2162 8.01074 10.9845 9.56341H5.16774C4.93599 8.05708 4.1249 6.66663 3.47602 5.32252C3.38332 5.1603 2.52587 3.8162 3.05888 3.95524L4.0322 4.81269C4.88965 5.46157 5.93249 4.95173 6.09471 5.85553C6.21058 6.48123 6.32645 7.87169 7.04485 7.94121C7.0912 7.38503 6.78994 6.75933 6.58137 6.29584C6.4655 6.04092 6.34962 5.83236 6.23375 5.62379C6.00201 5.253 6.23375 5.11395 6.41914 4.90539C7.11437 4.11746 7.64738 2.84288 8.01817 2.07812Z" fill="#D3AF4A"/>
<path d="M51.2844 2.72659C51.2844 2.84246 51.1686 3.09738 50.9368 3.49134C50.7051 3.88531 50.3807 4.48784 50.0099 5.27576C49.8245 5.66972 49.6391 6.08686 49.4305 6.48082C49.2219 6.87479 49.0134 7.3151 48.828 7.70906C48.6194 8.12619 48.434 8.52016 48.2718 8.89095C48.1096 9.26173 47.9474 9.63252 47.8083 9.95696C47.6461 10.3509 47.4839 10.7912 47.2753 11.3011C47.0667 11.8109 46.8813 12.3207 46.7191 12.8306C46.5337 13.3404 46.3947 13.8039 46.2788 14.221C46.1629 14.6382 46.0934 14.9394 46.0934 15.148C46.0934 15.3334 46.1398 15.4493 46.2325 15.4956C46.3252 15.5188 46.441 15.542 46.5337 15.542C46.6496 15.542 46.7886 15.5188 46.9277 15.4493C47.0667 15.3797 47.2058 15.3334 47.3217 15.2639C47.4607 15.1712 47.5997 15.0785 47.7388 14.9858L47.9242 15.4261C47.762 15.5651 47.5302 15.7505 47.2753 15.9591C46.9972 16.1677 46.7191 16.3994 46.3947 16.608C46.0702 16.8165 45.7458 17.0019 45.3982 17.141C45.0506 17.28 44.7261 17.3727 44.448 17.3727C44.2858 17.3727 44.1468 17.3496 44.0309 17.28C43.915 17.2105 43.8687 17.0946 43.8687 16.8861C43.8687 16.747 43.915 16.4921 44.0309 16.075C44.1468 15.681 44.3322 15.1248 44.5871 14.4296C44.7957 13.8271 45.0506 13.1782 45.3287 12.483C45.6068 11.7877 45.8848 11.1157 46.1861 10.4436C46.4642 9.77157 46.7423 9.14586 46.974 8.56651C47.229 7.98715 47.4143 7.50049 47.5997 7.10653L47.4607 7.06018C47.1363 7.38462 46.835 7.73223 46.5337 8.05667C46.2325 8.40429 45.8617 8.79825 45.4445 9.26173C45.0274 9.72522 44.4944 10.2814 43.8687 10.9303C43.243 11.5792 42.4551 12.3671 41.5049 13.3172C41.0878 13.7344 40.717 14.1052 40.3925 14.4296C40.0681 14.754 39.7437 15.0785 39.4192 15.3797C39.0948 15.681 38.7935 15.9591 38.4691 16.2372C38.1446 16.5153 37.797 16.7934 37.4031 17.0715C37.264 17.1873 37.0555 17.3032 36.7774 17.4191C36.4993 17.5349 36.2444 17.6045 35.9663 17.6045C35.7577 17.6045 35.5955 17.5349 35.526 17.4191C35.4333 17.3032 35.4101 17.1178 35.4101 16.8629C35.4101 16.6543 35.4796 16.3299 35.6187 15.8896C35.7577 15.4493 35.9199 14.9394 36.1285 14.4064C36.337 13.8502 36.5456 13.2941 36.8005 12.7147C37.0323 12.1353 37.264 11.6023 37.4494 11.162C38.0983 9.6557 38.7008 8.24207 39.257 6.96748C39.8132 5.66972 40.4389 4.37196 41.0878 3.07421H40.9951C40.7865 3.28277 40.4389 3.67674 39.9522 4.23292C39.4656 4.81228 38.863 5.46116 38.2142 6.24908C37.5421 7.01383 36.8237 7.8481 36.0358 8.72873C35.2479 9.60935 34.4831 10.4668 33.7184 11.2779C33.3012 11.7182 32.8609 12.2049 32.3743 12.7147C31.8876 13.2245 31.4009 13.7344 30.8679 14.2674C30.3581 14.7772 29.8251 15.287 29.2921 15.7737C28.7591 16.2604 28.2261 16.7007 27.7394 17.0715C27.2296 17.4422 26.7429 17.7435 26.2794 17.9753C25.8159 18.207 25.3988 18.3229 25.028 18.3229C24.5645 18.3229 24.3096 18.0911 24.3096 17.6276C24.3096 17.2105 24.4487 16.7934 24.7499 16.3994C25.0512 15.9823 25.3988 15.6347 25.8159 15.3797H26.0709C26.0477 15.4493 26.0477 15.5188 26.0477 15.5651C26.0477 15.6115 26.0477 15.681 26.0477 15.7274C26.0477 15.7969 26.0477 15.8664 26.0709 15.9591C26.094 16.0518 26.1172 16.1213 26.1635 16.214C26.2099 16.3067 26.3026 16.3762 26.3953 16.4226C26.488 16.4689 26.627 16.5153 26.7893 16.5153C26.9051 16.5153 27.021 16.4921 27.1832 16.4458C27.3454 16.3994 27.5308 16.3067 27.7394 16.1677C27.9712 16.0286 28.2261 15.8432 28.5273 15.6115C28.8286 15.3797 29.1762 15.0553 29.5702 14.6845C30.5898 13.688 31.54 12.7379 32.4669 11.8109C33.3939 10.8839 34.2745 9.93379 35.132 9.00682C35.9894 8.05667 36.8237 7.10653 37.658 6.13321C38.4923 5.15989 39.3034 4.14022 40.1376 3.07421C39.79 3.00468 39.4656 2.95833 39.1411 2.93516C38.8167 2.91199 38.3996 2.88881 37.8665 2.88881C37.4031 2.88881 36.7542 2.91199 35.9894 2.93516C35.2015 2.95833 34.3209 3.09738 33.3476 3.30595C32.3742 3.51452 31.2851 3.83896 30.1264 4.27927C28.9676 4.71958 27.7857 5.34528 26.5575 6.15638C26.094 6.48082 25.6769 6.80526 25.2829 7.1297C24.889 7.47732 24.5645 7.80176 24.2864 8.1262C24.0083 8.45064 23.7998 8.77507 23.6376 9.07634C23.4753 9.37761 23.4058 9.6557 23.4058 9.91061C23.4058 10.096 23.4522 10.2119 23.568 10.3046C23.6839 10.3973 23.823 10.4204 23.9852 10.4204C24.1706 10.4204 24.3328 10.3973 24.495 10.3509C24.6572 10.3046 24.8194 10.2351 25.028 10.1424V10.4204C24.7499 10.7681 24.4023 11.023 23.9388 11.1852C23.4985 11.3474 23.0814 11.4401 22.6874 11.4401C22.0385 11.4401 21.6909 11.162 21.6909 10.6058C21.6909 10.1424 21.8763 9.67887 22.2239 9.16904C22.5947 8.6592 23.035 8.17254 23.568 7.70906C24.101 7.24557 24.6804 6.78209 25.2829 6.38813C25.8855 5.97099 26.4416 5.62338 26.9283 5.34528C28.2029 4.62688 29.4543 4.04753 30.7289 3.63039C31.9803 3.21325 33.1622 2.88881 34.2514 2.68024C35.3406 2.47168 36.2907 2.33263 37.125 2.26311C37.9593 2.21676 38.585 2.17041 39.0021 2.17041C39.6741 2.17041 40.2535 2.19358 40.7402 2.21676C41.2268 2.23993 41.644 2.28628 41.9916 2.30946C42.3855 2.3558 42.7332 2.40215 43.0344 2.42533C42.9185 2.58755 42.7795 2.86564 42.5709 3.2596C42.3624 3.65356 42.1538 4.0707 41.922 4.55736C41.6903 5.04402 41.4354 5.57703 41.1805 6.13321C40.9256 6.68939 40.6938 7.2224 40.4621 7.75541C40.0449 8.70555 39.6742 9.58617 39.3265 10.4204C38.9789 11.2547 38.6777 11.9963 38.4227 12.6452C38.1678 13.2941 37.9824 13.8734 37.8202 14.3369C37.6812 14.8004 37.6116 15.148 37.6116 15.3566C37.6116 15.4261 37.6116 15.4724 37.6348 15.542C37.658 15.5883 37.7043 15.6115 37.8202 15.6115C37.9593 15.6115 38.2837 15.4029 38.8167 14.9858C39.3497 14.5686 40.0449 13.9198 40.9487 13.0391C41.111 12.8769 41.3659 12.5988 41.7598 12.2049C42.1306 11.8109 42.5941 11.3474 43.1039 10.8144C43.6138 10.2814 44.1931 9.67887 44.7957 9.00682C45.3982 8.35794 46.0007 7.66271 46.6264 6.96748C47.2058 6.3186 47.6693 5.71607 47.9705 5.20624C48.295 4.6964 48.5731 4.25609 48.8512 3.90848C49.1061 3.56087 49.3146 3.32912 49.5 3.19008C49.6622 3.05103 49.8708 2.95834 50.1257 2.86564C50.288 2.81929 50.4502 2.77294 50.6587 2.77294C50.8673 2.74977 50.9832 2.74977 51.0527 2.74977C51.2149 2.5412 51.2844 2.61072 51.2844 2.72659Z" fill="#D3AF4A"/>
<path d="M76.6605 2.26333C76.6605 2.4719 76.4751 2.79634 76.1043 3.1903C75.7335 3.58426 75.0847 4.09409 74.1345 4.74297C73.3002 5.29916 72.605 5.76264 72.0257 6.13343C71.4463 6.50422 70.9133 6.82866 70.473 7.10675C70.0095 7.38484 69.5924 7.66293 69.1984 7.89467C68.8044 8.12642 68.3873 8.42768 67.9702 8.72895C68.1324 9.05339 68.341 9.4937 68.5495 10.1194C68.7581 10.7219 68.9667 11.3708 69.1984 12.066C69.3606 12.5527 69.4997 13.0625 69.6619 13.5492C69.8241 14.0359 69.9863 14.4762 70.1717 14.8701C70.3571 15.2641 70.5425 15.5654 70.7742 15.7971C70.9828 16.0288 71.2377 16.1679 71.5158 16.1679C71.7707 16.1679 72.0257 16.1215 72.2806 16.0057C72.5587 15.913 72.7904 15.7507 72.999 15.5885L73.1844 15.8203C73.138 15.8898 73.0222 16.0057 72.8136 16.1911C72.605 16.3765 72.3733 16.5618 72.1184 16.7472C71.8403 16.9326 71.5622 17.118 71.2609 17.2571C70.9597 17.4193 70.6816 17.4888 70.4035 17.4888C70.0559 17.4888 69.7778 17.3961 69.5692 17.1876C69.3375 16.979 69.1521 16.7009 68.9667 16.3533C68.7813 16.0057 68.619 15.5885 68.4568 15.1019C68.2946 14.6384 68.1324 14.1054 67.9238 13.5724C67.8311 13.3175 67.7153 12.993 67.5994 12.5759C67.4835 12.1587 67.3445 11.7416 67.2054 11.3013C67.0664 10.861 66.9273 10.467 66.7651 10.1194C66.6029 9.77179 66.4638 9.51687 66.3248 9.37783C66.0004 10.1194 65.6991 10.8378 65.3747 11.533C65.1197 12.1356 64.8416 12.7613 64.5172 13.4333C64.2159 14.1054 63.9378 14.6847 63.7061 15.1714C63.5902 15.4495 63.4744 15.6812 63.3817 15.8666C63.289 16.052 63.1963 16.2142 63.1036 16.3301C63.0109 16.4692 62.9182 16.5618 62.8487 16.6545C62.756 16.7472 62.6633 16.8168 62.5706 16.8863C62.362 17.0253 62.1303 17.1412 61.8522 17.2107C61.5741 17.3034 61.3655 17.3266 61.2033 17.3266C61.0874 17.3266 60.9947 17.3034 60.9715 17.2571C60.9484 17.2107 60.9252 17.1644 60.9252 17.0949C60.9252 17.0253 60.9715 16.8863 61.0874 16.6777C61.2033 16.4692 61.3655 16.1447 61.5972 15.7044C62.0144 14.9396 62.362 14.2444 62.6633 13.6651C62.9645 13.0625 63.2194 12.5064 63.4744 11.9502C63.7293 11.394 63.9842 10.8378 64.2159 10.2816C64.4709 9.72544 64.7489 9.07656 65.0734 8.33499C65.3283 7.7788 65.56 7.19945 65.8381 6.57374C66.0931 5.97121 66.3248 5.41503 66.5565 4.90519C66.7651 4.39536 66.9505 3.95505 67.0896 3.56109C67.2286 3.1903 67.3213 2.93538 67.3676 2.81951C67.1823 2.79634 66.9968 2.79634 66.8346 2.77316C66.6724 2.74999 66.5102 2.74999 66.348 2.72681C66.1858 2.70364 66.0235 2.70364 65.8845 2.70364C65.3051 2.70364 64.6331 2.72681 63.8452 2.77316C63.0572 2.81951 62.1998 2.93538 61.2496 3.14395C60.2995 3.35252 59.2566 3.67696 58.1443 4.11727C57.0319 4.55758 55.8732 5.16011 54.6681 5.94804C54.2047 6.27248 53.7644 6.59691 53.3704 6.92135C52.9764 7.26897 52.652 7.59341 52.3739 7.91785C52.0958 8.24229 51.8872 8.56673 51.7482 8.86799C51.6091 9.16926 51.5396 9.44735 51.5396 9.70227C51.5396 9.81814 51.586 9.93401 51.6555 10.0499C51.725 10.1658 51.8872 10.2353 52.1422 10.2353C52.3507 10.2353 52.5129 10.2121 52.652 10.1658C52.791 10.1194 52.9764 10.0499 53.185 9.95718V10.2353C52.8374 10.5829 52.4202 10.8378 51.9799 11C51.5396 11.1622 51.1457 11.2549 50.8444 11.2549C50.1955 11.2549 49.8479 10.9769 49.8479 10.4207C49.8479 10.0035 50.0333 9.56322 50.3809 9.05339C50.7517 8.54355 51.192 8.05689 51.725 7.57023C52.258 7.08357 52.8374 6.64326 53.4399 6.20295C54.0424 5.76264 54.5986 5.41503 55.0853 5.13694C56.3599 4.41853 57.6113 3.86235 58.7932 3.42204C59.9751 3.0049 61.1106 2.68046 62.1998 2.4719C63.289 2.26333 64.3086 2.12428 65.282 2.05476C66.2553 1.98524 67.1591 1.96206 67.9702 1.96206C68.2483 1.96206 68.5495 1.98524 68.874 2.03159C69.1984 2.07793 69.4301 2.10111 69.6155 2.12428L66.4638 9.05339C67.02 8.65942 67.5299 8.33498 67.9702 8.03372C68.4105 7.73245 68.8508 7.45436 69.2679 7.17627C69.6851 6.89818 70.1254 6.62009 70.5425 6.31882C70.9596 6.01756 71.4695 5.69312 72.0257 5.29916C72.2806 5.13694 72.5123 4.95154 72.7904 4.74297C73.0453 4.53441 73.2771 4.34901 73.5088 4.14044C73.7174 3.93188 73.9028 3.74648 74.0418 3.53791C74.1809 3.35252 74.2504 3.16712 74.2504 3.0049C74.2504 2.84268 74.1809 2.74999 74.0418 2.70364C73.9028 2.65729 73.7869 2.61094 73.6942 2.61094V2.4719C74.1809 2.24015 74.6675 2.07793 75.1078 1.98524C75.5713 1.89254 75.8958 1.84619 76.1043 1.84619C76.2202 1.84619 76.3593 1.86937 76.4751 1.91571C76.591 1.96206 76.6605 2.07793 76.6605 2.26333Z" fill="#D3AF4A"/>
<path d="M49.3844 21.9382C49.3844 22.1699 49.2917 22.3785 49.1295 22.5639C48.9441 22.7493 48.7587 22.8883 48.5501 23.0042C48.2952 23.1432 48.0403 23.2591 47.7158 23.3286L47.5999 23.2359C47.6231 23.1896 47.6231 23.0969 47.6231 23.0042C47.6231 22.7261 47.4841 22.448 47.1828 22.1699C46.8815 21.915 46.4644 21.6833 45.9082 21.4747C45.352 21.2661 44.6568 21.1039 43.8225 20.988C42.9883 20.8722 42.015 20.8026 40.9258 20.8026C40.8331 20.9185 40.7404 21.0576 40.6709 21.1966C40.6013 21.3356 40.5086 21.4979 40.4391 21.6833C40.3464 21.8687 40.2537 22.0772 40.161 22.3321C40.0451 22.5639 39.9293 22.842 39.7902 23.1664C39.6512 23.4909 39.4426 23.9775 39.1645 24.6496C38.8864 25.3216 38.562 26.1095 38.168 26.9902C37.7973 27.894 37.3801 28.8441 36.9398 29.8869C36.4995 30.9298 36.036 31.9495 35.5957 32.9923C35.3871 33.4558 35.1554 33.8729 34.8773 34.2669C34.6224 34.6608 34.3443 34.9389 34.0662 35.1475C33.9735 35.217 33.8576 35.2865 33.6954 35.3561C33.5332 35.4256 33.3941 35.4951 33.2319 35.5415C33.0697 35.611 32.9307 35.6573 32.7916 35.6805C32.6526 35.7037 32.5367 35.7269 32.4672 35.7269L32.3281 35.5646C32.3513 35.5183 32.4208 35.4024 32.4903 35.2634C32.583 35.1012 32.6757 34.9389 32.7916 34.7304C32.9075 34.5218 33.0233 34.3132 33.1624 34.0815C33.3014 33.8497 33.4173 33.618 33.5332 33.4326C33.8113 32.946 34.1125 32.3666 34.4138 31.6945C34.7382 31.0457 35.0627 30.3273 35.3871 29.5857C35.7347 28.8441 36.0824 28.0562 36.43 27.2451C36.8008 26.434 37.1484 25.6229 37.496 24.835C37.7972 24.1629 38.0753 23.6067 38.2839 23.1664C38.5157 22.7261 38.701 22.3553 38.8864 22.054C39.0718 21.7528 39.2109 21.521 39.3499 21.3356C39.489 21.1503 39.628 20.9649 39.7671 20.8026H39.1877C38.4461 20.8026 37.5887 20.8258 36.6385 20.8953C35.6884 20.9649 34.6455 21.1039 33.5564 21.3125C32.4672 21.521 31.3085 21.8455 30.1266 22.2858C28.9215 22.7029 27.7396 23.2823 26.5114 24.0239C25.5381 24.6032 24.7733 25.2521 24.194 25.9241C23.6378 26.5962 23.3597 27.2219 23.3597 27.7781C23.3597 28.1257 23.5451 28.2879 23.939 28.2879C24.1013 28.2879 24.2635 28.2648 24.4257 28.2184C24.5879 28.1721 24.7733 28.1025 24.9819 27.9867V28.2648C24.6574 28.6124 24.2635 28.8673 23.8 29.0295C23.3365 29.1917 22.9425 29.2844 22.6413 29.2844C22.2705 29.2844 22.0156 29.1917 21.8765 29.0295C21.7375 28.8673 21.668 28.6355 21.668 28.3343C21.668 27.9171 21.8534 27.4768 22.201 26.9902C22.5718 26.5035 23.0121 26.0168 23.5219 25.5534C24.0549 25.0899 24.6111 24.6264 25.2368 24.2324C25.8393 23.8153 26.4187 23.4677 26.9053 23.2128C28.1336 22.5639 29.3618 22.0309 30.6364 21.6369C31.8878 21.2198 33.116 20.8953 34.2748 20.6636C35.4335 20.4318 36.5227 20.2696 37.5191 20.1769C38.5156 20.0842 39.3731 20.0379 40.0451 20.0379H40.3464L41.482 19.2036H41.9454C41.8296 19.3658 41.7369 19.4817 41.6442 19.6208L41.3197 20.0379C42.2931 20.0611 43.2432 20.1074 44.1933 20.2001C45.1435 20.2928 46.0009 20.4087 46.7657 20.5709C47.5304 20.7331 48.1561 20.9417 48.6196 21.1734C49.1526 21.3588 49.3844 21.6369 49.3844 21.9382ZM45.2362 22.8651C45.074 23.1664 44.8886 23.514 44.68 23.9312C44.4714 24.3483 44.2397 24.7654 44.0079 25.2289C43.7762 25.6692 43.5676 26.1327 43.3591 26.573C43.1505 27.0133 42.9883 27.4305 42.8492 27.7781C42.6407 28.3111 42.4321 28.8441 42.2235 29.4003C42.015 29.9565 41.7369 30.6285 41.4124 31.4164C41.2966 31.7177 41.1575 32.0653 40.9953 32.4593C40.8331 32.8533 40.7635 33.1777 40.7635 33.4558C40.7635 33.6412 40.8794 33.7339 41.088 33.7339C41.227 33.7339 41.3661 33.7107 41.5283 33.6412C41.6905 33.5717 41.8296 33.5253 41.9454 33.4558C42.1077 33.3631 42.2467 33.2704 42.3626 33.1777L42.548 33.618C42.3857 33.757 42.154 33.9193 41.8991 34.1278C41.621 34.3364 41.3429 34.5218 41.0416 34.7072C40.7404 34.8926 40.4159 35.0548 40.0915 35.1939C39.7671 35.3329 39.4658 35.4024 39.1645 35.4024C38.8633 35.4024 38.7242 35.217 38.7242 34.8231C38.7242 34.7072 38.7474 34.5218 38.7937 34.2901C38.8401 34.0583 38.9096 33.8034 39.0023 33.5485C39.095 33.2704 39.2109 32.9923 39.3268 32.691C39.4426 32.3898 39.5817 32.0885 39.6975 31.7872C39.7671 31.6018 39.9061 31.2774 40.0683 30.8603C40.2537 30.4431 40.4391 29.9565 40.6709 29.4003C40.9026 28.8441 41.1343 28.2647 41.4124 27.6622C41.6674 27.0597 41.9454 26.4803 42.2235 25.9473C42.5016 25.4143 42.7565 24.9277 43.0114 24.4873C43.2664 24.047 43.4981 23.7458 43.6835 23.5604C43.9848 23.2591 44.2629 23.0737 44.4946 23.0042C44.7263 22.9347 44.8886 22.9115 45.0276 22.9115H45.0971H45.1435H45.2362V22.8651Z" fill="#D3AF4A"/>
<path d="M55.9891 27.4075C55.9891 28.0796 55.8733 28.7516 55.6647 29.4469C55.433 30.1189 55.0853 30.8142 54.5987 31.4862C54.3438 31.8338 54.0193 32.251 53.6022 32.7144C53.2082 33.1779 52.7447 33.6182 52.2349 34.0122C51.7251 34.4062 51.1457 34.7538 50.52 35.0319C49.8943 35.31 49.2454 35.449 48.527 35.449C48.2953 35.449 48.0635 35.449 47.8086 35.4258C47.5537 35.4027 47.3683 35.4027 47.2061 35.3563C47.0439 35.7039 46.8817 36.1442 46.6963 36.6309C46.5109 37.1176 46.2791 37.6969 46.0474 38.3458C45.4912 39.7826 45.1204 40.8254 44.935 41.428C44.9118 41.5902 44.8887 41.7524 44.8655 41.8915C44.8423 42.0537 44.8423 42.1232 44.8423 42.1695C44.7264 42.494 44.4484 42.7721 44.0312 43.027C43.5909 43.3051 43.1969 43.4673 42.8493 43.4673C42.6176 43.4673 42.5017 43.3514 42.5017 43.0965C42.5017 42.9806 42.5481 42.7489 42.6408 42.4476C42.7335 42.1464 42.8957 41.7292 43.1042 41.2194L45.9315 34.7538C45.7693 34.383 45.6766 34.0354 45.6766 33.6878C45.6766 33.5719 45.6766 33.5024 45.6766 33.4329C45.6766 33.3633 45.6998 33.317 45.6998 33.2475L46.3255 33.5024L48.2721 29.1224C48.6661 28.2186 48.8746 27.6393 48.8746 27.3612C48.8746 27.2453 48.8051 27.1758 48.6892 27.1758C48.5734 27.1758 48.388 27.2221 48.0867 27.338C47.7854 27.4539 47.3915 27.6393 46.8585 27.9405L46.7194 27.5466C46.9743 27.4075 47.2988 27.2453 47.6696 27.0599C48.0404 26.8745 48.4343 26.6891 48.8283 26.5037C49.2223 26.3415 49.6162 26.1793 49.9638 26.0634C50.3346 25.9476 50.6127 25.878 50.8213 25.878C51.0067 25.878 51.0994 25.9707 51.0994 26.1561C51.0994 26.2488 50.9835 26.5733 50.7286 27.1294C50.4737 27.7088 50.1492 28.3809 49.7321 29.1688L49.848 29.192C50.1029 28.937 50.3578 28.659 50.6359 28.3577C50.914 28.0564 51.2152 27.7552 51.5397 27.4539C51.8641 27.1526 52.1886 26.8745 52.5593 26.6196C52.907 26.3415 53.2777 26.133 53.6949 25.9476C54.0193 25.7853 54.3669 25.7158 54.7841 25.7158C55.1549 25.7158 55.433 25.8317 55.6647 26.0866C55.8964 26.411 55.9891 26.8282 55.9891 27.4075ZM54.0193 28.2418C54.0193 27.8942 53.973 27.6161 53.9034 27.4539C53.8107 27.2917 53.6717 27.199 53.44 27.199C53.1155 27.199 52.7447 27.338 52.3508 27.6393C51.9336 27.9406 51.5397 28.3113 51.1225 28.7516C50.7054 29.2151 50.2883 29.7018 49.8943 30.258C49.4772 30.8142 49.1295 31.3472 48.8051 31.8802C48.527 32.3205 48.3185 32.7376 48.1331 33.1084C47.9708 33.4792 47.8318 33.8268 47.7159 34.1513C48.2026 34.4525 48.8051 34.6147 49.4772 34.6147C50.0565 34.6147 50.6127 34.4293 51.1225 34.0354C51.5628 33.7109 51.9568 33.3402 52.3276 32.8767C52.6752 32.4132 52.9765 31.9497 53.2314 31.4167C53.4863 30.9069 53.6717 30.3738 53.8108 29.8177C53.9498 29.3078 54.0193 28.7748 54.0193 28.2418Z" fill="#D3AF4A"/>
<path d="M67.0431 26.6425C66.8345 26.8279 66.6491 27.0365 66.4637 27.3145C66.2783 27.5926 66.0929 27.8939 65.9075 28.2415C65.7917 28.4964 65.6526 28.7745 65.4904 29.1221C65.3282 29.4698 65.1428 29.8637 64.9574 30.304C64.7488 30.7443 64.5866 31.1151 64.4707 31.4164C64.3549 31.7177 64.239 31.9726 64.1695 32.158C63.9146 32.7837 63.7987 33.1776 63.7987 33.363C63.7987 33.5716 63.9146 33.6643 64.1463 33.6643C64.4476 33.6643 64.7488 33.5716 65.0964 33.363C65.4441 33.1545 65.7917 32.9459 66.1393 32.7141L66.3247 33.1545C65.9771 33.4094 65.6295 33.6643 65.2818 33.9192C64.9111 34.1741 64.5634 34.429 64.1927 34.6376C63.8219 34.8462 63.4742 35.0316 63.1266 35.1706C62.779 35.3097 62.4778 35.3792 62.1997 35.3792C61.852 35.3792 61.6667 35.217 61.6667 34.8925C61.6667 34.5449 61.852 33.9424 62.1997 33.1313L62.8022 31.7177H62.64C62.0374 32.3665 61.4813 32.9227 60.9946 33.3862C60.508 33.8497 60.0676 34.2437 59.6505 34.5217C59.2334 34.823 58.8626 35.0316 58.515 35.1706C58.1673 35.3097 57.8197 35.3792 57.4489 35.3792C56.6378 35.3792 56.2207 34.8925 56.2207 33.9424C56.2207 33.4789 56.2902 33.0154 56.4524 32.5288C56.6147 32.0653 56.8232 31.6018 57.0782 31.1615C57.3331 30.7212 57.6343 30.304 58.0051 29.8869C58.3527 29.4698 58.7467 29.099 59.1638 28.7282C59.581 28.3574 60.0676 28.0098 60.5543 27.6622C61.0641 27.3145 61.5971 27.0365 62.1533 26.7815C62.7095 26.5266 63.312 26.3181 63.8914 26.179C64.4939 26.0168 65.0965 25.9473 65.699 25.9473C65.9771 25.9473 66.2552 25.9936 66.5564 26.1095C66.8577 26.2022 66.9967 26.3644 66.9967 26.5961V26.6425H67.0431ZM65.4441 26.9901C65.3282 26.8974 65.1428 26.8279 64.9111 26.8047C64.6793 26.7815 64.4476 26.7584 64.2622 26.7584C63.7755 26.7584 63.2889 26.8742 62.779 27.1292C62.2924 27.3841 61.8057 27.6853 61.3654 28.0561C60.9251 28.4269 60.5079 28.8209 60.1372 29.2612C59.7664 29.7015 59.4651 30.1186 59.2334 30.4894C58.9321 31.0456 58.6772 31.5323 58.4918 31.9957C58.3064 32.4592 58.2137 32.8532 58.2137 33.1776C58.2137 33.4557 58.26 33.6643 58.3759 33.7802C58.4918 33.896 58.654 33.9424 58.8857 33.9424C59.2102 33.9424 59.581 33.7802 60.0213 33.4789C60.4384 33.1776 60.8787 32.83 61.2959 32.4129C61.713 31.9957 62.107 31.5786 62.4778 31.1383C62.8485 30.698 63.1035 30.3504 63.2657 30.0723C63.4279 29.8174 63.6133 29.4929 63.8219 29.0758C63.9377 28.8209 64.0536 28.566 64.1695 28.3342C64.2853 28.1025 64.4476 27.8476 64.6561 27.6158C64.9111 27.3609 65.1891 27.1292 65.4441 26.9901Z" fill="#D3AF4A"/>
<path d="M79.789 20.6867C79.789 21.3124 79.395 22.1235 78.5839 23.0968C78.329 23.3981 78.0046 23.7457 77.5874 24.1165C77.1935 24.4873 76.7532 24.8581 76.2665 25.252C75.7798 25.646 75.27 26.04 74.737 26.4107C74.204 26.8047 73.6478 27.1523 73.1148 27.4536V27.5463C73.4856 27.4536 73.8332 27.4072 74.1576 27.3609C74.4821 27.3377 74.7602 27.3145 75.0151 27.3145C75.4322 27.3145 75.803 27.4072 76.1043 27.5926C76.4055 27.778 76.5446 28.1256 76.5446 28.6355C76.5446 28.9831 76.4751 29.3539 76.3128 29.7478C76.1506 30.1418 75.9421 30.5589 75.6871 30.9529C75.4091 31.37 75.1078 31.764 74.7602 32.1811C74.4126 32.5751 74.0418 32.9691 73.6246 33.3398C72.8367 34.0582 72.072 34.5681 71.3304 34.8694C70.5888 35.1706 69.9168 35.3328 69.3374 35.3328C68.9898 35.3328 68.7117 35.2633 68.5031 35.1474C68.2946 35.0316 68.1555 34.8694 68.0628 34.7071C67.9701 34.5449 67.9006 34.3595 67.8774 34.1509C67.8542 33.9424 67.8542 33.7802 67.8542 33.6179C67.8542 33.0154 67.9701 32.3665 68.2019 31.6713C68.4336 30.9761 68.7117 30.2577 69.0361 29.5161C69.3142 28.8904 69.6618 28.2183 70.1022 27.4999C70.5193 26.7815 71.006 26.04 71.539 25.3216C72.072 24.6032 72.6513 23.8847 73.2307 23.2127C73.8332 22.5406 74.4357 21.9381 75.0383 21.4283C75.6408 20.8953 76.2665 20.4781 76.8459 20.1769C77.4484 19.8524 78.0046 19.7134 78.5376 19.7134C78.9315 19.7134 79.2328 19.7829 79.4414 19.9219C79.6963 20.0842 79.789 20.3391 79.789 20.6867ZM77.8655 21.6832C77.8655 21.2661 77.6338 21.0343 77.1935 21.0343C76.7995 21.0343 76.4055 21.1734 76.0116 21.4283C75.5944 21.6832 75.2005 22.0308 74.8065 22.4479C74.4126 22.8651 74.0186 23.3286 73.6478 23.8616C73.277 24.3946 72.9294 24.9044 72.6281 25.4374C72.3037 25.9704 72.0256 26.4803 71.7707 26.9438C71.5158 27.4304 71.3304 27.8244 71.1913 28.1488C71.006 28.5428 70.8205 28.9599 70.6583 29.4002C70.4961 29.8405 70.3339 30.2808 70.218 30.698C70.079 31.1383 69.9863 31.5323 69.8936 31.9262C69.8009 32.3202 69.7777 32.6678 69.7777 32.9691C69.7777 33.3167 69.8472 33.6179 69.9863 33.8729C70.1253 34.1278 70.3802 34.2436 70.7974 34.2436C71.145 34.2436 71.4694 34.1509 71.8402 33.9656C72.1878 33.7802 72.5818 33.5021 73.0221 33.0849C73.5319 32.5983 73.9723 31.9957 74.3199 31.3237C74.6675 30.6285 74.8297 29.9796 74.8297 29.3539C74.8297 29.2148 74.8297 29.0526 74.8065 28.8904C74.7833 28.7282 74.737 28.5659 74.6675 28.4037C74.5748 28.2415 74.4589 28.1256 74.2735 28.0329C74.0881 27.9402 73.8332 27.8939 73.4856 27.8939C73.0916 27.8939 72.7672 27.9402 72.4659 28.0329C72.1647 28.1256 71.9793 28.1952 71.9097 28.2183V27.6622C72.3037 27.4304 72.8367 27.0828 73.5088 26.6425C74.1808 26.2022 74.8529 25.6923 75.5017 25.1362C76.1506 24.58 76.7068 24.0006 77.1935 23.3981C77.6338 22.8187 77.8655 22.2394 77.8655 21.6832Z" fill="#D3AF4A"/>
<path d="M86.5557 27.8012C86.5557 28.6354 86.3703 29.4465 85.9764 30.2345C85.5824 31.0456 85.0958 31.7871 84.5164 32.4824C83.6358 33.502 82.7783 34.2436 81.944 34.7071C81.0866 35.1706 80.206 35.4023 79.3022 35.4023C77.8654 35.4023 77.147 34.6839 77.147 33.2703C77.147 32.7373 77.2397 32.2043 77.4482 31.6249C77.6568 31.0456 77.9117 30.4894 78.2593 29.9564C78.607 29.4234 79.0241 28.8904 79.4876 28.4037C79.9511 27.917 80.4841 27.4767 81.0171 27.1059C81.5733 26.7352 82.1526 26.4339 82.7551 26.2253C83.3577 26.0167 83.9834 25.9009 84.6091 25.9009C85.2348 25.9009 85.7214 26.0631 86.0691 26.4107C86.3703 26.7583 86.5557 27.2218 86.5557 27.8012ZM84.6554 28.5659C84.6554 27.9402 84.5627 27.5231 84.3542 27.2682C84.1456 27.0364 83.8212 26.8974 83.3113 26.8974C82.199 26.8974 81.2256 27.5462 80.3218 28.8672C79.4181 30.1649 78.9777 31.5322 78.9777 32.969C78.9777 33.4325 79.0936 33.7801 79.3022 34.0814C79.5108 34.3595 79.8584 34.4985 80.3682 34.4985C80.7853 34.4985 81.1793 34.3827 81.5501 34.1741C81.9209 33.9655 82.2685 33.6874 82.5929 33.3398C82.9174 32.9922 83.1955 32.5982 83.4504 32.1811C83.7053 31.7408 83.9139 31.3237 84.0992 30.8833C84.2846 30.443 84.4237 30.0259 84.5164 29.6088C84.6091 29.2148 84.6554 28.8672 84.6554 28.5659Z" fill="#D3AF4A"/>
<path d="M99.2089 20.6867C99.2089 21.3124 98.8149 22.1235 98.0039 23.0968C97.7489 23.3981 97.4245 23.7457 97.0074 24.1165C96.6134 24.4873 96.1731 24.8581 95.6864 25.252C95.1998 25.646 94.6899 26.04 94.1569 26.4107C93.6239 26.8047 93.0677 27.1523 92.5347 27.4536V27.5463C92.9055 27.4536 93.2531 27.4072 93.5776 27.3609C93.902 27.3377 94.1801 27.3145 94.435 27.3145C94.8522 27.3145 95.223 27.4072 95.5242 27.5926C95.8255 27.778 95.9645 28.1256 95.9645 28.6355C95.9645 28.9831 95.895 29.3539 95.7328 29.7478C95.5706 30.1418 95.362 30.5589 95.1071 30.9529C94.829 31.37 94.5277 31.764 94.1801 32.1811C93.8325 32.5751 93.4617 32.9691 93.0446 33.3398C92.2566 34.0582 91.4919 34.5681 90.7503 34.8694C90.0087 35.1706 89.3367 35.3328 88.7573 35.3328C88.4097 35.3328 88.1316 35.2633 87.923 35.1474C87.7145 35.0316 87.5754 34.8694 87.4827 34.7071C87.39 34.5449 87.3205 34.3595 87.2974 34.1509C87.2742 33.9424 87.2742 33.7802 87.2742 33.6179C87.2742 33.0154 87.39 32.3665 87.6218 31.6713C87.8535 30.9761 88.1316 30.2577 88.4561 29.5161C88.7342 28.8904 89.0818 28.2183 89.5221 27.4999C89.9392 26.7815 90.4259 26.04 90.9589 25.3216C91.4919 24.6032 92.0712 23.8847 92.6506 23.2127C93.2531 22.5406 93.8557 21.9381 94.4582 21.4283C95.0607 20.8953 95.6864 20.4781 96.2658 20.1769C96.8683 19.8524 97.4245 19.7134 97.9575 19.7134C98.3515 19.7134 98.6527 19.7829 98.8613 19.9219C99.093 20.0842 99.2089 20.3391 99.2089 20.6867ZM97.2623 21.6832C97.2623 21.2661 97.0305 21.0343 96.5902 21.0343C96.1963 21.0343 95.8023 21.1734 95.4083 21.4283C94.9912 21.6832 94.5972 22.0308 94.2033 22.4479C93.8093 22.8651 93.4154 23.3286 93.0446 23.8616C92.6738 24.3946 92.3262 24.9044 92.0249 25.4374C91.7005 25.9704 91.4224 26.4803 91.1674 26.9438C90.9125 27.4304 90.7271 27.8244 90.5881 28.1488C90.4027 28.5428 90.2173 28.9599 90.0551 29.4002C89.8929 29.8405 89.7307 30.2808 89.6148 30.698C89.4757 31.1383 89.383 31.5323 89.2903 31.9262C89.1976 32.3202 89.1745 32.6678 89.1745 32.9691C89.1745 33.3167 89.244 33.6179 89.383 33.8729C89.5221 34.1278 89.777 34.2436 90.1941 34.2436C90.5417 34.2436 90.8662 34.1509 91.237 33.9656C91.5846 33.7802 91.9785 33.5021 92.4189 33.0849C92.9287 32.5983 93.369 31.9957 93.7166 31.3237C94.0642 30.6285 94.2264 29.9796 94.2264 29.3539C94.2264 29.2148 94.2265 29.0526 94.2033 28.8904C94.1801 28.7282 94.1337 28.5659 94.0642 28.4037C93.9715 28.2415 93.8557 28.1256 93.6703 28.0329C93.4849 27.9402 93.23 27.8939 92.8823 27.8939C92.4884 27.8939 92.1639 27.9402 91.8627 28.0329C91.5614 28.1256 91.376 28.1952 91.3065 28.2183V27.6622C91.7005 27.4304 92.2335 27.0828 92.9055 26.6425C93.5776 26.2022 94.2496 25.6923 94.8985 25.1362C95.5474 24.58 96.1036 24.0006 96.5902 23.3981C97.0305 22.8187 97.2623 22.2394 97.2623 21.6832Z" fill="#D3AF4A"/>
<path d="M104.794 30.1649C104.794 30.5126 104.678 30.9297 104.469 31.4395C104.261 31.9494 103.913 32.436 103.45 32.9227C103.287 33.1081 103.079 33.2935 102.824 33.502C102.569 33.7106 102.291 33.9192 102.013 34.1046C101.712 34.3131 101.41 34.4753 101.086 34.6607C100.761 34.8461 100.46 34.9388 100.136 35.0315C99.6491 35.1938 99.232 35.2864 98.9075 35.3096C98.5831 35.3328 98.2818 35.356 97.9574 35.356C97.5634 35.356 97.3085 35.2633 97.1463 35.1011C96.9841 34.9388 96.9146 34.7303 96.9146 34.5449C96.9146 34.3131 96.9609 34.035 97.0768 33.7106C97.1926 33.3862 97.3549 32.969 97.5866 32.4592C97.7025 32.2043 97.8415 31.8798 98.0037 31.4859C98.1891 31.0919 98.3514 30.6748 98.5367 30.2345C98.7221 29.7942 98.9075 29.377 99.0698 28.9831C99.232 28.5891 99.371 28.2647 99.4637 27.9866C99.5101 27.8707 99.5564 27.7548 99.5796 27.6389C99.6259 27.5463 99.6259 27.4536 99.6259 27.3609C99.6259 27.245 99.5564 27.1755 99.4405 27.1755C99.3247 27.1755 99.1624 27.2218 98.9539 27.2913C98.7453 27.384 98.5367 27.4536 98.3513 27.5694C98.0964 27.6853 97.8647 27.8012 97.6098 27.9402L97.4707 27.5462C97.6561 27.4304 97.8879 27.3145 98.1891 27.1523C98.4904 26.9901 98.7917 26.851 99.1161 26.712C99.4405 26.5729 99.7418 26.4339 100.02 26.318C100.298 26.2021 100.53 26.1094 100.692 26.0631C101.016 25.9472 101.294 25.9009 101.526 25.9009C101.596 25.9009 101.665 25.9241 101.712 25.9472C101.758 25.9704 101.781 26.0631 101.781 26.2021C101.781 26.2253 101.758 26.2948 101.712 26.4339C101.665 26.5729 101.596 26.712 101.526 26.8742C101.457 27.0364 101.364 27.2218 101.294 27.4304C101.202 27.6158 101.132 27.8012 101.086 27.9634C100.97 28.1951 100.877 28.45 100.761 28.705C100.646 28.9599 100.507 29.2611 100.368 29.5856C100.831 29.3538 101.318 29.1684 101.804 29.0062C102.291 28.844 102.754 28.7745 103.195 28.7745C103.774 28.7745 104.168 28.8904 104.4 29.0989C104.678 29.3075 104.794 29.6783 104.794 30.1649ZM102.986 30.6748C102.986 30.4662 102.963 30.2808 102.893 30.1418C102.824 30.0027 102.754 29.91 102.662 29.8637C102.569 29.7942 102.453 29.771 102.337 29.7478C102.221 29.7246 102.082 29.7246 101.943 29.7246C101.688 29.7246 101.387 29.771 101.063 29.8868C100.738 30.0027 100.46 30.1186 100.182 30.2576C100.043 30.5821 99.904 30.9065 99.7418 31.2541C99.5796 31.6017 99.4405 31.9262 99.3015 32.2738C99.1624 32.6214 99.0466 32.9227 98.977 33.2008C98.8844 33.4789 98.8612 33.7338 98.8612 33.9192C98.8612 34.1046 98.9075 34.2436 99.0002 34.3363C99.0929 34.429 99.2783 34.4754 99.5564 34.4754C99.9272 34.4754 100.344 34.3827 100.738 34.1741C101.132 33.9655 101.526 33.7106 101.851 33.363C102.198 33.0154 102.453 32.6214 102.685 32.1579C102.87 31.7176 102.986 31.2078 102.986 30.6748ZM109.66 26.1094C109.66 26.2021 109.452 26.6656 109.035 27.4999C108.618 28.3573 108.061 29.6319 107.343 31.37C107.25 31.5786 107.158 31.7871 107.065 31.9957C106.972 32.2043 106.879 32.4128 106.81 32.5982C106.74 32.7836 106.671 32.9458 106.625 33.1081C106.578 33.2703 106.555 33.3862 106.555 33.4789C106.555 33.6179 106.578 33.6874 106.625 33.7338C106.671 33.7569 106.74 33.7801 106.856 33.7801C106.972 33.7801 107.158 33.7338 107.366 33.6179C107.575 33.502 107.783 33.3862 108.015 33.2471C108.27 33.0849 108.502 32.9227 108.78 32.7141L108.965 33.1544C108.803 33.2935 108.548 33.4789 108.224 33.7338C107.899 33.9887 107.552 34.2436 107.158 34.4754C106.787 34.7303 106.393 34.9388 105.999 35.1242C105.605 35.3096 105.257 35.4023 104.979 35.4023C104.771 35.4023 104.655 35.356 104.585 35.2633C104.516 35.1706 104.493 35.0779 104.493 34.9388C104.493 34.7998 104.539 34.6144 104.632 34.3131C104.724 34.0119 104.84 33.6874 105.002 33.2935C105.165 32.8995 105.327 32.5055 105.512 32.0652C105.698 31.6249 105.883 31.2078 106.068 30.7675C106.254 30.3503 106.416 29.9564 106.578 29.5856C106.74 29.2148 106.856 28.9135 106.972 28.6818C107.181 28.1951 107.412 27.7085 107.644 27.2682C107.876 26.8047 108.108 26.5034 108.339 26.3644C108.594 26.2021 108.78 26.1094 108.965 26.0399C109.127 25.9704 109.313 25.9472 109.475 25.9472C109.521 25.9472 109.568 25.9472 109.614 25.9704C109.637 25.9472 109.66 26.0167 109.66 26.1094Z" fill="#D3AF4A"/>
<path d="M118.699 26.6195C118.699 26.8976 118.606 27.1757 118.397 27.477C118.189 27.7782 117.957 28.0563 117.656 28.3344C117.354 28.6125 117.053 28.8674 116.729 29.0991C116.404 29.3309 116.126 29.5395 115.871 29.7017C115.338 30.0493 114.782 30.3737 114.18 30.6518C113.6 30.9299 112.951 31.1617 112.256 31.3239C112.187 31.5093 112.14 31.7178 112.117 31.9032C112.094 32.1118 112.071 32.2277 112.071 32.2972C112.071 33.0156 112.233 33.5254 112.557 33.8499C112.882 34.1743 113.368 34.3134 113.994 34.3134C114.55 34.3134 115.107 34.1743 115.663 33.9194C116.219 33.6413 116.729 33.3864 117.169 33.1083L117.354 33.4096C117.099 33.6181 116.775 33.8499 116.427 34.0816C116.057 34.3134 115.686 34.5219 115.269 34.7305C114.852 34.9391 114.434 35.1013 114.017 35.2172C113.6 35.333 113.16 35.4025 112.743 35.4025C111.955 35.4025 111.329 35.2172 110.866 34.8464C110.402 34.4756 110.17 33.8962 110.17 33.1083C110.17 31.4397 110.912 29.9102 112.418 28.4734C112.743 28.1722 113.114 27.8709 113.531 27.5465C113.948 27.222 114.365 26.9671 114.828 26.7122C115.269 26.4573 115.755 26.2719 116.219 26.1097C116.706 25.9475 117.169 25.8779 117.656 25.8779C118.351 25.9243 118.699 26.156 118.699 26.6195ZM116.752 27.4306C116.752 27.1062 116.543 26.9671 116.149 26.9671C115.848 26.9671 115.524 27.083 115.153 27.2916C114.805 27.5001 114.458 27.8014 114.133 28.1258C113.809 28.4734 113.507 28.8442 113.229 29.2845C112.951 29.7017 112.743 30.142 112.604 30.5591C112.998 30.4896 113.438 30.3506 113.925 30.1652C114.411 29.9566 114.852 29.7249 115.269 29.4236C115.686 29.1455 116.033 28.8211 116.312 28.4734C116.613 28.1258 116.752 27.7782 116.752 27.4306Z" fill="#D3AF4A"/>
<path d="M140.9 26.4342C140.9 26.5964 140.853 26.805 140.784 27.0831C140.714 27.338 140.622 27.6161 140.506 27.9173C140.39 28.2186 140.274 28.5199 140.158 28.8211C140.042 29.1224 139.926 29.3773 139.81 29.6091L139.046 31.324C138.976 31.463 138.907 31.6252 138.814 31.8338C138.721 32.0424 138.629 32.2509 138.559 32.4595C138.466 32.6681 138.397 32.8766 138.35 33.062C138.281 33.2474 138.258 33.3865 138.258 33.4792C138.258 33.6646 138.35 33.7573 138.559 33.7573C138.675 33.7573 138.814 33.7109 138.976 33.6414C139.162 33.5719 139.393 33.4328 139.695 33.2242L140.459 32.6912L140.645 33.1315C139.671 33.9195 138.883 34.4988 138.235 34.8464C137.586 35.2172 137.076 35.4026 136.682 35.4026C136.357 35.4026 136.195 35.2404 136.195 34.9391C136.195 34.8233 136.218 34.661 136.288 34.4525C136.357 34.2439 136.427 34.0122 136.497 33.7804C136.589 33.5487 136.682 33.2938 136.775 33.0388C136.867 32.7839 136.96 32.5754 137.053 32.3668L137.864 30.4202C138.119 29.7945 138.327 29.2614 138.466 28.8675C138.605 28.4735 138.675 28.1954 138.675 28.1027C138.675 27.9173 138.582 27.8246 138.42 27.8246C138.142 27.8246 137.841 27.9173 137.493 28.1259C137.145 28.3345 136.821 28.5894 136.473 28.8907C136.126 29.1919 135.778 29.5395 135.431 29.9335C135.083 30.3275 134.758 30.6982 134.48 31.069C134.179 31.4398 133.947 31.7874 133.716 32.1119C133.507 32.4363 133.345 32.6912 133.252 32.8766L132.812 33.7573C132.742 33.8731 132.719 33.9658 132.696 34.0353C132.673 34.1049 132.626 34.1744 132.58 34.2207L132.163 34.6379C131.908 34.8928 131.676 35.055 131.491 35.1709C131.305 35.2636 131.12 35.3331 130.981 35.3331C130.796 35.3331 130.703 35.2404 130.703 35.055C130.703 34.8928 130.796 34.6379 130.958 34.2671C131.12 33.8963 131.329 33.4792 131.56 32.9925L132.14 31.7874C132.65 30.6519 133.044 29.7481 133.275 29.0761C133.507 28.404 133.623 27.9869 133.623 27.8478C133.623 27.7319 133.577 27.6624 133.461 27.6624C133.206 27.6624 132.905 27.7551 132.557 27.9637C132.209 28.1723 131.839 28.4272 131.468 28.7748C131.074 29.0992 130.703 29.47 130.332 29.8872C129.961 30.2811 129.614 30.6982 129.289 31.0922C128.965 31.4862 128.687 31.8338 128.455 32.1814C128.223 32.5058 128.061 32.7608 127.968 32.9693L127.574 33.8036C127.505 33.9195 127.482 34.0122 127.459 34.0817C127.435 34.1512 127.389 34.2207 127.343 34.2671L126.926 34.6842C126.671 34.9391 126.439 35.1014 126.254 35.2172C126.068 35.3099 125.883 35.3794 125.744 35.3794C125.558 35.3794 125.466 35.2868 125.466 35.1014C125.466 35.0087 125.535 34.8233 125.651 34.5452C125.767 34.2671 125.906 33.9658 126.068 33.6646L127.25 31.1386C127.621 30.3043 127.945 29.5627 128.177 28.8907C128.409 28.2186 128.525 27.7319 128.525 27.4539C128.525 27.2916 128.478 27.2221 128.362 27.2221C128.246 27.2221 128.061 27.2685 127.806 27.3612C127.528 27.4539 127.111 27.6624 126.532 27.9869L126.393 27.5929C126.601 27.477 126.902 27.3148 127.25 27.1294C127.621 26.944 127.992 26.7586 128.386 26.5732C128.78 26.3878 129.173 26.2488 129.544 26.1097C129.938 25.9939 130.239 25.9244 130.518 25.9244C130.703 25.9244 130.796 26.017 130.796 26.2024C130.796 26.272 130.749 26.4574 130.657 26.7586C130.564 27.0599 130.402 27.4539 130.193 27.9637L129.15 30.3043L129.313 30.3506C129.869 29.7481 130.425 29.1687 131.004 28.6357C131.584 28.1027 132.14 27.6392 132.673 27.2221C133.206 26.8281 133.716 26.5037 134.179 26.272C134.643 26.0402 135.06 25.9244 135.407 25.9244C135.593 25.9244 135.709 25.9707 135.778 26.0634C135.848 26.1561 135.871 26.272 135.871 26.4342C135.871 26.8281 135.639 27.5697 135.152 28.7284L134.55 30.1884C135.245 29.5395 135.894 28.8907 136.543 28.3113C137.192 27.7088 137.887 27.1526 138.629 26.6428C139.277 26.1793 139.903 25.9475 140.506 25.9475C140.761 25.9244 140.9 26.0866 140.9 26.4342ZM142.29 20.5016C142.012 21.0809 141.618 21.6139 141.108 22.1238C140.598 22.6336 139.973 23.0044 139.231 23.2825C138.397 23.6069 137.586 23.7923 136.798 23.8387C136.033 23.9082 135.222 23.9314 134.388 23.9314C133.438 23.9314 132.65 23.9314 132.047 23.9545C131.445 23.9777 130.912 24.0241 130.448 24.0936C130.008 24.1631 129.591 24.279 129.243 24.4412C128.895 24.6034 128.501 24.812 128.084 25.0901L127.992 24.812C128.339 24.5339 128.64 24.279 128.942 24.0936C129.243 23.9082 129.521 23.746 129.776 23.6301C130.054 23.5142 130.309 23.3984 130.587 23.3288C130.865 23.2593 131.166 23.1666 131.491 23.0739C131.954 22.958 132.441 22.8653 132.928 22.819C133.414 22.7727 133.901 22.7495 134.388 22.7263C134.874 22.7031 135.384 22.7031 135.894 22.68C136.404 22.6568 136.914 22.6336 137.447 22.5641C138.42 22.4482 139.301 22.2396 140.042 21.9152C140.807 21.5908 141.456 21.0809 141.989 20.3394L142.29 20.5016Z" fill="#D3AF4A"/>
<path d="M150.424 26.6195C150.424 26.8976 150.331 27.1757 150.123 27.477C149.914 27.7782 149.683 28.0563 149.381 28.3344C149.08 28.6125 148.779 28.8674 148.454 29.0991C148.13 29.3309 147.852 29.5395 147.597 29.7017C147.064 30.0493 146.508 30.3737 145.905 30.6518C145.326 30.9299 144.677 31.1617 143.982 31.3239C143.912 31.5093 143.866 31.7178 143.843 31.9032C143.819 32.1118 143.796 32.2277 143.796 32.2972C143.796 33.0156 143.959 33.5254 144.283 33.8499C144.607 34.1743 145.094 34.3134 145.72 34.3134C146.276 34.3134 146.832 34.1743 147.388 33.9194C147.944 33.6413 148.454 33.3864 148.895 33.1083L149.08 33.4096C148.825 33.6181 148.501 33.8499 148.153 34.0816C147.782 34.3134 147.411 34.5219 146.994 34.7305C146.577 34.9391 146.16 35.1013 145.743 35.2172C145.326 35.333 144.885 35.4025 144.468 35.4025C143.68 35.4025 143.055 35.2172 142.591 34.8464C142.128 34.4756 141.896 33.8962 141.896 33.1083C141.896 31.4397 142.638 29.9102 144.144 28.4734C144.468 28.1722 144.839 27.8709 145.256 27.5465C145.673 27.222 146.091 26.9671 146.554 26.7122C146.994 26.4573 147.481 26.2719 147.944 26.1097C148.431 25.9475 148.895 25.8779 149.381 25.8779C150.077 25.9243 150.424 26.156 150.424 26.6195ZM148.477 27.4306C148.477 27.1062 148.269 26.9671 147.875 26.9671C147.574 26.9671 147.249 27.083 146.878 27.2916C146.531 27.5001 146.183 27.8014 145.859 28.1258C145.534 28.4734 145.233 28.8442 144.955 29.2845C144.677 29.7017 144.468 30.142 144.329 30.5591C144.723 30.4896 145.164 30.3506 145.65 30.1652C146.137 29.9566 146.577 29.7249 146.994 29.4236C147.411 29.1455 147.759 28.8211 148.037 28.4734C148.338 28.1258 148.477 27.7782 148.477 27.4306Z" fill="#D3AF4A"/>
<path d="M160.482 25.994C160.482 26.2026 160.319 26.5038 160.018 26.8978C159.717 27.2917 159.323 27.7321 158.859 28.1955C158.419 28.659 157.932 29.1457 157.423 29.6555C156.913 30.1422 156.449 30.6057 156.055 31.0228L156.241 31.9498C156.31 32.2279 156.357 32.4828 156.403 32.6913C156.449 32.8999 156.496 33.0853 156.542 33.2475C156.635 33.5256 156.727 33.711 156.797 33.8501C156.936 34.0355 157.121 34.1282 157.353 34.1282C157.701 34.1282 158.095 33.9659 158.581 33.6183C158.952 33.3634 159.346 33.039 159.786 32.6218L159.949 33.0621C158.465 34.638 157.168 35.4259 156.102 35.4259C155.685 35.4259 155.383 35.032 155.152 34.2209C155.012 33.711 154.85 32.9694 154.665 32.0193C154.479 32.2047 154.294 32.4133 154.086 32.6218C153.877 32.8304 153.645 33.039 153.413 33.2707C152.556 34.0586 151.907 34.6148 151.444 34.9393C150.98 35.2869 150.586 35.4491 150.215 35.4491C150.053 35.4491 149.937 35.3796 149.845 35.2637C149.752 35.1478 149.706 34.9393 149.706 34.638C149.706 34.4526 149.729 34.244 149.798 33.9659C150.215 33.9659 150.887 33.7574 151.768 33.3171C152.788 32.8072 153.715 32.1815 154.526 31.3936L154.086 28.7054C153.993 28.126 153.877 27.7552 153.738 27.593C153.599 27.4308 153.367 27.3613 153.043 27.3613C152.695 27.3613 152.324 27.4308 151.93 27.5698C151.536 27.7089 151.166 27.8711 150.818 28.0101L150.725 27.6162C150.911 27.5003 151.189 27.3613 151.56 27.1759C151.93 26.9905 152.324 26.8051 152.741 26.6197C153.159 26.4343 153.553 26.2953 153.923 26.1562C154.294 26.0172 154.595 25.9708 154.781 25.9708C155.036 25.9708 155.198 26.1099 155.267 26.3648C155.36 26.6197 155.43 27.0832 155.522 27.7321L155.916 30.4203C156.565 29.7946 157.191 29.1457 157.77 28.4505C158.35 27.7552 158.836 26.9441 159.277 26.0635C159.392 26.0172 159.508 25.9708 159.67 25.9013C159.833 25.8318 160.041 25.8086 160.273 25.8086C160.343 25.8086 160.412 25.8318 160.435 25.8549C160.482 25.8086 160.482 25.8781 160.482 25.994Z" fill="#D3AF4A"/>
<path d="M171.536 26.1094C171.466 26.2253 171.397 26.3644 171.327 26.5266C171.234 26.6888 171.165 26.851 171.072 27.0132C170.98 27.1755 170.91 27.3377 170.841 27.4767C170.771 27.6158 170.725 27.7085 170.701 27.778C170.539 28.1256 170.331 28.6123 170.076 29.1916C169.821 29.771 169.52 30.4894 169.149 31.3237C168.94 31.8103 168.755 32.2506 168.593 32.6214C168.43 33.0154 168.361 33.2935 168.361 33.4789C168.361 33.6179 168.384 33.6874 168.43 33.7338C168.477 33.7569 168.546 33.7801 168.662 33.7801C168.778 33.7801 168.963 33.7338 169.172 33.6179C169.381 33.502 169.589 33.3862 169.821 33.2471C170.076 33.0849 170.308 32.9227 170.586 32.7141L170.771 33.1544C170.609 33.2935 170.354 33.4789 170.029 33.7338C169.705 33.9887 169.357 34.2436 168.963 34.4754C168.593 34.7303 168.199 34.9388 167.805 35.1242C167.411 35.3096 167.063 35.4023 166.785 35.4023C166.576 35.4023 166.461 35.356 166.391 35.2633C166.322 35.1706 166.298 35.0779 166.298 34.9388C166.298 34.7998 166.322 34.6607 166.368 34.4522C166.414 34.2436 166.484 34.035 166.576 33.8033C166.669 33.5716 166.762 33.3398 166.855 33.0849C166.947 32.83 167.04 32.5982 167.133 32.3897L167.967 30.4199C167.619 30.5357 167.318 30.6053 167.086 30.6516C166.855 30.6979 166.6 30.7443 166.275 30.7675C165.835 30.837 165.441 30.8833 165.093 30.8833C164.746 30.9065 164.444 30.9065 164.12 30.9529L162.892 33.8728C162.822 34.0814 162.729 34.2436 162.637 34.3363C162.567 34.4058 162.405 34.5449 162.15 34.7303C161.895 34.9157 161.663 35.0779 161.432 35.1938C161.223 35.3096 161.061 35.356 160.899 35.356C160.76 35.356 160.69 35.3328 160.667 35.2864C160.644 35.2401 160.644 35.1706 160.644 35.1011C160.644 35.0315 160.69 34.8693 160.806 34.6144C160.922 34.3595 161.084 34.0119 161.293 33.5947C161.501 33.1312 161.687 32.7373 161.872 32.3897C162.034 32.0652 162.15 31.7871 162.266 31.509C162.382 31.231 162.451 31.0919 162.475 31.0456C162.312 31.0687 162.127 31.0919 161.965 31.1151C161.779 31.1383 161.617 31.1614 161.432 31.1846L161.524 30.8602C161.965 30.6748 162.382 30.5357 162.753 30.443C162.845 30.2345 162.961 29.9564 163.077 29.6551C163.193 29.3538 163.309 29.0526 163.425 28.7513C163.541 28.45 163.61 28.1951 163.68 27.9634C163.749 27.7316 163.772 27.5694 163.772 27.4536C163.772 27.2913 163.703 27.2218 163.564 27.2218C163.448 27.2218 163.286 27.2682 163.077 27.3377C162.869 27.4072 162.683 27.4999 162.475 27.5926C162.243 27.7085 162.011 27.8243 161.733 27.9634L161.594 27.5694C161.849 27.4304 162.15 27.2682 162.544 27.0828C162.938 26.8974 163.309 26.712 163.726 26.5266C164.12 26.3644 164.514 26.2021 164.862 26.0863C165.232 25.9704 165.51 25.9009 165.719 25.9009C165.789 25.9009 165.858 25.9241 165.904 25.9472C165.951 25.9704 165.974 26.0631 165.974 26.179C165.974 26.2253 165.951 26.318 165.928 26.4571C165.881 26.5729 165.835 26.7351 165.788 26.8974C165.719 27.0596 165.649 27.245 165.58 27.4304C165.51 27.6158 165.441 27.8012 165.371 27.9634L164.468 30.0722C164.838 30.0259 165.209 29.9795 165.557 29.9564C165.928 29.9332 166.275 29.91 166.623 29.8637C166.994 29.8405 167.295 29.8173 167.55 29.771C167.805 29.7478 168.013 29.7246 168.222 29.6783L168.871 28.1024C169.033 27.6853 169.195 27.3377 169.357 27.0596C169.52 26.7815 169.705 26.5729 169.937 26.4107C170.192 26.2485 170.423 26.1326 170.678 26.0399C170.933 25.9472 171.119 25.9009 171.304 25.9009C171.35 25.9009 171.397 25.9009 171.443 25.9241C171.489 25.9472 171.536 26.0167 171.536 26.1094Z" fill="#D3AF4A"/>
<path d="M181.547 27.8012C181.547 28.6354 181.362 29.4465 180.968 30.2345C180.574 31.0456 180.087 31.7871 179.508 32.4824C178.627 33.502 177.77 34.2436 176.935 34.7071C176.078 35.1706 175.197 35.4023 174.293 35.4023C172.857 35.4023 172.138 34.6839 172.138 33.2703C172.138 32.7373 172.231 32.2043 172.439 31.6249C172.648 31.0456 172.903 30.4894 173.251 29.9564C173.598 29.4234 174.015 28.8904 174.479 28.4037C174.942 27.917 175.475 27.4767 176.008 27.1059C176.564 26.7352 177.144 26.4339 177.746 26.2253C178.349 26.0167 178.975 25.9009 179.6 25.9009C180.226 25.9009 180.713 26.0631 181.06 26.4107C181.362 26.7583 181.547 27.2218 181.547 27.8012ZM179.67 28.5659C179.67 27.9402 179.577 27.5231 179.369 27.2682C179.16 27.0364 178.836 26.8974 178.326 26.8974C177.213 26.8974 176.24 27.5462 175.336 28.8672C174.432 30.1649 173.992 31.5322 173.992 32.969C173.992 33.4325 174.108 33.7801 174.317 34.0814C174.525 34.3595 174.873 34.4985 175.383 34.4985C175.8 34.4985 176.194 34.3827 176.564 34.1741C176.935 33.9655 177.283 33.6874 177.607 33.3398C177.932 32.9922 178.21 32.5982 178.465 32.1811C178.72 31.7408 178.928 31.3237 179.114 30.8833C179.299 30.443 179.438 30.0259 179.531 29.6088C179.6 29.2148 179.67 28.8672 179.67 28.5659Z" fill="#D3AF4A"/>
<path d="M191.558 26.2024C191.558 26.3415 191.419 26.6427 191.164 27.083C190.91 27.5233 190.631 28.0332 190.353 28.6125C190.214 28.8906 190.029 29.2846 189.797 29.7481C189.565 30.2116 189.334 30.6982 189.102 31.208C188.87 31.6947 188.685 32.1582 188.523 32.5753C188.36 32.9925 188.268 33.2706 188.268 33.4328C188.268 33.6182 188.384 33.7109 188.592 33.7109C188.754 33.7109 188.893 33.6877 189.056 33.6182C189.218 33.5486 189.357 33.5023 189.496 33.4328C189.658 33.3401 189.797 33.2474 189.959 33.1547L190.145 33.595C189.983 33.734 189.751 33.8963 189.473 34.1048C189.195 34.3134 188.893 34.522 188.546 34.7074C188.221 34.9159 187.874 35.0781 187.526 35.2172C187.178 35.3562 186.854 35.4258 186.576 35.4258C186.228 35.4258 186.043 35.2635 186.043 34.9159C186.043 34.7537 186.089 34.522 186.182 34.2207C186.275 33.9194 186.414 33.5718 186.553 33.201C186.715 32.8302 186.877 32.4363 187.063 32.0191C187.248 31.602 187.433 31.208 187.619 30.8373C187.804 30.4665 187.966 30.1189 188.129 29.8176C188.291 29.5163 188.407 29.2846 188.499 29.0992C188.754 28.5662 188.94 28.1722 189.079 27.9173C189.195 27.6392 189.264 27.4538 189.264 27.3611C189.264 27.2684 189.195 27.2452 189.079 27.2452C188.685 27.2452 188.175 27.477 187.503 27.9637C186.831 28.4503 186.089 29.1224 185.278 29.9798C184.699 30.6055 184.189 31.2544 183.749 31.9264C183.308 32.6217 183.1 33.3401 183.1 34.1048C183.1 34.267 183.1 34.3597 183.123 34.4061C182.914 34.6842 182.659 34.9391 182.358 35.1477C182.057 35.3562 181.802 35.4489 181.57 35.4489C181.385 35.4489 181.246 35.4026 181.13 35.3099C181.014 35.2172 180.968 35.055 180.968 34.7769C180.968 34.2902 181.339 33.5486 182.103 32.5058C182.636 31.7874 183.285 31.0227 184.05 30.2347C184.815 29.4468 185.626 28.7052 186.506 27.9868C186.715 27.8246 186.947 27.6624 187.202 27.477C187.48 27.3148 187.735 27.1526 188.013 26.9903C188.291 26.8281 188.546 26.7122 188.801 26.5732C189.056 26.4573 189.264 26.3646 189.45 26.2951C189.704 26.1792 190.029 26.0865 190.4 26.017C190.771 25.9475 191.049 25.9243 191.234 25.9243C191.304 25.9243 191.373 25.9243 191.443 25.9475C191.512 25.9707 191.558 26.0634 191.558 26.2024Z" fill="#D3AF4A"/>
<path d="M201.106 27.8012C201.106 28.6354 200.921 29.4465 200.527 30.2345C200.133 31.0456 199.646 31.7871 199.067 32.4824C198.186 33.502 197.329 34.2436 196.495 34.7071C195.637 35.1706 194.757 35.4023 193.853 35.4023C192.416 35.4023 191.698 34.6839 191.698 33.2703C191.698 32.7373 191.79 32.2043 191.999 31.6249C192.207 31.0456 192.462 30.4894 192.81 29.9564C193.157 29.4234 193.575 28.8904 194.038 28.4037C194.502 27.917 195.035 27.4767 195.568 27.1059C196.124 26.7352 196.703 26.4339 197.306 26.2253C197.908 26.0167 198.534 25.9009 199.16 25.9009C199.785 25.9009 200.272 26.0631 200.62 26.4107C200.921 26.7583 201.106 27.2218 201.106 27.8012ZM199.229 28.5659C199.229 27.9402 199.136 27.5231 198.928 27.2682C198.719 27.0364 198.395 26.8974 197.885 26.8974C196.773 26.8974 195.799 27.5462 194.896 28.8672C193.992 30.1649 193.551 31.5322 193.551 32.969C193.551 33.4325 193.667 33.7801 193.876 34.0814C194.084 34.3595 194.432 34.4985 194.942 34.4985C195.359 34.4985 195.753 34.3827 196.124 34.1741C196.495 33.9655 196.842 33.6874 197.167 33.3398C197.491 32.9922 197.769 32.5982 198.024 32.1811C198.279 31.7408 198.488 31.3237 198.673 30.8833C198.858 30.443 198.997 30.0259 199.09 29.6088C199.16 29.2148 199.229 28.8672 199.229 28.5659Z" fill="#D3AF4A"/>
<path d="M207.688 26.573C207.688 27.0365 207.479 27.5463 207.062 28.1488C206.645 28.7514 206.019 29.5393 205.208 30.5126C204.814 30.9761 204.513 31.3469 204.281 31.6481C204.049 31.9494 203.864 32.2275 203.748 32.4361C203.632 32.6446 203.54 32.83 203.493 32.9922C203.447 33.1545 203.424 33.2703 203.424 33.4094C203.424 33.6179 203.493 33.7802 203.632 33.8497C203.771 33.9192 203.91 33.9656 204.026 33.9656C204.235 33.9656 204.42 33.9424 204.629 33.8729C204.837 33.8033 205.023 33.7106 205.231 33.5948C205.44 33.4789 205.625 33.363 205.787 33.224C205.973 33.0849 206.135 32.9691 206.274 32.8532L206.506 33.1313C206.181 33.4094 205.857 33.7106 205.532 33.9887C205.208 34.2668 204.884 34.5217 204.536 34.7535C204.188 34.9621 203.841 35.1474 203.493 35.2865C203.146 35.4255 202.775 35.4951 202.381 35.4951C202.01 35.4951 201.755 35.4255 201.616 35.2865C201.477 35.1474 201.407 34.962 201.407 34.7303C201.407 34.5449 201.454 34.3363 201.57 34.1046C201.686 33.8729 201.848 33.6179 202.08 33.2935C202.311 32.9691 202.613 32.5983 202.983 32.158C203.354 31.7177 203.794 31.2078 204.304 30.5821C204.629 30.1882 204.884 29.8637 205.069 29.5624C205.254 29.2844 205.417 29.0063 205.509 28.7977C205.602 28.566 205.672 28.3806 205.695 28.1952C205.718 28.0329 205.718 27.8476 205.718 27.6853C205.718 27.4999 205.648 27.3609 205.532 27.2914C205.417 27.2219 205.254 27.1987 205.092 27.1987C204.93 27.1987 204.768 27.245 204.559 27.3145C204.351 27.3841 204.165 27.4768 203.957 27.5926C203.748 27.7085 203.539 27.8476 203.331 27.9866C203.122 28.1488 202.937 28.2879 202.752 28.4501L202.52 28.172C202.821 27.9402 203.122 27.6853 203.47 27.4304C203.818 27.1755 204.165 26.9206 204.559 26.712C204.93 26.5034 205.324 26.3181 205.741 26.1558C206.135 26.0168 206.552 25.9473 206.946 25.9473C207.108 25.9473 207.271 25.9936 207.433 26.0631C207.618 26.1095 207.688 26.2949 207.688 26.573Z" fill="#D3AF4A"/>
<path d="M219.344 26.1095C219.344 26.1327 219.252 26.3413 219.066 26.7121C218.881 27.0829 218.672 27.5463 218.441 28.1025L217.027 31.3933C216.957 31.5555 216.888 31.7177 216.795 31.9263C216.703 32.1348 216.61 32.3202 216.54 32.5288C216.471 32.7374 216.401 32.9228 216.332 33.085C216.262 33.2704 216.239 33.4094 216.239 33.5021C216.239 33.6875 216.332 33.7802 216.54 33.7802C216.656 33.7802 216.842 33.7107 217.143 33.5485C217.444 33.3863 217.884 33.1082 218.441 32.7142L218.626 33.1545C217.653 33.9424 216.865 34.5218 216.216 34.8694C215.567 35.2402 215.057 35.4256 214.663 35.4256C214.339 35.4256 214.177 35.2634 214.177 34.9621C214.177 34.7999 214.2 34.6145 214.246 34.4059C214.292 34.1974 214.362 33.9888 214.455 33.757C214.547 33.5253 214.64 33.2936 214.733 33.0618C214.825 32.8301 214.918 32.5983 215.011 32.3898C215.289 31.7641 215.521 31.2542 215.706 30.8371C215.891 30.42 216.054 30.0723 216.17 29.8174C216.285 29.5393 216.401 29.3308 216.471 29.1685C216.54 29.0063 216.61 28.8441 216.679 28.7282H216.471L215.845 29.4003C215.405 29.8869 214.918 30.3968 214.408 30.953C213.898 31.5091 213.365 32.0422 212.856 32.552C212.346 33.085 211.813 33.5485 211.326 34.012C210.816 34.4523 210.353 34.8231 209.959 35.1243C209.843 35.217 209.704 35.2865 209.542 35.3329C209.379 35.3792 209.217 35.4256 209.078 35.4256C208.916 35.4256 208.777 35.3792 208.707 35.2865C208.615 35.1939 208.592 35.078 208.592 34.9389C208.592 34.8231 208.615 34.6608 208.661 34.4523C208.707 34.2437 208.8 33.9888 208.916 33.7107C209.194 33.0618 209.472 32.3898 209.797 31.6945C210.098 30.9993 210.376 30.3736 210.631 29.7942C210.886 29.2149 211.094 28.7051 211.257 28.2879C211.419 27.8708 211.488 27.5695 211.488 27.4536C211.488 27.3378 211.419 27.2683 211.303 27.2683C211.094 27.2683 210.747 27.3841 210.214 27.639L209.449 28.033L209.31 27.639C209.565 27.4768 209.866 27.3146 210.214 27.1292C210.585 26.9438 210.932 26.7584 211.326 26.5962C211.697 26.434 212.068 26.2949 212.415 26.1791C212.763 26.0632 213.064 25.9937 213.342 25.9937C213.528 25.9937 213.62 26.0864 213.62 26.2718C213.62 26.3876 213.551 26.6425 213.389 27.0597C213.226 27.4768 213.041 27.9171 212.832 28.427C212.624 28.9368 212.415 29.4235 212.184 29.9101C211.952 30.3968 211.79 30.7444 211.697 30.9993C211.21 32.1117 210.955 32.7142 210.955 32.8301C210.955 33.0155 211.025 33.1082 211.141 33.1082C211.257 33.1082 211.465 32.9923 211.743 32.7837C212.021 32.5752 212.346 32.2739 212.693 31.9495C213.041 31.6018 213.412 31.2311 213.806 30.8139C214.2 30.3968 214.547 29.9796 214.918 29.6089C215.266 29.2149 215.59 28.8673 215.868 28.5428C216.146 28.2184 216.332 27.9867 216.471 27.8244L217.12 27.0829C217.236 26.967 217.328 26.8743 217.444 26.7816C217.56 26.6889 217.653 26.6194 217.769 26.5498C218.278 26.2022 218.765 26.04 219.182 26.04C219.275 25.9241 219.344 25.9937 219.344 26.1095Z" fill="#D3AF4A"/>
<path d="M230.769 26.1095C230.769 26.1327 230.677 26.3413 230.491 26.7121C230.306 27.0829 230.097 27.5463 229.865 28.1025L228.452 31.3933C228.382 31.5555 228.313 31.7177 228.22 31.9263C228.127 32.1348 228.035 32.3202 227.965 32.5288C227.896 32.7374 227.826 32.9228 227.757 33.085C227.687 33.2704 227.664 33.4094 227.664 33.5021C227.664 33.6875 227.757 33.7802 227.965 33.7802C228.081 33.7802 228.266 33.7107 228.568 33.5485C228.869 33.3863 229.309 33.1082 229.865 32.7142L230.051 33.1545C229.077 33.9424 228.29 34.5218 227.641 34.8694C226.992 35.2402 226.482 35.4256 226.088 35.4256C225.764 35.4256 225.601 35.2634 225.601 34.9621C225.601 34.7999 225.625 34.6145 225.671 34.4059C225.717 34.1974 225.787 33.9888 225.879 33.757C225.972 33.5253 226.065 33.2936 226.158 33.0618C226.25 32.8301 226.343 32.5983 226.436 32.3898C226.714 31.7641 226.945 31.2542 227.131 30.8371C227.316 30.42 227.478 30.0723 227.594 29.8174C227.71 29.5393 227.826 29.3308 227.896 29.1685C227.965 29.0063 228.035 28.8441 228.104 28.7282H227.896L227.27 29.4003C226.83 29.8869 226.343 30.3968 225.833 30.953C225.323 31.5091 224.79 32.0422 224.28 32.552C223.771 33.085 223.238 33.5485 222.751 34.012C222.241 34.4523 221.778 34.8231 221.384 35.1243C221.268 35.217 221.129 35.2865 220.966 35.3329C220.804 35.3792 220.642 35.4256 220.503 35.4256C220.341 35.4256 220.202 35.3792 220.132 35.2865C220.04 35.1939 220.016 35.078 220.016 34.9389C220.016 34.8231 220.04 34.6608 220.086 34.4523C220.132 34.2437 220.225 33.9888 220.341 33.7107C220.619 33.0618 220.897 32.3898 221.221 31.6945C221.523 30.9993 221.801 30.3736 222.056 29.7942C222.311 29.2149 222.519 28.7051 222.681 28.2879C222.844 27.8708 222.913 27.5695 222.913 27.4536C222.913 27.3378 222.844 27.2683 222.728 27.2683C222.519 27.2683 222.172 27.3841 221.639 27.639L220.874 28.033L220.735 27.639C220.99 27.4768 221.291 27.3146 221.639 27.1292C222.009 26.9438 222.357 26.7584 222.751 26.5962C223.122 26.434 223.492 26.2949 223.84 26.1791C224.188 26.0632 224.489 25.9937 224.767 25.9937C224.952 25.9937 225.045 26.0864 225.045 26.2718C225.045 26.3876 224.976 26.6425 224.813 27.0597C224.651 27.4768 224.466 27.9171 224.257 28.427C224.049 28.9368 223.84 29.4235 223.608 29.9101C223.377 30.3968 223.214 30.7444 223.122 30.9993C222.635 32.1117 222.38 32.7142 222.38 32.8301C222.38 33.0155 222.45 33.1082 222.566 33.1082C222.681 33.1082 222.89 32.9923 223.168 32.7837C223.446 32.5752 223.771 32.2739 224.118 31.9495C224.466 31.6018 224.837 31.2311 225.231 30.8139C225.625 30.3968 225.972 29.9796 226.343 29.6089C226.691 29.2149 227.015 28.8673 227.293 28.5428C227.571 28.2184 227.757 27.9867 227.896 27.8244L228.544 27.0829C228.66 26.967 228.753 26.8743 228.869 26.7816C228.985 26.6889 229.077 26.6194 229.193 26.5498C229.703 26.2022 230.19 26.04 230.607 26.04C230.7 25.9241 230.769 25.9937 230.769 26.1095Z" fill="#D3AF4A"/>
<path d="M60.5566 55.9293C60.0908 55.9293 59.6563 55.8458 59.2531 55.679C58.8568 55.5121 58.5092 55.2688 58.2102 54.949C57.9182 54.6292 57.6853 54.2364 57.5115 53.7706C57.3447 53.2978 57.2612 52.759 57.2612 52.1542C57.2612 51.5493 57.3516 51.014 57.5324 50.5482C57.7201 50.0754 57.9669 49.6792 58.2728 49.3594C58.5787 49.0396 58.9333 48.7997 59.3365 48.6398C59.7397 48.4729 60.1603 48.3895 60.5983 48.3895C60.8695 48.3895 61.1163 48.4069 61.3387 48.4417C61.5612 48.4764 61.7559 48.5216 61.9227 48.5772C62.0896 48.6259 62.2321 48.678 62.3503 48.7337C62.4685 48.7823 62.5589 48.8275 62.6214 48.8692L62.392 49.4845C62.2182 49.3802 61.9957 49.2794 61.7246 49.1821C61.4604 49.0778 61.1302 49.0256 60.7339 49.0256C60.282 49.0256 59.8857 49.1021 59.5451 49.2551C59.2113 49.408 58.9298 49.6235 58.7004 49.9016C58.4709 50.1797 58.2971 50.51 58.1789 50.8923C58.0677 51.2747 58.0121 51.6988 58.0121 52.1646C58.0121 52.6443 58.0677 53.0788 58.1789 53.4681C58.2971 53.8505 58.4675 54.1773 58.6899 54.4484C58.9124 54.7196 59.1835 54.9281 59.5033 55.0741C59.8301 55.2201 60.202 55.2931 60.6192 55.2931C61.078 55.2931 61.4604 55.2514 61.7663 55.168C62.0792 55.0776 62.3155 54.9872 62.4754 54.8968L62.6736 55.5017C62.6249 55.5364 62.5415 55.5782 62.4233 55.6268C62.3051 55.6685 62.1556 55.7137 61.9749 55.7624C61.7941 55.8111 61.5855 55.8493 61.3492 55.8771C61.1128 55.9119 60.8486 55.9293 60.5566 55.9293Z" fill="#D3AF4A"/>
<path d="M67.6414 51.2469C67.4328 51.4972 67.1895 51.8135 66.9114 52.1959C66.6403 52.5783 66.3622 52.9815 66.0772 53.4056C65.7991 53.8297 65.5314 54.2503 65.2742 54.6674C65.0169 55.0845 64.7945 55.453 64.6067 55.7728H63.9706V50.3813H64.638V54.6987C64.8049 54.3998 65.01 54.0556 65.2533 53.6663C65.5036 53.27 65.7678 52.8737 66.0459 52.4774C66.324 52.0742 66.6021 51.6884 66.8801 51.3199C67.1652 50.9514 67.4294 50.6386 67.6727 50.3813H68.3088V55.7728H67.6414V51.2469Z" fill="#D3AF4A"/>
<path d="M71.8012 50.9549V51.1739C71.8012 51.3825 71.7977 51.6119 71.7908 51.8622C71.7838 52.1055 71.7699 52.3558 71.7491 52.613C71.7282 52.8703 71.6935 53.1275 71.6448 53.3847C71.6031 53.635 71.5475 53.8714 71.4779 54.0939C71.4015 54.3233 71.3041 54.5423 71.1859 54.7508C71.0747 54.9525 70.9391 55.1332 70.7792 55.2931C70.6263 55.4461 70.4455 55.5747 70.237 55.679C70.0353 55.7763 69.8059 55.8389 69.5487 55.8667L69.4548 55.3035C69.8024 55.2271 70.0805 55.0846 70.2891 54.876C70.5046 54.6674 70.6819 54.3719 70.8209 53.9896C70.96 53.6072 71.0469 53.1692 71.0817 52.6756C71.1234 52.175 71.1442 51.6293 71.1442 51.0383V50.3813H74.4605V55.7728H73.7826V50.9549H71.8012Z" fill="#D3AF4A"/>
<path d="M76.3592 50.3813H77.0371V52.54C77.1622 52.5053 77.3465 52.4705 77.5898 52.4357C77.8401 52.394 78.0973 52.3732 78.3615 52.3732C78.6535 52.3732 78.9281 52.4044 79.1853 52.467C79.4426 52.5296 79.6685 52.6304 79.8632 52.7694C80.0579 52.9085 80.2108 53.0892 80.322 53.3117C80.4402 53.5342 80.4993 53.8053 80.4993 54.1251C80.4993 54.4449 80.4402 54.7161 80.322 54.9386C80.2108 55.161 80.0544 55.3453 79.8528 55.4913C79.6581 55.6303 79.4217 55.7311 79.1436 55.7937C78.8725 55.8563 78.5805 55.8875 78.2676 55.8875C78.0799 55.8875 77.8887 55.8806 77.6941 55.8667C77.5064 55.8528 77.3291 55.8354 77.1622 55.8145C76.9954 55.7937 76.8424 55.7693 76.7034 55.7415C76.5643 55.7137 76.4496 55.6824 76.3592 55.6477V50.3813ZM78.2676 55.2827C78.7334 55.2827 79.1054 55.1958 79.3835 55.022C79.6616 54.8412 79.8006 54.5423 79.8006 54.1251C79.8006 53.9305 79.7624 53.7601 79.6859 53.6141C79.6094 53.4681 79.5052 53.35 79.3731 53.2596C79.2479 53.1622 79.095 53.0927 78.9142 53.051C78.7404 53.0023 78.5492 52.978 78.3406 52.978C78.1112 52.978 77.8818 52.9884 77.6524 53.0093C77.4229 53.0302 77.2179 53.0719 77.0371 53.1344V55.1784C77.1275 55.1993 77.2874 55.2236 77.5168 55.2514C77.7462 55.2723 77.9965 55.2827 78.2676 55.2827Z" fill="#D3AF4A"/>
<path d="M86.086 55.7728H85.4082V53.2596H82.4778V55.7728H81.7999V50.3813H82.4778V52.686H85.4082V50.3813H86.086V55.7728Z" fill="#D3AF4A"/>
<path d="M87.9841 50.3813H88.6619V52.54C88.7871 52.5053 88.9713 52.4705 89.2146 52.4357C89.458 52.394 89.7013 52.3732 89.9446 52.3732C90.2158 52.3732 90.4765 52.4044 90.7268 52.467C90.984 52.5296 91.2065 52.6304 91.3942 52.7694C91.5888 52.9085 91.7418 53.0892 91.853 53.3117C91.9712 53.5342 92.0303 53.8053 92.0303 54.1251C92.0303 54.4449 91.9712 54.7161 91.853 54.9386C91.7418 55.161 91.5888 55.3453 91.3942 55.4913C91.1995 55.6303 90.9666 55.7311 90.6955 55.7937C90.4313 55.8563 90.1497 55.8875 89.8508 55.8875C89.67 55.8875 89.4858 55.8806 89.2981 55.8667C89.1173 55.8528 88.9435 55.8354 88.7766 55.8145C88.6167 55.7937 88.4673 55.7693 88.3282 55.7415C88.1892 55.7137 88.0745 55.6824 87.9841 55.6477V50.3813ZM89.8508 55.2827C90.2888 55.2827 90.6433 55.1923 90.9145 55.0116C91.1926 54.8308 91.3316 54.5353 91.3316 54.1251C91.3316 53.9305 91.2934 53.7601 91.2169 53.6141C91.1404 53.4681 91.0361 53.35 90.904 53.2596C90.7789 53.1622 90.6294 53.0927 90.4556 53.051C90.2888 53.0023 90.1115 52.978 89.9238 52.978C89.7082 52.978 89.4893 52.9884 89.2668 53.0093C89.0443 53.0302 88.8427 53.0719 88.6619 53.1344V55.1784C88.7523 55.1993 88.9087 55.2236 89.1312 55.2514C89.3537 55.2723 89.5935 55.2827 89.8508 55.2827ZM93.8448 55.7728H93.167V50.3813H93.8448V55.7728Z" fill="#D3AF4A"/>
<path d="M99.4175 51.2469C99.209 51.4972 98.9656 51.8135 98.6875 52.1959C98.4164 52.5783 98.1383 52.9815 97.8533 53.4056C97.5752 53.8297 97.3075 54.2503 97.0503 54.6674C96.7931 55.0845 96.5706 55.453 96.3829 55.7728H95.7467V50.3813H96.4142V54.6987C96.581 54.3998 96.7861 54.0556 97.0294 53.6663C97.2797 53.27 97.5439 52.8737 97.822 52.4774C98.1001 52.0742 98.3782 51.6884 98.6563 51.3199C98.9413 50.9514 99.2055 50.6386 99.4488 50.3813H100.085V55.7728H99.4175V51.2469ZM97.9158 49.4636C97.5265 49.4636 97.2067 49.3559 96.9564 49.1404C96.7062 48.9248 96.5462 48.6189 96.4767 48.2227L97.0294 48.0767C97.0711 48.313 97.1615 48.5077 97.3006 48.6607C97.4466 48.8066 97.6517 48.8796 97.9158 48.8796C98.18 48.8796 98.3816 48.8066 98.5207 48.6607C98.6667 48.5077 98.7605 48.313 98.8023 48.0767L99.355 48.2227C99.2854 48.6189 99.1255 48.9248 98.8753 49.1404C98.625 49.3559 98.3052 49.4636 97.9158 49.4636Z" fill="#D3AF4A"/>
<path d="M106.148 53.3326C105.995 53.5342 105.842 53.7462 105.689 53.9687C105.537 54.1912 105.387 54.4102 105.241 54.6257C105.102 54.8412 104.973 55.0498 104.855 55.2514C104.737 55.4461 104.636 55.6199 104.553 55.7728H103.854C104.139 55.2375 104.438 54.7404 104.751 54.2816C105.064 53.8158 105.384 53.3604 105.71 52.9154L103.958 50.3813H104.751L106.148 52.4462L107.567 50.3813H108.307L106.586 52.8737C106.732 53.0684 106.889 53.2804 107.056 53.5099C107.222 53.7393 107.389 53.9791 107.556 54.2294C107.723 54.4728 107.883 54.7265 108.036 54.9907C108.196 55.2549 108.342 55.5156 108.474 55.7728H107.744C107.66 55.6199 107.56 55.4461 107.441 55.2514C107.323 55.0498 107.191 54.8412 107.045 54.6257C106.906 54.4102 106.757 54.1912 106.597 53.9687C106.444 53.7462 106.294 53.5342 106.148 53.3326Z" fill="#D3AF4A"/>
<path d="M114.264 53.0823C114.264 53.5064 114.202 53.8922 114.077 54.2398C113.958 54.5875 113.788 54.8829 113.566 55.1263C113.35 55.3696 113.093 55.5608 112.794 55.6998C112.495 55.8319 112.165 55.898 111.803 55.898C111.442 55.898 111.111 55.8319 110.813 55.6998C110.514 55.5608 110.253 55.3696 110.03 55.1263C109.815 54.8829 109.645 54.5875 109.519 54.2398C109.401 53.8922 109.342 53.5064 109.342 53.0823C109.342 52.6582 109.401 52.2724 109.519 51.9247C109.645 51.5771 109.815 51.2817 110.03 51.0383C110.253 50.788 110.514 50.5969 110.813 50.4648C111.111 50.3257 111.442 50.2562 111.803 50.2562C112.165 50.2562 112.495 50.3257 112.794 50.4648C113.093 50.5969 113.35 50.788 113.566 51.0383C113.788 51.2817 113.958 51.5771 114.077 51.9247C114.202 52.2724 114.264 52.6582 114.264 53.0823ZM113.545 53.0823C113.545 52.4079 113.388 51.8726 113.076 51.4763C112.763 51.0731 112.339 50.8715 111.803 50.8715C111.268 50.8715 110.844 51.0731 110.531 51.4763C110.218 51.8726 110.062 52.4079 110.062 53.0823C110.062 53.7567 110.218 54.292 110.531 54.6883C110.844 55.0845 111.268 55.2827 111.803 55.2827C112.339 55.2827 112.763 55.0845 113.076 54.6883C113.388 54.292 113.545 53.7567 113.545 53.0823Z" fill="#D3AF4A"/>
<path d="M119.99 55.1993H120.605V57.2641H119.948V55.7728H115.756V57.2641H115.099V55.1993H115.652C115.881 54.8377 116.062 54.4901 116.194 54.1564C116.333 53.8227 116.437 53.4821 116.507 53.1344C116.583 52.7868 116.632 52.4218 116.653 52.0395C116.681 51.6501 116.694 51.226 116.694 50.7672V50.3813H119.99V55.1993ZM117.331 50.9549C117.331 51.3303 117.317 51.6988 117.289 52.0603C117.268 52.4218 117.223 52.7799 117.153 53.1344C117.084 53.489 116.986 53.8401 116.861 54.1877C116.736 54.5284 116.573 54.8656 116.371 55.1993H119.312V50.9549H117.331Z" fill="#D3AF4A"/>
<path d="M122.891 55.3244C122.891 55.4843 122.839 55.6199 122.735 55.7311C122.637 55.8423 122.498 55.898 122.318 55.898C122.137 55.898 121.994 55.8423 121.89 55.7311C121.793 55.6199 121.744 55.4843 121.744 55.3244C121.744 55.1645 121.793 55.0289 121.89 54.9177C121.994 54.8065 122.137 54.7508 122.318 54.7508C122.498 54.7508 122.637 54.8065 122.735 54.9177C122.839 55.0289 122.891 55.1645 122.891 55.3244Z" fill="#D3AF4A"/>
<path d="M129.426 53.2387C129.572 52.912 129.722 52.5574 129.874 52.175C130.027 51.7857 130.177 51.3859 130.323 50.9758C130.469 50.5586 130.604 50.145 130.73 49.7348C130.862 49.3176 130.976 48.9214 131.074 48.5459H131.825C131.686 49.0256 131.543 49.481 131.397 49.9121C131.258 50.3361 131.112 50.7498 130.959 51.153C130.813 51.5493 130.66 51.9421 130.5 52.3315C130.34 52.7138 130.173 53.0997 130 53.489C129.888 53.7393 129.767 54.0035 129.635 54.2816C129.503 54.5597 129.339 54.8169 129.144 55.0533C128.95 55.2827 128.71 55.4739 128.425 55.6268C128.147 55.7728 127.803 55.8458 127.393 55.8458C127.212 55.8458 127.052 55.825 126.913 55.7833C126.781 55.7485 126.683 55.7137 126.621 55.679L126.756 55.095C126.805 55.1228 126.885 55.1575 126.996 55.1993C127.107 55.234 127.253 55.2514 127.434 55.2514C127.671 55.2514 127.876 55.2166 128.049 55.1471C128.23 55.0706 128.383 54.9733 128.508 54.8551C128.64 54.7369 128.755 54.5979 128.852 54.438C128.95 54.2781 129.037 54.1112 129.113 53.9374C128.793 53.4508 128.494 52.9606 128.216 52.467C127.945 51.9734 127.695 51.4937 127.465 51.0279C127.243 50.5621 127.038 50.1206 126.85 49.7035C126.669 49.2794 126.51 48.8936 126.371 48.5459H127.163C127.399 49.1855 127.705 49.9155 128.081 50.7359C128.463 51.5563 128.912 52.3905 129.426 53.2387Z" fill="#D3AF4A"/>
<path d="M134.598 50.2666C134.807 50.2666 135.039 50.2805 135.297 50.3083C135.561 50.3292 135.808 50.3883 136.037 50.4856C136.267 50.576 136.458 50.722 136.611 50.9236C136.771 51.1183 136.851 51.3859 136.851 51.7266C136.851 51.9908 136.774 52.2272 136.621 52.4357C136.468 52.6374 136.26 52.7868 135.995 52.8842C136.385 52.9884 136.666 53.1553 136.84 53.3847C137.014 53.6141 137.101 53.8957 137.101 54.2294C137.101 54.5909 137.028 54.8829 136.882 55.1054C136.736 55.3209 136.541 55.4878 136.298 55.606C136.061 55.7172 135.79 55.7902 135.484 55.825C135.185 55.8597 134.88 55.8771 134.567 55.8771C134.191 55.8771 133.861 55.8528 133.576 55.8041C133.298 55.7554 133.058 55.7033 132.856 55.6477V50.4961C133.03 50.4404 133.26 50.3883 133.545 50.3396C133.83 50.291 134.181 50.2666 134.598 50.2666ZM133.534 52.6443H134.765C135.182 52.6443 135.519 52.5748 135.776 52.4357C136.034 52.2967 136.162 52.0638 136.162 51.737C136.162 51.5285 136.117 51.3651 136.027 51.2469C135.936 51.1287 135.818 51.0418 135.672 50.9862C135.526 50.9236 135.359 50.8854 135.172 50.8715C134.984 50.8506 134.796 50.8402 134.608 50.8402C134.379 50.8402 134.16 50.8541 133.951 50.8819C133.743 50.9028 133.604 50.9236 133.534 50.9445V52.6443ZM133.534 53.2074V55.1888C133.569 55.2027 133.625 55.2166 133.701 55.2305C133.785 55.2375 133.875 55.2479 133.972 55.2618C134.077 55.2688 134.184 55.2757 134.296 55.2827C134.414 55.2896 134.525 55.2931 134.629 55.2931C134.866 55.2931 135.092 55.2792 135.307 55.2514C135.523 55.2236 135.71 55.1715 135.87 55.095C136.03 55.0116 136.159 54.9038 136.256 54.7717C136.353 54.6327 136.402 54.4519 136.402 54.2294C136.402 54.0348 136.36 53.8714 136.277 53.7393C136.2 53.6072 136.089 53.5029 135.943 53.4264C135.804 53.35 135.637 53.2943 135.443 53.2596C135.255 53.2248 135.05 53.2074 134.827 53.2074H133.534Z" fill="#D3AF4A"/>
<path d="M138.33 53.0719C138.33 52.5991 138.396 52.1889 138.528 51.8413C138.667 51.4867 138.845 51.1913 139.06 50.9549C139.283 50.7185 139.533 50.5447 139.811 50.4335C140.096 50.3153 140.388 50.2562 140.687 50.2562C141.348 50.2562 141.872 50.4717 142.262 50.9028C142.658 51.3338 142.856 51.9977 142.856 52.8946C142.856 52.9502 142.853 53.0058 142.846 53.0614C142.846 53.1171 142.842 53.1692 142.835 53.2179H139.05C139.071 53.8783 139.234 54.3858 139.54 54.7404C139.846 55.095 140.333 55.2723 141 55.2723C141.368 55.2723 141.66 55.2375 141.876 55.168C142.091 55.0985 142.248 55.0394 142.345 54.9907L142.47 55.5747C142.373 55.6303 142.189 55.6964 141.918 55.7728C141.653 55.8493 141.341 55.8875 140.979 55.8875C140.506 55.8875 140.103 55.818 139.769 55.679C139.436 55.5399 139.161 55.3453 138.946 55.095C138.73 54.8447 138.574 54.5492 138.476 54.2086C138.379 53.861 138.33 53.4821 138.33 53.0719ZM142.158 52.6443C142.144 52.0812 142.012 51.6432 141.761 51.3303C141.511 51.0175 141.156 50.861 140.698 50.861C140.454 50.861 140.235 50.9097 140.041 51.007C139.853 51.1044 139.686 51.2365 139.54 51.4033C139.401 51.5632 139.29 51.7509 139.206 51.9665C139.13 52.182 139.085 52.4079 139.071 52.6443H142.158Z" fill="#D3AF4A"/>
<path d="M145.149 54.803C145.211 54.8516 145.288 54.9038 145.378 54.9594C145.476 55.015 145.587 55.0672 145.712 55.1158C145.837 55.1645 145.973 55.2062 146.119 55.241C146.265 55.2688 146.418 55.2827 146.578 55.2827C146.911 55.2827 147.189 55.2271 147.412 55.1158C147.641 54.9976 147.826 54.8412 147.965 54.6466C148.104 54.4449 148.204 54.212 148.267 53.9479C148.33 53.6767 148.361 53.3917 148.361 53.0927C148.361 52.3836 148.184 51.8413 147.829 51.4659C147.474 51.0835 147.005 50.8923 146.421 50.8923C146.087 50.8923 145.816 50.9097 145.608 50.9445C145.406 50.9723 145.253 51.0036 145.149 51.0383V54.803ZM145.149 57.7021H144.471V50.569C144.673 50.4995 144.93 50.4335 145.243 50.3709C145.556 50.3083 145.952 50.2771 146.432 50.2771C146.828 50.2771 147.186 50.3431 147.506 50.4752C147.832 50.6003 148.111 50.7846 148.34 51.0279C148.576 51.2712 148.757 51.5667 148.882 51.9143C149.014 52.2619 149.08 52.6547 149.08 53.0927C149.08 53.5029 149.025 53.8818 148.914 54.2294C148.809 54.5701 148.653 54.8656 148.444 55.1158C148.236 55.3592 147.978 55.5504 147.673 55.6894C147.374 55.8284 147.03 55.898 146.64 55.898C146.286 55.898 145.976 55.8493 145.712 55.752C145.455 55.6477 145.267 55.5504 145.149 55.46V57.7021Z" fill="#D3AF4A"/>
<path d="M150.332 53.0719C150.332 52.5991 150.398 52.1889 150.53 51.8413C150.669 51.4867 150.846 51.1913 151.062 50.9549C151.284 50.7185 151.535 50.5447 151.813 50.4335C152.098 50.3153 152.39 50.2562 152.689 50.2562C153.349 50.2562 153.874 50.4717 154.263 50.9028C154.66 51.3338 154.858 51.9977 154.858 52.8946C154.858 52.9502 154.854 53.0058 154.847 53.0614C154.847 53.1171 154.844 53.1692 154.837 53.2179H151.051C151.072 53.8783 151.236 54.3858 151.542 54.7404C151.848 55.095 152.334 55.2723 153.002 55.2723C153.37 55.2723 153.662 55.2375 153.878 55.168C154.093 55.0985 154.25 55.0394 154.347 54.9907L154.472 55.5747C154.375 55.6303 154.19 55.6964 153.919 55.7728C153.655 55.8493 153.342 55.8875 152.981 55.8875C152.508 55.8875 152.105 55.818 151.771 55.679C151.437 55.5399 151.163 55.3453 150.947 55.095C150.732 54.8447 150.575 54.5492 150.478 54.2086C150.381 53.861 150.332 53.4821 150.332 53.0719ZM154.159 52.6443C154.145 52.0812 154.013 51.6432 153.763 51.3303C153.513 51.0175 153.158 50.861 152.699 50.861C152.456 50.861 152.237 50.9097 152.042 51.007C151.854 51.1044 151.688 51.2365 151.542 51.4033C151.403 51.5632 151.291 51.7509 151.208 51.9665C151.131 52.182 151.086 52.4079 151.072 52.6443H154.159Z" fill="#D3AF4A"/>
<path d="M160.759 55.7728H160.081V53.2596H157.151V55.7728H156.473V50.3813H157.151V52.686H160.081V50.3813H160.759V55.7728Z" fill="#D3AF4A"/>
<path d="M166.943 55.7728H166.265V53.2596H163.335V55.7728H162.657V50.3813H163.335V52.686H166.265V50.3813H166.943V55.7728Z" fill="#D3AF4A"/>
<path d="M170.541 55.2827C170.805 55.2827 171.034 55.2757 171.229 55.2618C171.431 55.241 171.601 55.2166 171.74 55.1888V53.2909C171.664 53.2561 171.542 53.2213 171.375 53.1866C171.208 53.1449 170.979 53.124 170.687 53.124C170.52 53.124 170.346 53.1379 170.165 53.1657C169.985 53.1866 169.818 53.2387 169.665 53.3221C169.512 53.3986 169.387 53.5064 169.289 53.6454C169.192 53.7845 169.143 53.9687 169.143 54.1981C169.143 54.3998 169.175 54.5701 169.237 54.7091C169.307 54.8482 169.401 54.9594 169.519 55.0428C169.644 55.1263 169.79 55.1888 169.957 55.2305C170.131 55.2653 170.325 55.2827 170.541 55.2827ZM170.478 50.2562C170.833 50.2562 171.132 50.3083 171.375 50.4126C171.625 50.51 171.827 50.649 171.98 50.8298C172.133 51.0036 172.244 51.2121 172.314 51.4555C172.383 51.6988 172.418 51.963 172.418 52.248V55.6477C172.348 55.6685 172.248 55.6929 172.116 55.7207C171.983 55.7415 171.83 55.7659 171.657 55.7937C171.483 55.8215 171.288 55.8423 171.073 55.8563C170.864 55.8771 170.649 55.8875 170.426 55.8875C170.141 55.8875 169.877 55.8563 169.634 55.7937C169.397 55.7311 169.189 55.6338 169.008 55.5017C168.834 55.3626 168.695 55.1888 168.591 54.9803C168.493 54.7647 168.445 54.504 168.445 54.1981C168.445 53.9061 168.5 53.6559 168.612 53.4473C168.723 53.2387 168.879 53.0684 169.081 52.9363C169.282 52.7973 169.522 52.6964 169.8 52.6339C170.078 52.5713 170.381 52.54 170.708 52.54C170.805 52.54 170.906 52.547 171.01 52.5609C171.121 52.5678 171.226 52.5817 171.323 52.6026C171.427 52.6165 171.514 52.6339 171.584 52.6547C171.66 52.6686 171.712 52.6825 171.74 52.6964V52.3627C171.74 52.175 171.726 51.9943 171.698 51.8205C171.671 51.6397 171.608 51.4798 171.511 51.3408C171.42 51.1948 171.288 51.08 171.114 50.9966C170.948 50.9062 170.725 50.861 170.447 50.861C170.051 50.861 169.755 50.8889 169.561 50.9445C169.366 51.0001 169.223 51.0453 169.133 51.08L169.039 50.4856C169.157 50.43 169.338 50.3779 169.581 50.3292C169.832 50.2805 170.131 50.2562 170.478 50.2562Z" fill="#D3AF4A"/>
<path d="M175.649 53.5724C175.544 53.7323 175.43 53.9061 175.304 54.0939C175.186 54.2816 175.068 54.4728 174.95 54.6674C174.839 54.8621 174.731 55.0567 174.627 55.2514C174.522 55.4391 174.435 55.6129 174.366 55.7728H173.667C173.848 55.3626 174.067 54.949 174.324 54.5318C174.581 54.1147 174.821 53.7497 175.044 53.4369C174.905 53.3951 174.769 53.3361 174.637 53.2596C174.512 53.1831 174.397 53.0858 174.293 52.9676C174.196 52.8494 174.116 52.7103 174.053 52.5504C173.99 52.3836 173.959 52.1959 173.959 51.9873C173.959 51.6884 174.015 51.4311 174.126 51.2156C174.244 51.0001 174.401 50.8228 174.595 50.6838C174.797 50.5447 175.033 50.4404 175.304 50.3709C175.582 50.3014 175.878 50.2666 176.191 50.2666C176.33 50.2666 176.483 50.2736 176.65 50.2875C176.823 50.3014 176.994 50.3222 177.161 50.3501C177.334 50.3709 177.494 50.3952 177.64 50.4231C177.786 50.4509 177.908 50.4787 178.005 50.5065V55.7728H177.328V53.6037H176.358C176.205 53.6037 176.066 53.6037 175.941 53.6037C175.822 53.5968 175.725 53.5863 175.649 53.5724ZM177.328 50.9653C177.244 50.9445 177.109 50.9236 176.921 50.9028C176.733 50.8749 176.493 50.861 176.201 50.861C176.007 50.861 175.815 50.8819 175.628 50.9236C175.447 50.9584 175.284 51.0209 175.138 51.1113C174.992 51.2017 174.873 51.3199 174.783 51.4659C174.7 51.6049 174.658 51.7787 174.658 51.9873C174.658 52.1889 174.696 52.3593 174.773 52.4983C174.849 52.6304 174.957 52.7382 175.096 52.8216C175.235 52.8981 175.402 52.9537 175.596 52.9884C175.798 53.0232 176.02 53.0406 176.264 53.0406H177.328V50.9653Z" fill="#D3AF4A"/>
<path d="M183.634 55.2827C184.121 55.2827 184.503 55.2027 184.781 55.0428C185.059 54.876 185.199 54.6292 185.199 54.3024C185.199 54.066 185.146 53.8783 185.042 53.7393C184.938 53.6002 184.806 53.4925 184.646 53.416C184.493 53.3395 184.326 53.2909 184.145 53.27C183.971 53.2422 183.812 53.2283 183.666 53.2283H182.915V52.6547H183.613C183.739 52.6547 183.881 52.6443 184.041 52.6234C184.208 52.6026 184.361 52.5609 184.5 52.4983C184.639 52.4357 184.757 52.3488 184.854 52.2376C184.952 52.1194 185 51.9665 185 51.7787C185 51.598 184.959 51.4485 184.875 51.3303C184.799 51.2121 184.694 51.1183 184.562 51.0488C184.43 50.9792 184.277 50.9306 184.104 50.9028C183.937 50.8749 183.766 50.861 183.593 50.861C183.196 50.861 182.883 50.9028 182.654 50.9862C182.425 51.0627 182.268 51.1218 182.185 51.1635L182.028 50.5586C182.126 50.51 182.31 50.4509 182.581 50.3813C182.852 50.3049 183.189 50.2666 183.593 50.2666C184.281 50.2666 184.802 50.3918 185.157 50.642C185.511 50.8923 185.689 51.2643 185.689 51.7579C185.689 52.0638 185.598 52.3141 185.418 52.5087C185.237 52.6964 185.025 52.8285 184.781 52.905C185.122 53.0023 185.393 53.1657 185.595 53.3951C185.796 53.6246 185.897 53.927 185.897 54.3024C185.897 54.8377 185.706 55.2375 185.324 55.5017C184.941 55.7659 184.382 55.898 183.645 55.898C183.151 55.898 182.755 55.8563 182.456 55.7728C182.157 55.6894 181.966 55.6268 181.882 55.5851L182.06 54.9698C182.08 54.9837 182.126 55.0081 182.195 55.0428C182.272 55.0706 182.376 55.1054 182.508 55.1471C182.64 55.1819 182.8 55.2132 182.988 55.241C183.175 55.2688 183.391 55.2827 183.634 55.2827Z" fill="#D3AF4A"/>
<path d="M189.157 55.2827C189.421 55.2827 189.65 55.2757 189.845 55.2618C190.047 55.241 190.217 55.2166 190.356 55.1888V53.2909C190.28 53.2561 190.158 53.2213 189.991 53.1866C189.824 53.1449 189.595 53.124 189.303 53.124C189.136 53.124 188.962 53.1379 188.781 53.1657C188.601 53.1866 188.434 53.2387 188.281 53.3221C188.128 53.3986 188.003 53.5064 187.905 53.6454C187.808 53.7845 187.759 53.9687 187.759 54.1981C187.759 54.3998 187.791 54.5701 187.853 54.7091C187.923 54.8482 188.017 54.9594 188.135 55.0428C188.26 55.1263 188.406 55.1888 188.573 55.2305C188.747 55.2653 188.941 55.2827 189.157 55.2827ZM189.094 50.2562C189.449 50.2562 189.748 50.3083 189.991 50.4126C190.241 50.51 190.443 50.649 190.596 50.8298C190.749 51.0036 190.86 51.2121 190.93 51.4555C190.999 51.6988 191.034 51.963 191.034 52.248V55.6477C190.964 55.6685 190.864 55.6929 190.731 55.7207C190.599 55.7415 190.446 55.7659 190.273 55.7937C190.099 55.8215 189.904 55.8423 189.689 55.8563C189.48 55.8771 189.265 55.8875 189.042 55.8875C188.757 55.8875 188.493 55.8563 188.249 55.7937C188.013 55.7311 187.805 55.6338 187.624 55.5017C187.45 55.3626 187.311 55.1888 187.207 54.9803C187.109 54.7647 187.061 54.504 187.061 54.1981C187.061 53.9061 187.116 53.6559 187.228 53.4473C187.339 53.2387 187.495 53.0684 187.697 52.9363C187.898 52.7973 188.138 52.6964 188.416 52.6339C188.694 52.5713 188.997 52.54 189.324 52.54C189.421 52.54 189.522 52.547 189.626 52.5609C189.737 52.5678 189.842 52.5817 189.939 52.6026C190.043 52.6165 190.13 52.6339 190.2 52.6547C190.276 52.6686 190.328 52.6825 190.356 52.6964V52.3627C190.356 52.175 190.342 51.9943 190.314 51.8205C190.286 51.6397 190.224 51.4798 190.127 51.3408C190.036 51.1948 189.904 51.08 189.73 50.9966C189.563 50.9062 189.341 50.861 189.063 50.861C188.667 50.861 188.371 50.8889 188.176 50.9445C187.982 51.0001 187.839 51.0453 187.749 51.08L187.655 50.4856C187.773 50.43 187.954 50.3779 188.197 50.3292C188.448 50.2805 188.747 50.2562 189.094 50.2562Z" fill="#D3AF4A"/>
<path d="M199.427 55.7728H192.867V50.3813H193.545V55.1993H195.829V50.3813H196.507V55.1993H198.79V50.3813H199.468V55.1993H200.084V57.2641H199.427V55.7728Z" fill="#D3AF4A"/>
<path d="M205.075 51.2469C204.866 51.4972 204.623 51.8135 204.345 52.1959C204.073 52.5783 203.795 52.9815 203.51 53.4056C203.232 53.8297 202.965 54.2503 202.707 54.6674C202.45 55.0845 202.228 55.453 202.04 55.7728H201.404V50.3813H202.071V54.6987C202.238 54.3998 202.443 54.0556 202.686 53.6663C202.937 53.27 203.201 52.8737 203.479 52.4774C203.757 52.0742 204.035 51.6884 204.313 51.3199C204.598 50.9514 204.862 50.6386 205.106 50.3813H205.742V55.7728H205.075V51.2469Z" fill="#D3AF4A"/>
<path d="M211.111 50.3813V50.9549H209.339V55.7728H208.661V50.9549H206.898V50.3813H211.111Z" fill="#D3AF4A"/>
<path d="M213.965 55.2827C214.229 55.2827 214.458 55.2757 214.653 55.2618C214.854 55.241 215.025 55.2166 215.164 55.1888V53.2909C215.087 53.2561 214.966 53.2213 214.799 53.1866C214.632 53.1449 214.403 53.124 214.111 53.124C213.944 53.124 213.77 53.1379 213.589 53.1657C213.408 53.1866 213.242 53.2387 213.089 53.3221C212.936 53.3986 212.811 53.5064 212.713 53.6454C212.616 53.7845 212.567 53.9687 212.567 54.1981C212.567 54.3998 212.598 54.5701 212.661 54.7091C212.731 54.8482 212.824 54.9594 212.943 55.0428C213.068 55.1263 213.214 55.1888 213.381 55.2305C213.554 55.2653 213.749 55.2827 213.965 55.2827ZM213.902 50.2562C214.257 50.2562 214.556 50.3083 214.799 50.4126C215.049 50.51 215.251 50.649 215.404 50.8298C215.557 51.0036 215.668 51.2121 215.737 51.4555C215.807 51.6988 215.842 51.963 215.842 52.248V55.6477C215.772 55.6685 215.671 55.6929 215.539 55.7207C215.407 55.7415 215.254 55.7659 215.08 55.7937C214.907 55.8215 214.712 55.8423 214.496 55.8563C214.288 55.8771 214.072 55.8875 213.85 55.8875C213.565 55.8875 213.301 55.8563 213.057 55.7937C212.821 55.7311 212.612 55.6338 212.432 55.5017C212.258 55.3626 212.119 55.1888 212.014 54.9803C211.917 54.7647 211.868 54.504 211.868 54.1981C211.868 53.9061 211.924 53.6559 212.035 53.4473C212.147 53.2387 212.303 53.0684 212.505 52.9363C212.706 52.7973 212.946 52.6964 213.224 52.6339C213.502 52.5713 213.805 52.54 214.131 52.54C214.229 52.54 214.33 52.547 214.434 52.5609C214.545 52.5678 214.649 52.5817 214.747 52.6026C214.851 52.6165 214.938 52.6339 215.007 52.6547C215.084 52.6686 215.136 52.6825 215.164 52.6964V52.3627C215.164 52.175 215.15 51.9943 215.122 51.8205C215.094 51.6397 215.032 51.4798 214.934 51.3408C214.844 51.1948 214.712 51.08 214.538 50.9966C214.371 50.9062 214.149 50.861 213.871 50.861C213.474 50.861 213.179 50.8889 212.984 50.9445C212.79 51.0001 212.647 51.0453 212.557 51.08L212.463 50.4856C212.581 50.43 212.762 50.3779 213.005 50.3292C213.255 50.2805 213.554 50.2562 213.902 50.2562Z" fill="#D3AF4A"/>
<path d="M218.634 55.3244C218.634 55.4843 218.582 55.6199 218.478 55.7311C218.381 55.8423 218.242 55.898 218.061 55.898C217.88 55.898 217.737 55.8423 217.633 55.7311C217.536 55.6199 217.487 55.4843 217.487 55.3244C217.487 55.1645 217.536 55.0289 217.633 54.9177C217.737 54.8065 217.88 54.7508 218.061 54.7508C218.242 54.7508 218.381 54.8065 218.478 54.9177C218.582 55.0289 218.634 55.1645 218.634 55.3244Z" fill="#D3AF4A"/>
<path d="M50.5894 42.1924H216.981" stroke="#D3AF4A" stroke-width="2" stroke-miterlimit="10"/>
<path fill-rule="evenodd" clip-rule="evenodd" d="M0 43.1425H16.0134V42.0765H0V43.1425ZM0 41.4971L16.0134 41.5435V41.2422L0 41.2885V41.4971Z" fill="#D3AD4A"/>
<path fill-rule="evenodd" clip-rule="evenodd" d="M5.07507 21.3588C5.07507 21.3588 5.02872 20.5477 5.74712 19.7598C6.46552 18.9487 8.85247 18.9487 9.89531 18.6474C10.915 18.3462 10.9613 17.5814 10.9613 17.5814V14.4761C10.9613 14.4761 10.9382 15.2177 9.89531 15.5421C8.87564 15.8434 6.4887 15.8434 5.74712 16.6545C5.05189 17.4424 5.07507 18.2535 5.07507 18.2535V21.3588Z" fill="#AB8B2F"/>
<path fill-rule="evenodd" clip-rule="evenodd" d="M10.9383 17.6047C10.9383 17.6047 10.9846 16.7936 10.2894 16.0056C9.571 15.1945 7.18405 15.1945 6.16438 14.8933C5.14471 14.592 5.0752 13.8273 5.0752 13.8273V10.6987C5.0752 10.6987 5.12154 11.4403 6.16438 11.7647C7.18405 12.066 9.571 12.066 10.2894 12.8771C10.9846 13.665 10.9383 14.4761 10.9383 14.4761V17.6047Z" fill="#D3AF4A"/>
<path fill-rule="evenodd" clip-rule="evenodd" d="M5.07507 28.8906C5.07507 28.8906 5.02872 28.0795 5.74712 27.2915C6.46552 26.4804 8.85247 26.4804 9.89531 26.1792C10.915 25.8779 10.9613 25.1132 10.9613 25.1132V22.0078C10.9613 22.0078 10.9382 22.7494 9.89531 23.0738C8.87564 23.3751 6.4887 23.3751 5.74712 24.1862C5.05189 24.9741 5.07507 25.7852 5.07507 25.7852V28.8906Z" fill="#AB8B2F"/>
<path fill-rule="evenodd" clip-rule="evenodd" d="M10.9383 25.1132C10.9383 25.1132 10.9846 24.3021 10.2894 23.5142C9.571 22.7031 7.18405 22.7031 6.16438 22.4018C5.14471 22.1006 5.0752 21.3358 5.0752 21.3358V18.2305C5.0752 18.2305 5.12154 18.972 6.16438 19.2965C7.18405 19.5977 9.571 19.5977 10.2894 20.4088C10.9846 21.1968 10.9383 22.0079 10.9383 22.0079V25.1132Z" fill="#D3AF4A"/>
<path fill-rule="evenodd" clip-rule="evenodd" d="M5.07507 36.4223C5.07507 36.4223 5.02872 35.6112 5.74712 34.8233C6.46552 34.0122 8.85247 34.0122 9.89531 33.7109C10.915 33.4096 10.9613 32.6449 10.9613 32.6449V29.5396C10.9613 29.5396 10.9382 30.2811 9.89531 30.6056C8.87564 30.9068 6.4887 30.9068 5.74712 31.7179C5.05189 32.5059 5.07507 33.317 5.07507 33.317V36.4223Z" fill="#AB8B2F"/>
</g>
<defs>
<clipPath id="clip0">
<rect width="230.769" height="60" fill="white"/>
</clipPath>
</defs>
</svg>
